0
SECTION
2
HEADER
9
$INSUNITS
70
4
9
$MEASUREMENT
70
1
0
ENDSEC
0
SECTION
2
TABLES
0
TABLE
2
LAYER
70
2
0
LAYER
2
REZ
70
0
62
1
6
CONTINUOUS
0
LAYER
2
GRAVIROVANI
70
0
62
5
6
CONTINUOUS
0
ENDTAB
0
ENDSEC
0
SECTION
2
ENTITIES
0
CIRCLE
8
REZ
10
110.0000
20
146.5000
30
0.0
40
1.0000
0
CIRCLE
8
REZ
10
85.0000
20
146.5000
30
0.0
40
1.0000
0
CIRCLE
8
REZ
10
60.0000
20
146.5000
30
0.0
40
1.0000
0
CIRCLE
8
REZ
10
35.0000
20
146.5000
30
0.0
40
1.0000
0
CIRCLE
8
REZ
10
10.0000
20
146.5000
30
0.0
40
1.0000
0
CIRCLE
8
REZ
10
110.0000
20
89.5000
30
0.0
40
1.0000
0
CIRCLE
8
REZ
10
85.0000
20
89.5000
30
0.0
40
1.0000
0
CIRCLE
8
REZ
10
60.0000
20
89.5000
30
0.0
40
1.0000
0
CIRCLE
8
REZ
10
35.0000
20
89.5000
30
0.0
40
1.0000
0
CIRCLE
8
REZ
10
10.0000
20
89.5000
30
0.0
40
1.0000
0
CIRCLE
8
REZ
10
16.8000
20
32.5000
30
0.0
40
1.0000
0
CIRCLE
8
REZ
10
64.5000
20
32.5000
30
0.0
40
1.0000
0
CIRCLE
8
REZ
10
115.5000
20
32.5000
30
0.0
40
1.0000
0
CIRCLE
8
REZ
10
163.2000
20
32.5000
30
0.0
40
1.0000
0
CIRCLE
8
REZ
10
90.0000
20
44.5000
30
0.0
40
1.0000
0
CIRCLE
8
REZ
10
90.0000
20
20.5000
30
0.0
40
1.0000
0
CIRCLE
8
REZ
10
205.0000
20
6.0000
30
0.0
40
2.0000
0
LINE
8
REZ
10
0.0000
20
179.0000
30
0.0
11
5.0000
21
184.0000
31
0.0
0
LINE
8
REZ
10
5.0000
20
184.0000
30
0.0
11
212.0000
21
184.0000
31
0.0
0
ARC
8
REZ
10
215.0000
20
184.0000
30
0.0
40
3.0000
50
270.0000
51
180.0000
0
LINE
8
REZ
10
215.0000
20
181.0000
30
0.0
11
215.0000
21
3.0000
31
0.0
0
ARC
8
REZ
10
215.0000
20
0.0000
30
0.0
40
3.0000
50
180.0000
51
90.0000
0
LINE
8
REZ
10
212.0000
20
0.0000
30
0.0
11
3.0000
21
0.0000
31
0.0
0
ARC
8
REZ
10
0.0000
20
0.0000
30
0.0
40
3.0000
50
90.0000
51
0.0000
0
LINE
8
REZ
10
0.0000
20
3.0000
30
0.0
11
0.0000
21
179.0000
31
0.0
0
LINE
8
REZ
10
149.2870
20
174.0000
30
0.0
11
201.9510
21
150.1440
31
0.0
0
ARC
8
REZ
10
203.6006
20
146.5000
30
0.0
40
4.0000
50
245.6439
51
114.3561
0
LINE
8
REZ
10
201.9510
20
142.8560
30
0.0
11
149.2870
21
119.0000
31
0.0
0
LINE
8
REZ
10
149.2870
20
119.0000
30
0.0
11
149.2870
21
174.0000
31
0.0
0
ARC
8
REZ
10
181.8000
20
89.5000
30
0.0
40
23.0000
50
270.0000
51
90.0000
0
ARC
8
REZ
10
181.8000
20
67.0000
30
0.0
40
0.5000
50
270.0000
51
90.0000
0
ARC
8
REZ
10
181.8000
20
89.5000
30
0.0
40
22.0000
50
270.0000
51
90.0000
0
ARC
8
REZ
10
181.8000
20
112.0000
30
0.0
40
0.5000
50
270.0000
51
90.0000
0
ARC
8
REZ
10
181.8000
20
89.5000
30
0.0
40
20.5000
50
270.0000
51
90.0000
0
ARC
8
REZ
10
181.8000
20
69.5000
30
0.0
40
0.5000
50
270.0000
51
90.0000
0
ARC
8
REZ
10
181.8000
20
89.5000
30
0.0
40
19.5000
50
270.0000
51
90.0000
0
ARC
8
REZ
10
181.8000
20
109.5000
30
0.0
40
0.5000
50
270.0000
51
90.0000
0
ARC
8
REZ
10
181.8000
20
89.5000
30
0.0
40
18.0000
50
270.0000
51
90.0000
0
ARC
8
REZ
10
181.8000
20
72.0000
30
0.0
40
0.5000
50
270.0000
51
90.0000
0
ARC
8
REZ
10
181.8000
20
89.5000
30
0.0
40
17.0000
50
270.0000
51
90.0000
0
ARC
8
REZ
10
181.8000
20
107.0000
30
0.0
40
0.5000
50
270.0000
51
90.0000
0
ARC
8
REZ
10
181.8000
20
89.5000
30
0.0
40
15.5000
50
270.0000
51
90.0000
0
ARC
8
REZ
10
181.8000
20
74.5000
30
0.0
40
0.5000
50
270.0000
51
90.0000
0
ARC
8
REZ
10
181.8000
20
89.5000
30
0.0
40
14.5000
50
270.0000
51
90.0000
0
ARC
8
REZ
10
181.8000
20
104.5000
30
0.0
40
0.5000
50
270.0000
51
90.0000
0
LINE
8
REZ
10
80.5000
20
35.5000
30
0.0
11
99.5000
21
35.5000
31
0.0
0
ARC
8
REZ
10
99.5000
20
32.5000
30
0.0
40
3.0000
50
270.0000
51
90.0000
0
LINE
8
REZ
10
99.5000
20
29.5000
30
0.0
11
80.5000
21
29.5000
31
0.0
0
ARC
8
REZ
10
80.5000
20
32.5000
30
0.0
40
3.0000
50
90.0000
51
270.0000
0
ENDSEC
0
EOF
