<?xml version="1.0" encoding="UTF-8"?>
<!-- VYSVETLIVKY, ne rezaci soubor. Obsahuje zivy text. -->
<svg xmlns="http://www.w3.org/2000/svg" width="372mm" height="153mm" viewBox="-6 -16 372 153">
<rect x="-6" y="-16" width="372" height="153" fill="#ffffff"/>
<g id="cut">
<path d="M0 8 L8 0 L270 0 L270 127 L0 127 Z" fill="none" stroke="#000000" stroke-width="0.1"/>
<path d="M259.313 10 L206.649 33.856 A4 4 0 0 0 206.649 41.144 L259.313 65 Z" fill="none" stroke="#000000" stroke-width="0.1"/>
<circle cx="110" cy="37.5" r="1" fill="none" stroke="#000000" stroke-width="0.1"/>
<circle cx="85" cy="37.5" r="1" fill="none" stroke="#000000" stroke-width="0.1"/>
<circle cx="60" cy="37.5" r="1" fill="none" stroke="#000000" stroke-width="0.1"/>
<circle cx="35" cy="37.5" r="1" fill="none" stroke="#000000" stroke-width="0.1"/>
<circle cx="10" cy="37.5" r="1" fill="none" stroke="#000000" stroke-width="0.1"/>
<circle cx="60" cy="25.5" r="1" fill="none" stroke="#000000" stroke-width="0.1"/>
<circle cx="60" cy="49.5" r="1" fill="none" stroke="#000000" stroke-width="0.1"/>
<path d="M80.5 91.5 L99.5 91.5 A3 3 0 0 1 99.5 97.5 L80.5 97.5 A3 3 0 0 1 80.5 91.5 Z" fill="none" stroke="#000000" stroke-width="0.1"/>
<circle cx="16.8" cy="94.5" r="1" fill="none" stroke="#000000" stroke-width="0.1"/>
<circle cx="64.5" cy="94.5" r="1" fill="none" stroke="#000000" stroke-width="0.1"/>
<circle cx="115.5" cy="94.5" r="1" fill="none" stroke="#000000" stroke-width="0.1"/>
<circle cx="163.2" cy="94.5" r="1" fill="none" stroke="#000000" stroke-width="0.1"/>
<circle cx="90" cy="82.5" r="1" fill="none" stroke="#000000" stroke-width="0.1"/>
<circle cx="90" cy="106.5" r="1" fill="none" stroke="#000000" stroke-width="0.1"/>
<circle cx="260" cy="117" r="2" fill="none" stroke="#000000" stroke-width="0.1"/>
</g>
<g id="engrave">
<path d="M24 37.5 L31 37.5" fill="none" stroke="#0000ff" stroke-width="0.12"/>
<path d="M24 36.5 L27 36.5" fill="none" stroke="#0000ff" stroke-width="0.12"/>
<path d="M24 38.5 L27 38.5" fill="none" stroke="#0000ff" stroke-width="0.12"/>
<path d="M24 35.5 L27 35.5" fill="none" stroke="#0000ff" stroke-width="0.12"/>
<path d="M24 39.5 L27 39.5" fill="none" stroke="#0000ff" stroke-width="0.12"/>
<path d="M24 34.5 L27 34.5" fill="none" stroke="#0000ff" stroke-width="0.12"/>
<path d="M24 40.5 L27 40.5" fill="none" stroke="#0000ff" stroke-width="0.12"/>
<path d="M24 33.5 L27 33.5" fill="none" stroke="#0000ff" stroke-width="0.12"/>
<path d="M24 41.5 L27 41.5" fill="none" stroke="#0000ff" stroke-width="0.12"/>
<path d="M24 32.5 L29 32.5" fill="none" stroke="#0000ff" stroke-width="0.12"/>
<path d="M24 42.5 L29 42.5" fill="none" stroke="#0000ff" stroke-width="0.12"/>
<path d="M24 31.5 L27 31.5" fill="none" stroke="#0000ff" stroke-width="0.12"/>
<path d="M24 43.5 L27 43.5" fill="none" stroke="#0000ff" stroke-width="0.12"/>
<path d="M24 30.5 L27 30.5" fill="none" stroke="#0000ff" stroke-width="0.12"/>
<path d="M24 44.5 L27 44.5" fill="none" stroke="#0000ff" stroke-width="0.12"/>
<path d="M24 29.5 L27 29.5" fill="none" stroke="#0000ff" stroke-width="0.12"/>
<path d="M24 45.5 L27 45.5" fill="none" stroke="#0000ff" stroke-width="0.12"/>
<path d="M24 28.5 L27 28.5" fill="none" stroke="#0000ff" stroke-width="0.12"/>
<path d="M24 46.5 L27 46.5" fill="none" stroke="#0000ff" stroke-width="0.12"/>
<path d="M24 27.5 L31 27.5" fill="none" stroke="#0000ff" stroke-width="0.12"/>
<path d="M19.14 26.2 L19.14 27.5 M19.14 27.5 L19.14 28.8" fill="none" stroke="#0000ff" stroke-width="0.15"/>
<path d="M19.79 26.2 L21.35 26.2 M19.79 26.2 L19.79 27.5 M21.35 26.2 L21.35 27.5 M19.79 27.5 L19.79 28.8 M21.35 27.5 L21.35 28.8 M19.79 28.8 L21.35 28.8" fill="none" stroke="#0000ff" stroke-width="0.15"/>
<path d="M24 47.5 L31 47.5" fill="none" stroke="#0000ff" stroke-width="0.12"/>
<path d="M19.14 46.2 L19.14 47.5 M19.14 47.5 L19.14 48.8" fill="none" stroke="#0000ff" stroke-width="0.15"/>
<path d="M19.79 46.2 L21.35 46.2 M19.79 46.2 L19.79 47.5 M21.35 46.2 L21.35 47.5 M19.79 47.5 L19.79 48.8 M21.35 47.5 L21.35 48.8 M19.79 48.8 L21.35 48.8" fill="none" stroke="#0000ff" stroke-width="0.15"/>
<path d="M24 26.5 L27 26.5" fill="none" stroke="#0000ff" stroke-width="0.12"/>
<path d="M24 48.5 L27 48.5" fill="none" stroke="#0000ff" stroke-width="0.12"/>
<path d="M24 25.5 L27 25.5" fill="none" stroke="#0000ff" stroke-width="0.12"/>
<path d="M24 49.5 L27 49.5" fill="none" stroke="#0000ff" stroke-width="0.12"/>
<path d="M24 24.5 L27 24.5" fill="none" stroke="#0000ff" stroke-width="0.12"/>
<path d="M24 50.5 L27 50.5" fill="none" stroke="#0000ff" stroke-width="0.12"/>
<path d="M24 23.5 L27 23.5" fill="none" stroke="#0000ff" stroke-width="0.12"/>
<path d="M24 51.5 L27 51.5" fill="none" stroke="#0000ff" stroke-width="0.12"/>
<path d="M24 22.5 L29 22.5" fill="none" stroke="#0000ff" stroke-width="0.12"/>
<path d="M24 52.5 L29 52.5" fill="none" stroke="#0000ff" stroke-width="0.12"/>
<path d="M24 21.5 L27 21.5" fill="none" stroke="#0000ff" stroke-width="0.12"/>
<path d="M24 53.5 L27 53.5" fill="none" stroke="#0000ff" stroke-width="0.12"/>
<path d="M24 20.5 L27 20.5" fill="none" stroke="#0000ff" stroke-width="0.12"/>
<path d="M24 54.5 L27 54.5" fill="none" stroke="#0000ff" stroke-width="0.12"/>
<path d="M24 19.5 L27 19.5" fill="none" stroke="#0000ff" stroke-width="0.12"/>
<path d="M24 55.5 L27 55.5" fill="none" stroke="#0000ff" stroke-width="0.12"/>
<path d="M24 18.5 L27 18.5" fill="none" stroke="#0000ff" stroke-width="0.12"/>
<path d="M24 56.5 L27 56.5" fill="none" stroke="#0000ff" stroke-width="0.12"/>
<path d="M24 17.5 L31 17.5" fill="none" stroke="#0000ff" stroke-width="0.12"/>
<path d="M17.58 16.2 L19.14 16.2 M19.14 16.2 L19.14 17.5 M17.58 17.5 L19.14 17.5 M17.58 17.5 L17.58 18.8 M17.58 18.8 L19.14 18.8" fill="none" stroke="#0000ff" stroke-width="0.15"/>
<path d="M19.79 16.2 L21.35 16.2 M19.79 16.2 L19.79 17.5 M21.35 16.2 L21.35 17.5 M19.79 17.5 L19.79 18.8 M21.35 17.5 L21.35 18.8 M19.79 18.8 L21.35 18.8" fill="none" stroke="#0000ff" stroke-width="0.15"/>
<path d="M24 57.5 L31 57.5" fill="none" stroke="#0000ff" stroke-width="0.12"/>
<path d="M17.58 56.2 L19.14 56.2 M19.14 56.2 L19.14 57.5 M17.58 57.5 L19.14 57.5 M17.58 57.5 L17.58 58.8 M17.58 58.8 L19.14 58.8" fill="none" stroke="#0000ff" stroke-width="0.15"/>
<path d="M19.79 56.2 L21.35 56.2 M19.79 56.2 L19.79 57.5 M21.35 56.2 L21.35 57.5 M19.79 57.5 L19.79 58.8 M21.35 57.5 L21.35 58.8 M19.79 58.8 L21.35 58.8" fill="none" stroke="#0000ff" stroke-width="0.15"/>
<path d="M24 16.5 L27 16.5" fill="none" stroke="#0000ff" stroke-width="0.12"/>
<path d="M24 58.5 L27 58.5" fill="none" stroke="#0000ff" stroke-width="0.12"/>
<path d="M24 15.5 L27 15.5" fill="none" stroke="#0000ff" stroke-width="0.12"/>
<path d="M24 59.5 L27 59.5" fill="none" stroke="#0000ff" stroke-width="0.12"/>
<path d="M24 14.5 L27 14.5" fill="none" stroke="#0000ff" stroke-width="0.12"/>
<path d="M24 60.5 L27 60.5" fill="none" stroke="#0000ff" stroke-width="0.12"/>
<path d="M24 13.5 L27 13.5" fill="none" stroke="#0000ff" stroke-width="0.12"/>
<path d="M24 61.5 L27 61.5" fill="none" stroke="#0000ff" stroke-width="0.12"/>
<path d="M24 12.5 L29 12.5" fill="none" stroke="#0000ff" stroke-width="0.12"/>
<path d="M24 62.5 L29 62.5" fill="none" stroke="#0000ff" stroke-width="0.12"/>
<path d="M24 11.5 L27 11.5" fill="none" stroke="#0000ff" stroke-width="0.12"/>
<path d="M24 63.5 L27 63.5" fill="none" stroke="#0000ff" stroke-width="0.12"/>
<path d="M24 10.5 L27 10.5" fill="none" stroke="#0000ff" stroke-width="0.12"/>
<path d="M24 64.5 L27 64.5" fill="none" stroke="#0000ff" stroke-width="0.12"/>
<path d="M24 94.5 L31 94.5" fill="none" stroke="#0000ff" stroke-width="0.12"/>
<path d="M24 93.5 L27 93.5" fill="none" stroke="#0000ff" stroke-width="0.12"/>
<path d="M24 95.5 L27 95.5" fill="none" stroke="#0000ff" stroke-width="0.12"/>
<path d="M24 92.5 L27 92.5" fill="none" stroke="#0000ff" stroke-width="0.12"/>
<path d="M24 96.5 L27 96.5" fill="none" stroke="#0000ff" stroke-width="0.12"/>
<path d="M24 91.5 L27 91.5" fill="none" stroke="#0000ff" stroke-width="0.12"/>
<path d="M24 97.5 L27 97.5" fill="none" stroke="#0000ff" stroke-width="0.12"/>
<path d="M24 90.5 L27 90.5" fill="none" stroke="#0000ff" stroke-width="0.12"/>
<path d="M24 98.5 L27 98.5" fill="none" stroke="#0000ff" stroke-width="0.12"/>
<path d="M24 89.5 L29 89.5" fill="none" stroke="#0000ff" stroke-width="0.12"/>
<path d="M24 99.5 L29 99.5" fill="none" stroke="#0000ff" stroke-width="0.12"/>
<path d="M24 88.5 L27 88.5" fill="none" stroke="#0000ff" stroke-width="0.12"/>
<path d="M24 100.5 L27 100.5" fill="none" stroke="#0000ff" stroke-width="0.12"/>
<path d="M24 87.5 L27 87.5" fill="none" stroke="#0000ff" stroke-width="0.12"/>
<path d="M24 101.5 L27 101.5" fill="none" stroke="#0000ff" stroke-width="0.12"/>
<path d="M24 86.5 L27 86.5" fill="none" stroke="#0000ff" stroke-width="0.12"/>
<path d="M24 102.5 L27 102.5" fill="none" stroke="#0000ff" stroke-width="0.12"/>
<path d="M24 85.5 L27 85.5" fill="none" stroke="#0000ff" stroke-width="0.12"/>
<path d="M24 103.5 L27 103.5" fill="none" stroke="#0000ff" stroke-width="0.12"/>
<path d="M24 84.5 L31 84.5" fill="none" stroke="#0000ff" stroke-width="0.12"/>
<path d="M19.14 83.2 L19.14 84.5 M19.14 84.5 L19.14 85.8" fill="none" stroke="#0000ff" stroke-width="0.15"/>
<path d="M19.79 83.2 L21.35 83.2 M19.79 83.2 L19.79 84.5 M21.35 83.2 L21.35 84.5 M19.79 84.5 L19.79 85.8 M21.35 84.5 L21.35 85.8 M19.79 85.8 L21.35 85.8" fill="none" stroke="#0000ff" stroke-width="0.15"/>
<path d="M24 104.5 L31 104.5" fill="none" stroke="#0000ff" stroke-width="0.12"/>
<path d="M19.14 103.2 L19.14 104.5 M19.14 104.5 L19.14 105.8" fill="none" stroke="#0000ff" stroke-width="0.15"/>
<path d="M19.79 103.2 L21.35 103.2 M19.79 103.2 L19.79 104.5 M21.35 103.2 L21.35 104.5 M19.79 104.5 L19.79 105.8 M21.35 104.5 L21.35 105.8 M19.79 105.8 L21.35 105.8" fill="none" stroke="#0000ff" stroke-width="0.15"/>
<path d="M24 83.5 L27 83.5" fill="none" stroke="#0000ff" stroke-width="0.12"/>
<path d="M24 105.5 L27 105.5" fill="none" stroke="#0000ff" stroke-width="0.12"/>
<path d="M24 82.5 L27 82.5" fill="none" stroke="#0000ff" stroke-width="0.12"/>
<path d="M24 106.5 L27 106.5" fill="none" stroke="#0000ff" stroke-width="0.12"/>
<path d="M24 81.5 L27 81.5" fill="none" stroke="#0000ff" stroke-width="0.12"/>
<path d="M24 107.5 L27 107.5" fill="none" stroke="#0000ff" stroke-width="0.12"/>
<path d="M24 80.5 L27 80.5" fill="none" stroke="#0000ff" stroke-width="0.12"/>
<path d="M24 108.5 L27 108.5" fill="none" stroke="#0000ff" stroke-width="0.12"/>
<path d="M24 79.5 L29 79.5" fill="none" stroke="#0000ff" stroke-width="0.12"/>
<path d="M24 109.5 L29 109.5" fill="none" stroke="#0000ff" stroke-width="0.12"/>
<path d="M24 78.5 L27 78.5" fill="none" stroke="#0000ff" stroke-width="0.12"/>
<path d="M24 110.5 L27 110.5" fill="none" stroke="#0000ff" stroke-width="0.12"/>
<path d="M24 77.5 L27 77.5" fill="none" stroke="#0000ff" stroke-width="0.12"/>
<path d="M24 111.5 L27 111.5" fill="none" stroke="#0000ff" stroke-width="0.12"/>
<path d="M24 76.5 L27 76.5" fill="none" stroke="#0000ff" stroke-width="0.12"/>
<path d="M24 112.5 L27 112.5" fill="none" stroke="#0000ff" stroke-width="0.12"/>
<path d="M24 75.5 L27 75.5" fill="none" stroke="#0000ff" stroke-width="0.12"/>
<path d="M24 113.5 L27 113.5" fill="none" stroke="#0000ff" stroke-width="0.12"/>
<path d="M24 74.5 L31 74.5" fill="none" stroke="#0000ff" stroke-width="0.12"/>
<path d="M17.58 73.2 L19.14 73.2 M19.14 73.2 L19.14 74.5 M17.58 74.5 L19.14 74.5 M17.58 74.5 L17.58 75.8 M17.58 75.8 L19.14 75.8" fill="none" stroke="#0000ff" stroke-width="0.15"/>
<path d="M19.79 73.2 L21.35 73.2 M19.79 73.2 L19.79 74.5 M21.35 73.2 L21.35 74.5 M19.79 74.5 L19.79 75.8 M21.35 74.5 L21.35 75.8 M19.79 75.8 L21.35 75.8" fill="none" stroke="#0000ff" stroke-width="0.15"/>
<path d="M24 114.5 L31 114.5" fill="none" stroke="#0000ff" stroke-width="0.12"/>
<path d="M17.58 113.2 L19.14 113.2 M19.14 113.2 L19.14 114.5 M17.58 114.5 L19.14 114.5 M17.58 114.5 L17.58 115.8 M17.58 115.8 L19.14 115.8" fill="none" stroke="#0000ff" stroke-width="0.15"/>
<path d="M19.79 113.2 L21.35 113.2 M19.79 113.2 L19.79 114.5 M21.35 113.2 L21.35 114.5 M19.79 114.5 L19.79 115.8 M21.35 114.5 L21.35 115.8 M19.79 115.8 L21.35 115.8" fill="none" stroke="#0000ff" stroke-width="0.15"/>
<path d="M24 73.5 L27 73.5" fill="none" stroke="#0000ff" stroke-width="0.12"/>
<path d="M24 115.5 L27 115.5" fill="none" stroke="#0000ff" stroke-width="0.12"/>
<path d="M24 72.5 L27 72.5" fill="none" stroke="#0000ff" stroke-width="0.12"/>
<path d="M24 116.5 L27 116.5" fill="none" stroke="#0000ff" stroke-width="0.12"/>
<path d="M24 71.5 L27 71.5" fill="none" stroke="#0000ff" stroke-width="0.12"/>
<path d="M24 117.5 L27 117.5" fill="none" stroke="#0000ff" stroke-width="0.12"/>
<path d="M24 70.5 L27 70.5" fill="none" stroke="#0000ff" stroke-width="0.12"/>
<path d="M24 118.5 L27 118.5" fill="none" stroke="#0000ff" stroke-width="0.12"/>
<path d="M24 69.5 L29 69.5" fill="none" stroke="#0000ff" stroke-width="0.12"/>
<path d="M24 119.5 L29 119.5" fill="none" stroke="#0000ff" stroke-width="0.12"/>
<path d="M24 68.5 L27 68.5" fill="none" stroke="#0000ff" stroke-width="0.12"/>
<path d="M24 120.5 L27 120.5" fill="none" stroke="#0000ff" stroke-width="0.12"/>
<path d="M24 67.5 L27 67.5" fill="none" stroke="#0000ff" stroke-width="0.12"/>
<path d="M24 121.5 L27 121.5" fill="none" stroke="#0000ff" stroke-width="0.12"/>
<path d="M10 6 L10 13" fill="none" stroke="#0000ff" stroke-width="0.12"/>
<path d="M11 6 L11 8" fill="none" stroke="#0000ff" stroke-width="0.12"/>
<path d="M12 6 L12 8" fill="none" stroke="#0000ff" stroke-width="0.12"/>
<path d="M13 6 L13 8" fill="none" stroke="#0000ff" stroke-width="0.12"/>
<path d="M14 6 L14 8" fill="none" stroke="#0000ff" stroke-width="0.12"/>
<path d="M15 6 L15 9.5" fill="none" stroke="#0000ff" stroke-width="0.12"/>
<path d="M16 6 L16 8" fill="none" stroke="#0000ff" stroke-width="0.12"/>
<path d="M17 6 L17 8" fill="none" stroke="#0000ff" stroke-width="0.12"/>
<path d="M18 6 L18 8" fill="none" stroke="#0000ff" stroke-width="0.12"/>
<path d="M19 6 L19 8" fill="none" stroke="#0000ff" stroke-width="0.12"/>
<path d="M20 6 L20 11" fill="none" stroke="#0000ff" stroke-width="0.12"/>
<path d="M21 6 L21 8" fill="none" stroke="#0000ff" stroke-width="0.12"/>
<path d="M22 6 L22 8" fill="none" stroke="#0000ff" stroke-width="0.12"/>
<path d="M23 6 L23 8" fill="none" stroke="#0000ff" stroke-width="0.12"/>
<path d="M24 6 L24 8" fill="none" stroke="#0000ff" stroke-width="0.12"/>
<path d="M25 6 L25 9.5" fill="none" stroke="#0000ff" stroke-width="0.12"/>
<path d="M26 6 L26 8" fill="none" stroke="#0000ff" stroke-width="0.12"/>
<path d="M27 6 L27 8" fill="none" stroke="#0000ff" stroke-width="0.12"/>
<path d="M28 6 L28 8" fill="none" stroke="#0000ff" stroke-width="0.12"/>
<path d="M29 6 L29 8" fill="none" stroke="#0000ff" stroke-width="0.12"/>
<path d="M30 6 L30 11" fill="none" stroke="#0000ff" stroke-width="0.12"/>
<path d="M31 6 L31 8" fill="none" stroke="#0000ff" stroke-width="0.12"/>
<path d="M32 6 L32 8" fill="none" stroke="#0000ff" stroke-width="0.12"/>
<path d="M33 6 L33 8" fill="none" stroke="#0000ff" stroke-width="0.12"/>
<path d="M34 6 L34 8" fill="none" stroke="#0000ff" stroke-width="0.12"/>
<path d="M35 6 L35 9.5" fill="none" stroke="#0000ff" stroke-width="0.12"/>
<path d="M36 6 L36 8" fill="none" stroke="#0000ff" stroke-width="0.12"/>
<path d="M37 6 L37 8" fill="none" stroke="#0000ff" stroke-width="0.12"/>
<path d="M38 6 L38 8" fill="none" stroke="#0000ff" stroke-width="0.12"/>
<path d="M39 6 L39 8" fill="none" stroke="#0000ff" stroke-width="0.12"/>
<path d="M40 6 L40 11" fill="none" stroke="#0000ff" stroke-width="0.12"/>
<path d="M41 6 L41 8" fill="none" stroke="#0000ff" stroke-width="0.12"/>
<path d="M42 6 L42 8" fill="none" stroke="#0000ff" stroke-width="0.12"/>
<path d="M43 6 L43 8" fill="none" stroke="#0000ff" stroke-width="0.12"/>
<path d="M44 6 L44 8" fill="none" stroke="#0000ff" stroke-width="0.12"/>
<path d="M45 6 L45 9.5" fill="none" stroke="#0000ff" stroke-width="0.12"/>
<path d="M46 6 L46 8" fill="none" stroke="#0000ff" stroke-width="0.12"/>
<path d="M47 6 L47 8" fill="none" stroke="#0000ff" stroke-width="0.12"/>
<path d="M48 6 L48 8" fill="none" stroke="#0000ff" stroke-width="0.12"/>
<path d="M49 6 L49 8" fill="none" stroke="#0000ff" stroke-width="0.12"/>
<path d="M50 6 L50 11" fill="none" stroke="#0000ff" stroke-width="0.12"/>
<path d="M51 6 L51 8" fill="none" stroke="#0000ff" stroke-width="0.12"/>
<path d="M52 6 L52 8" fill="none" stroke="#0000ff" stroke-width="0.12"/>
<path d="M53 6 L53 8" fill="none" stroke="#0000ff" stroke-width="0.12"/>
<path d="M54 6 L54 8" fill="none" stroke="#0000ff" stroke-width="0.12"/>
<path d="M55 6 L55 9.5" fill="none" stroke="#0000ff" stroke-width="0.12"/>
<path d="M56 6 L56 8" fill="none" stroke="#0000ff" stroke-width="0.12"/>
<path d="M57 6 L57 8" fill="none" stroke="#0000ff" stroke-width="0.12"/>
<path d="M58 6 L58 8" fill="none" stroke="#0000ff" stroke-width="0.12"/>
<path d="M59 6 L59 8" fill="none" stroke="#0000ff" stroke-width="0.12"/>
<path d="M60 6 L60 13" fill="none" stroke="#0000ff" stroke-width="0.12"/>
<path d="M61.5 7 L63.06 7 M61.5 7 L61.5 8.3 M61.5 8.3 L63.06 8.3 M63.06 8.3 L63.06 9.6 M61.5 9.6 L63.06 9.6" fill="none" stroke="#0000ff" stroke-width="0.15"/>
<path d="M63.71 7 L65.27 7 M63.71 7 L63.71 8.3 M65.27 7 L65.27 8.3 M63.71 8.3 L63.71 9.6 M65.27 8.3 L65.27 9.6 M63.71 9.6 L65.27 9.6" fill="none" stroke="#0000ff" stroke-width="0.15"/>
<path d="M61 6 L61 8" fill="none" stroke="#0000ff" stroke-width="0.12"/>
<path d="M62 6 L62 8" fill="none" stroke="#0000ff" stroke-width="0.12"/>
<path d="M63 6 L63 8" fill="none" stroke="#0000ff" stroke-width="0.12"/>
<path d="M64 6 L64 8" fill="none" stroke="#0000ff" stroke-width="0.12"/>
<path d="M65 6 L65 9.5" fill="none" stroke="#0000ff" stroke-width="0.12"/>
<path d="M66 6 L66 8" fill="none" stroke="#0000ff" stroke-width="0.12"/>
<path d="M67 6 L67 8" fill="none" stroke="#0000ff" stroke-width="0.12"/>
<path d="M68 6 L68 8" fill="none" stroke="#0000ff" stroke-width="0.12"/>
<path d="M69 6 L69 8" fill="none" stroke="#0000ff" stroke-width="0.12"/>
<path d="M70 6 L70 11" fill="none" stroke="#0000ff" stroke-width="0.12"/>
<path d="M71 6 L71 8" fill="none" stroke="#0000ff" stroke-width="0.12"/>
<path d="M72 6 L72 8" fill="none" stroke="#0000ff" stroke-width="0.12"/>
<path d="M73 6 L73 8" fill="none" stroke="#0000ff" stroke-width="0.12"/>
<path d="M74 6 L74 8" fill="none" stroke="#0000ff" stroke-width="0.12"/>
<path d="M75 6 L75 9.5" fill="none" stroke="#0000ff" stroke-width="0.12"/>
<path d="M76 6 L76 8" fill="none" stroke="#0000ff" stroke-width="0.12"/>
<path d="M77 6 L77 8" fill="none" stroke="#0000ff" stroke-width="0.12"/>
<path d="M78 6 L78 8" fill="none" stroke="#0000ff" stroke-width="0.12"/>
<path d="M79 6 L79 8" fill="none" stroke="#0000ff" stroke-width="0.12"/>
<path d="M80 6 L80 11" fill="none" stroke="#0000ff" stroke-width="0.12"/>
<path d="M81 6 L81 8" fill="none" stroke="#0000ff" stroke-width="0.12"/>
<path d="M82 6 L82 8" fill="none" stroke="#0000ff" stroke-width="0.12"/>
<path d="M83 6 L83 8" fill="none" stroke="#0000ff" stroke-width="0.12"/>
<path d="M84 6 L84 8" fill="none" stroke="#0000ff" stroke-width="0.12"/>
<path d="M85 6 L85 9.5" fill="none" stroke="#0000ff" stroke-width="0.12"/>
<path d="M86 6 L86 8" fill="none" stroke="#0000ff" stroke-width="0.12"/>
<path d="M87 6 L87 8" fill="none" stroke="#0000ff" stroke-width="0.12"/>
<path d="M88 6 L88 8" fill="none" stroke="#0000ff" stroke-width="0.12"/>
<path d="M89 6 L89 8" fill="none" stroke="#0000ff" stroke-width="0.12"/>
<path d="M90 6 L90 11" fill="none" stroke="#0000ff" stroke-width="0.12"/>
<path d="M91 6 L91 8" fill="none" stroke="#0000ff" stroke-width="0.12"/>
<path d="M92 6 L92 8" fill="none" stroke="#0000ff" stroke-width="0.12"/>
<path d="M93 6 L93 8" fill="none" stroke="#0000ff" stroke-width="0.12"/>
<path d="M94 6 L94 8" fill="none" stroke="#0000ff" stroke-width="0.12"/>
<path d="M95 6 L95 9.5" fill="none" stroke="#0000ff" stroke-width="0.12"/>
<path d="M96 6 L96 8" fill="none" stroke="#0000ff" stroke-width="0.12"/>
<path d="M97 6 L97 8" fill="none" stroke="#0000ff" stroke-width="0.12"/>
<path d="M98 6 L98 8" fill="none" stroke="#0000ff" stroke-width="0.12"/>
<path d="M99 6 L99 8" fill="none" stroke="#0000ff" stroke-width="0.12"/>
<path d="M100 6 L100 11" fill="none" stroke="#0000ff" stroke-width="0.12"/>
<path d="M101 6 L101 8" fill="none" stroke="#0000ff" stroke-width="0.12"/>
<path d="M102 6 L102 8" fill="none" stroke="#0000ff" stroke-width="0.12"/>
<path d="M103 6 L103 8" fill="none" stroke="#0000ff" stroke-width="0.12"/>
<path d="M104 6 L104 8" fill="none" stroke="#0000ff" stroke-width="0.12"/>
<path d="M105 6 L105 9.5" fill="none" stroke="#0000ff" stroke-width="0.12"/>
<path d="M106 6 L106 8" fill="none" stroke="#0000ff" stroke-width="0.12"/>
<path d="M107 6 L107 8" fill="none" stroke="#0000ff" stroke-width="0.12"/>
<path d="M108 6 L108 8" fill="none" stroke="#0000ff" stroke-width="0.12"/>
<path d="M109 6 L109 8" fill="none" stroke="#0000ff" stroke-width="0.12"/>
<path d="M110 6 L110 13" fill="none" stroke="#0000ff" stroke-width="0.12"/>
<path d="M113.06 7 L113.06 8.3 M113.06 8.3 L113.06 9.6" fill="none" stroke="#0000ff" stroke-width="0.15"/>
<path d="M113.71 7 L115.27 7 M113.71 7 L113.71 8.3 M115.27 7 L115.27 8.3 M113.71 8.3 L113.71 9.6 M115.27 8.3 L115.27 9.6 M113.71 9.6 L115.27 9.6" fill="none" stroke="#0000ff" stroke-width="0.15"/>
<path d="M115.92 7 L117.48 7 M115.92 7 L115.92 8.3 M117.48 7 L117.48 8.3 M115.92 8.3 L115.92 9.6 M117.48 8.3 L117.48 9.6 M115.92 9.6 L117.48 9.6" fill="none" stroke="#0000ff" stroke-width="0.15"/>
<path d="M111 6 L111 8" fill="none" stroke="#0000ff" stroke-width="0.12"/>
<path d="M112 6 L112 8" fill="none" stroke="#0000ff" stroke-width="0.12"/>
<path d="M113 6 L113 8" fill="none" stroke="#0000ff" stroke-width="0.12"/>
<path d="M114 6 L114 8" fill="none" stroke="#0000ff" stroke-width="0.12"/>
<path d="M115 6 L115 9.5" fill="none" stroke="#0000ff" stroke-width="0.12"/>
<path d="M116 6 L116 8" fill="none" stroke="#0000ff" stroke-width="0.12"/>
<path d="M117 6 L117 8" fill="none" stroke="#0000ff" stroke-width="0.12"/>
<path d="M118 6 L118 8" fill="none" stroke="#0000ff" stroke-width="0.12"/>
<path d="M119 6 L119 8" fill="none" stroke="#0000ff" stroke-width="0.12"/>
<path d="M120 6 L120 11" fill="none" stroke="#0000ff" stroke-width="0.12"/>
<path d="M121 6 L121 8" fill="none" stroke="#0000ff" stroke-width="0.12"/>
<path d="M122 6 L122 8" fill="none" stroke="#0000ff" stroke-width="0.12"/>
<path d="M123 6 L123 8" fill="none" stroke="#0000ff" stroke-width="0.12"/>
<path d="M124 6 L124 8" fill="none" stroke="#0000ff" stroke-width="0.12"/>
<path d="M125 6 L125 9.5" fill="none" stroke="#0000ff" stroke-width="0.12"/>
<path d="M126 6 L126 8" fill="none" stroke="#0000ff" stroke-width="0.12"/>
<path d="M127 6 L127 8" fill="none" stroke="#0000ff" stroke-width="0.12"/>
<path d="M128 6 L128 8" fill="none" stroke="#0000ff" stroke-width="0.12"/>
<path d="M129 6 L129 8" fill="none" stroke="#0000ff" stroke-width="0.12"/>
<path d="M130 6 L130 11" fill="none" stroke="#0000ff" stroke-width="0.12"/>
<path d="M131 6 L131 8" fill="none" stroke="#0000ff" stroke-width="0.12"/>
<path d="M132 6 L132 8" fill="none" stroke="#0000ff" stroke-width="0.12"/>
<path d="M133 6 L133 8" fill="none" stroke="#0000ff" stroke-width="0.12"/>
<path d="M134 6 L134 8" fill="none" stroke="#0000ff" stroke-width="0.12"/>
<path d="M135 6 L135 9.5" fill="none" stroke="#0000ff" stroke-width="0.12"/>
<path d="M136 6 L136 8" fill="none" stroke="#0000ff" stroke-width="0.12"/>
<path d="M137 6 L137 8" fill="none" stroke="#0000ff" stroke-width="0.12"/>
<path d="M138 6 L138 8" fill="none" stroke="#0000ff" stroke-width="0.12"/>
<path d="M139 6 L139 8" fill="none" stroke="#0000ff" stroke-width="0.12"/>
<path d="M140 6 L140 11" fill="none" stroke="#0000ff" stroke-width="0.12"/>
<path d="M141 6 L141 8" fill="none" stroke="#0000ff" stroke-width="0.12"/>
<path d="M142 6 L142 8" fill="none" stroke="#0000ff" stroke-width="0.12"/>
<path d="M143 6 L143 8" fill="none" stroke="#0000ff" stroke-width="0.12"/>
<path d="M144 6 L144 8" fill="none" stroke="#0000ff" stroke-width="0.12"/>
<path d="M145 6 L145 9.5" fill="none" stroke="#0000ff" stroke-width="0.12"/>
<path d="M146 6 L146 8" fill="none" stroke="#0000ff" stroke-width="0.12"/>
<path d="M147 6 L147 8" fill="none" stroke="#0000ff" stroke-width="0.12"/>
<path d="M148 6 L148 8" fill="none" stroke="#0000ff" stroke-width="0.12"/>
<path d="M149 6 L149 8" fill="none" stroke="#0000ff" stroke-width="0.12"/>
<path d="M150 6 L150 11" fill="none" stroke="#0000ff" stroke-width="0.12"/>
<path d="M151 6 L151 8" fill="none" stroke="#0000ff" stroke-width="0.12"/>
<path d="M152 6 L152 8" fill="none" stroke="#0000ff" stroke-width="0.12"/>
<path d="M153 6 L153 8" fill="none" stroke="#0000ff" stroke-width="0.12"/>
<path d="M154 6 L154 8" fill="none" stroke="#0000ff" stroke-width="0.12"/>
<path d="M155 6 L155 9.5" fill="none" stroke="#0000ff" stroke-width="0.12"/>
<path d="M156 6 L156 8" fill="none" stroke="#0000ff" stroke-width="0.12"/>
<path d="M157 6 L157 8" fill="none" stroke="#0000ff" stroke-width="0.12"/>
<path d="M158 6 L158 8" fill="none" stroke="#0000ff" stroke-width="0.12"/>
<path d="M159 6 L159 8" fill="none" stroke="#0000ff" stroke-width="0.12"/>
<path d="M160 6 L160 13" fill="none" stroke="#0000ff" stroke-width="0.12"/>
<path d="M163.06 7 L163.06 8.3 M163.06 8.3 L163.06 9.6" fill="none" stroke="#0000ff" stroke-width="0.15"/>
<path d="M163.71 7 L165.27 7 M163.71 7 L163.71 8.3 M163.71 8.3 L165.27 8.3 M165.27 8.3 L165.27 9.6 M163.71 9.6 L165.27 9.6" fill="none" stroke="#0000ff" stroke-width="0.15"/>
<path d="M165.92 7 L167.48 7 M165.92 7 L165.92 8.3 M167.48 7 L167.48 8.3 M165.92 8.3 L165.92 9.6 M167.48 8.3 L167.48 9.6 M165.92 9.6 L167.48 9.6" fill="none" stroke="#0000ff" stroke-width="0.15"/>
<path d="M161 6 L161 8" fill="none" stroke="#0000ff" stroke-width="0.12"/>
<path d="M162 6 L162 8" fill="none" stroke="#0000ff" stroke-width="0.12"/>
<path d="M163 6 L163 8" fill="none" stroke="#0000ff" stroke-width="0.12"/>
<path d="M164 6 L164 8" fill="none" stroke="#0000ff" stroke-width="0.12"/>
<path d="M165 6 L165 9.5" fill="none" stroke="#0000ff" stroke-width="0.12"/>
<path d="M166 6 L166 8" fill="none" stroke="#0000ff" stroke-width="0.12"/>
<path d="M167 6 L167 8" fill="none" stroke="#0000ff" stroke-width="0.12"/>
<path d="M168 6 L168 8" fill="none" stroke="#0000ff" stroke-width="0.12"/>
<path d="M169 6 L169 8" fill="none" stroke="#0000ff" stroke-width="0.12"/>
<path d="M170 6 L170 11" fill="none" stroke="#0000ff" stroke-width="0.12"/>
<path d="M171 6 L171 8" fill="none" stroke="#0000ff" stroke-width="0.12"/>
<path d="M172 6 L172 8" fill="none" stroke="#0000ff" stroke-width="0.12"/>
<path d="M173 6 L173 8" fill="none" stroke="#0000ff" stroke-width="0.12"/>
<path d="M174 6 L174 8" fill="none" stroke="#0000ff" stroke-width="0.12"/>
<path d="M175 6 L175 9.5" fill="none" stroke="#0000ff" stroke-width="0.12"/>
<path d="M176 6 L176 8" fill="none" stroke="#0000ff" stroke-width="0.12"/>
<path d="M177 6 L177 8" fill="none" stroke="#0000ff" stroke-width="0.12"/>
<path d="M178 6 L178 8" fill="none" stroke="#0000ff" stroke-width="0.12"/>
<path d="M179 6 L179 8" fill="none" stroke="#0000ff" stroke-width="0.12"/>
<path d="M180 6 L180 11" fill="none" stroke="#0000ff" stroke-width="0.12"/>
<path d="M181 6 L181 8" fill="none" stroke="#0000ff" stroke-width="0.12"/>
<path d="M182 6 L182 8" fill="none" stroke="#0000ff" stroke-width="0.12"/>
<path d="M183 6 L183 8" fill="none" stroke="#0000ff" stroke-width="0.12"/>
<path d="M184 6 L184 8" fill="none" stroke="#0000ff" stroke-width="0.12"/>
<path d="M185 6 L185 9.5" fill="none" stroke="#0000ff" stroke-width="0.12"/>
<path d="M186 6 L186 8" fill="none" stroke="#0000ff" stroke-width="0.12"/>
<path d="M187 6 L187 8" fill="none" stroke="#0000ff" stroke-width="0.12"/>
<path d="M188 6 L188 8" fill="none" stroke="#0000ff" stroke-width="0.12"/>
<path d="M189 6 L189 8" fill="none" stroke="#0000ff" stroke-width="0.12"/>
<path d="M190 6 L190 11" fill="none" stroke="#0000ff" stroke-width="0.12"/>
<path d="M191 6 L191 8" fill="none" stroke="#0000ff" stroke-width="0.12"/>
<path d="M192 6 L192 8" fill="none" stroke="#0000ff" stroke-width="0.12"/>
<path d="M193 6 L193 8" fill="none" stroke="#0000ff" stroke-width="0.12"/>
<path d="M194 6 L194 8" fill="none" stroke="#0000ff" stroke-width="0.12"/>
<path d="M195 6 L195 9.5" fill="none" stroke="#0000ff" stroke-width="0.12"/>
<path d="M196 6 L196 8" fill="none" stroke="#0000ff" stroke-width="0.12"/>
<path d="M197 6 L197 8" fill="none" stroke="#0000ff" stroke-width="0.12"/>
<path d="M198 6 L198 8" fill="none" stroke="#0000ff" stroke-width="0.12"/>
<path d="M199 6 L199 8" fill="none" stroke="#0000ff" stroke-width="0.12"/>
<path d="M200 6 L200 11" fill="none" stroke="#0000ff" stroke-width="0.12"/>
<path d="M201 6 L201 8" fill="none" stroke="#0000ff" stroke-width="0.12"/>
<path d="M202 6 L202 8" fill="none" stroke="#0000ff" stroke-width="0.12"/>
<path d="M203 6 L203 8" fill="none" stroke="#0000ff" stroke-width="0.12"/>
<path d="M204 6 L204 8" fill="none" stroke="#0000ff" stroke-width="0.12"/>
<path d="M205 6 L205 9.5" fill="none" stroke="#0000ff" stroke-width="0.12"/>
<path d="M206 6 L206 8" fill="none" stroke="#0000ff" stroke-width="0.12"/>
<path d="M207 6 L207 8" fill="none" stroke="#0000ff" stroke-width="0.12"/>
<path d="M208 6 L208 8" fill="none" stroke="#0000ff" stroke-width="0.12"/>
<path d="M209 6 L209 8" fill="none" stroke="#0000ff" stroke-width="0.12"/>
<path d="M210 6 L210 13" fill="none" stroke="#0000ff" stroke-width="0.12"/>
<path d="M211.5 7 L213.06 7 M213.06 7 L213.06 8.3 M211.5 8.3 L213.06 8.3 M211.5 8.3 L211.5 9.6 M211.5 9.6 L213.06 9.6" fill="none" stroke="#0000ff" stroke-width="0.15"/>
<path d="M213.71 7 L215.27 7 M213.71 7 L213.71 8.3 M215.27 7 L215.27 8.3 M213.71 8.3 L213.71 9.6 M215.27 8.3 L215.27 9.6 M213.71 9.6 L215.27 9.6" fill="none" stroke="#0000ff" stroke-width="0.15"/>
<path d="M215.92 7 L217.48 7 M215.92 7 L215.92 8.3 M217.48 7 L217.48 8.3 M215.92 8.3 L215.92 9.6 M217.48 8.3 L217.48 9.6 M215.92 9.6 L217.48 9.6" fill="none" stroke="#0000ff" stroke-width="0.15"/>
<path d="M211 6 L211 8" fill="none" stroke="#0000ff" stroke-width="0.12"/>
<path d="M212 6 L212 8" fill="none" stroke="#0000ff" stroke-width="0.12"/>
<path d="M213 6 L213 8" fill="none" stroke="#0000ff" stroke-width="0.12"/>
<path d="M214 6 L214 8" fill="none" stroke="#0000ff" stroke-width="0.12"/>
<path d="M215 6 L215 9.5" fill="none" stroke="#0000ff" stroke-width="0.12"/>
<path d="M216 6 L216 8" fill="none" stroke="#0000ff" stroke-width="0.12"/>
<path d="M217 6 L217 8" fill="none" stroke="#0000ff" stroke-width="0.12"/>
<path d="M218 6 L218 8" fill="none" stroke="#0000ff" stroke-width="0.12"/>
<path d="M219 6 L219 8" fill="none" stroke="#0000ff" stroke-width="0.12"/>
<path d="M220 6 L220 11" fill="none" stroke="#0000ff" stroke-width="0.12"/>
<path d="M221 6 L221 8" fill="none" stroke="#0000ff" stroke-width="0.12"/>
<path d="M222 6 L222 8" fill="none" stroke="#0000ff" stroke-width="0.12"/>
<path d="M223 6 L223 8" fill="none" stroke="#0000ff" stroke-width="0.12"/>
<path d="M224 6 L224 8" fill="none" stroke="#0000ff" stroke-width="0.12"/>
<path d="M225 6 L225 9.5" fill="none" stroke="#0000ff" stroke-width="0.12"/>
<path d="M226 6 L226 8" fill="none" stroke="#0000ff" stroke-width="0.12"/>
<path d="M227 6 L227 8" fill="none" stroke="#0000ff" stroke-width="0.12"/>
<path d="M228 6 L228 8" fill="none" stroke="#0000ff" stroke-width="0.12"/>
<path d="M229 6 L229 8" fill="none" stroke="#0000ff" stroke-width="0.12"/>
<path d="M230 6 L230 11" fill="none" stroke="#0000ff" stroke-width="0.12"/>
<path d="M231 6 L231 8" fill="none" stroke="#0000ff" stroke-width="0.12"/>
<path d="M232 6 L232 8" fill="none" stroke="#0000ff" stroke-width="0.12"/>
<path d="M233 6 L233 8" fill="none" stroke="#0000ff" stroke-width="0.12"/>
<path d="M234 6 L234 8" fill="none" stroke="#0000ff" stroke-width="0.12"/>
<path d="M235 6 L235 9.5" fill="none" stroke="#0000ff" stroke-width="0.12"/>
<path d="M236 6 L236 8" fill="none" stroke="#0000ff" stroke-width="0.12"/>
<path d="M237 6 L237 8" fill="none" stroke="#0000ff" stroke-width="0.12"/>
<path d="M238 6 L238 8" fill="none" stroke="#0000ff" stroke-width="0.12"/>
<path d="M239 6 L239 8" fill="none" stroke="#0000ff" stroke-width="0.12"/>
<path d="M240 6 L240 11" fill="none" stroke="#0000ff" stroke-width="0.12"/>
<path d="M241 6 L241 8" fill="none" stroke="#0000ff" stroke-width="0.12"/>
<path d="M242 6 L242 8" fill="none" stroke="#0000ff" stroke-width="0.12"/>
<path d="M243 6 L243 8" fill="none" stroke="#0000ff" stroke-width="0.12"/>
<path d="M244 6 L244 8" fill="none" stroke="#0000ff" stroke-width="0.12"/>
<path d="M245 6 L245 9.5" fill="none" stroke="#0000ff" stroke-width="0.12"/>
<path d="M246 6 L246 8" fill="none" stroke="#0000ff" stroke-width="0.12"/>
<path d="M247 6 L247 8" fill="none" stroke="#0000ff" stroke-width="0.12"/>
<path d="M248 6 L248 8" fill="none" stroke="#0000ff" stroke-width="0.12"/>
<path d="M249 6 L249 8" fill="none" stroke="#0000ff" stroke-width="0.12"/>
<path d="M250 6 L250 11" fill="none" stroke="#0000ff" stroke-width="0.12"/>
<path d="M251 6 L251 8" fill="none" stroke="#0000ff" stroke-width="0.12"/>
<path d="M252 6 L252 8" fill="none" stroke="#0000ff" stroke-width="0.12"/>
<path d="M253 6 L253 8" fill="none" stroke="#0000ff" stroke-width="0.12"/>
<path d="M254 6 L254 8" fill="none" stroke="#0000ff" stroke-width="0.12"/>
<path d="M255 6 L255 9.5" fill="none" stroke="#0000ff" stroke-width="0.12"/>
<path d="M256 6 L256 8" fill="none" stroke="#0000ff" stroke-width="0.12"/>
<path d="M257 6 L257 8" fill="none" stroke="#0000ff" stroke-width="0.12"/>
<path d="M258 6 L258 8" fill="none" stroke="#0000ff" stroke-width="0.12"/>
<path d="M259 6 L259 8" fill="none" stroke="#0000ff" stroke-width="0.12"/>
<path d="M260 6 L260 13" fill="none" stroke="#0000ff" stroke-width="0.12"/>
<path d="M261.5 7 L263.06 7 M263.06 7 L263.06 8.3 M261.5 8.3 L263.06 8.3 M261.5 8.3 L261.5 9.6 M261.5 9.6 L263.06 9.6" fill="none" stroke="#0000ff" stroke-width="0.15"/>
<path d="M263.71 7 L265.27 7 M263.71 7 L263.71 8.3 M263.71 8.3 L265.27 8.3 M265.27 8.3 L265.27 9.6 M263.71 9.6 L265.27 9.6" fill="none" stroke="#0000ff" stroke-width="0.15"/>
<path d="M265.92 7 L267.48 7 M265.92 7 L265.92 8.3 M267.48 7 L267.48 8.3 M265.92 8.3 L265.92 9.6 M267.48 8.3 L267.48 9.6 M265.92 9.6 L267.48 9.6" fill="none" stroke="#0000ff" stroke-width="0.15"/>
<path d="M34 15 L200.3 15" fill="none" stroke="#0000ff" stroke-width="0.15"/>
<path d="M34 60 L200.3 60" fill="none" stroke="#0000ff" stroke-width="0.15"/>
<path d="M194.3 15.6 L194.3 16.9 M195.86 15.6 L195.86 16.9 M194.3 16.9 L195.86 16.9 M195.86 16.9 L195.86 18.2" fill="none" stroke="#0000ff" stroke-width="0.15"/>
<path d="M196.51 15.6 L198.07 15.6 M196.51 15.6 L196.51 16.9 M196.51 16.9 L198.07 16.9 M198.07 16.9 L198.07 18.2 M196.51 18.2 L198.07 18.2" fill="none" stroke="#0000ff" stroke-width="0.15"/>
<path d="M34 72 L255 72" fill="none" stroke="#0000ff" stroke-width="0.15"/>
<path d="M34 117 L255 117" fill="none" stroke="#0000ff" stroke-width="0.15"/>
<path d="M249 72.6 L249 73.9 M250.56 72.6 L250.56 73.9 M249 73.9 L250.56 73.9 M250.56 73.9 L250.56 75.2" fill="none" stroke="#0000ff" stroke-width="0.15"/>
<path d="M251.21 72.6 L252.77 72.6 M251.21 72.6 L251.21 73.9 M251.21 73.9 L252.77 73.9 M252.77 73.9 L252.77 75.2 M251.21 75.2 L252.77 75.2" fill="none" stroke="#0000ff" stroke-width="0.15"/>
<path d="M34 17.5 L200.3 17.5" fill="none" stroke="#0000ff" stroke-width="0.15"/>
<path d="M34 57.5 L200.3 57.5" fill="none" stroke="#0000ff" stroke-width="0.15"/>
<path d="M188.06 18.1 L188.06 19.4 M189.62 18.1 L189.62 19.4 M188.06 19.4 L189.62 19.4 M189.62 19.4 L189.62 20.7" fill="none" stroke="#0000ff" stroke-width="0.15"/>
<path d="M190.27 18.1 L191.83 18.1 M190.27 18.1 L190.27 19.4 M191.83 18.1 L191.83 19.4 M190.27 19.4 L190.27 20.7 M191.83 19.4 L191.83 20.7 M190.27 20.7 L191.83 20.7" fill="none" stroke="#0000ff" stroke-width="0.15"/>
<path d="M34 74.5 L255 74.5" fill="none" stroke="#0000ff" stroke-width="0.15"/>
<path d="M34 114.5 L255 114.5" fill="none" stroke="#0000ff" stroke-width="0.15"/>
<path d="M242.76 75.1 L242.76 76.4 M244.32 75.1 L244.32 76.4 M242.76 76.4 L244.32 76.4 M244.32 76.4 L244.32 77.7" fill="none" stroke="#0000ff" stroke-width="0.15"/>
<path d="M244.97 75.1 L246.53 75.1 M244.97 75.1 L244.97 76.4 M246.53 75.1 L246.53 76.4 M244.97 76.4 L244.97 77.7 M246.53 76.4 L246.53 77.7 M244.97 77.7 L246.53 77.7" fill="none" stroke="#0000ff" stroke-width="0.15"/>
<path d="M34 20 L200.3 20" fill="none" stroke="#0000ff" stroke-width="0.15"/>
<path d="M34 55 L200.3 55" fill="none" stroke="#0000ff" stroke-width="0.15"/>
<path d="M181.82 20.6 L183.38 20.6 M183.38 20.6 L183.38 21.9 M181.82 21.9 L183.38 21.9 M183.38 21.9 L183.38 23.2 M181.82 23.2 L183.38 23.2" fill="none" stroke="#0000ff" stroke-width="0.15"/>
<path d="M184.03 20.6 L185.59 20.6 M184.03 20.6 L184.03 21.9 M184.03 21.9 L185.59 21.9 M185.59 21.9 L185.59 23.2 M184.03 23.2 L185.59 23.2" fill="none" stroke="#0000ff" stroke-width="0.15"/>
<path d="M34 77 L255 77" fill="none" stroke="#0000ff" stroke-width="0.15"/>
<path d="M34 112 L255 112" fill="none" stroke="#0000ff" stroke-width="0.15"/>
<path d="M236.52 77.6 L238.08 77.6 M238.08 77.6 L238.08 78.9 M236.52 78.9 L238.08 78.9 M238.08 78.9 L238.08 80.2 M236.52 80.2 L238.08 80.2" fill="none" stroke="#0000ff" stroke-width="0.15"/>
<path d="M238.73 77.6 L240.29 77.6 M238.73 77.6 L238.73 78.9 M238.73 78.9 L240.29 78.9 M240.29 78.9 L240.29 80.2 M238.73 80.2 L240.29 80.2" fill="none" stroke="#0000ff" stroke-width="0.15"/>
<path d="M34 22.5 L200.3 22.5" fill="none" stroke="#0000ff" stroke-width="0.15"/>
<path d="M34 52.5 L200.3 52.5" fill="none" stroke="#0000ff" stroke-width="0.15"/>
<path d="M175.58 23.1 L177.14 23.1 M177.14 23.1 L177.14 24.4 M175.58 24.4 L177.14 24.4 M177.14 24.4 L177.14 25.7 M175.58 25.7 L177.14 25.7" fill="none" stroke="#0000ff" stroke-width="0.15"/>
<path d="M177.79 23.1 L179.35 23.1 M177.79 23.1 L177.79 24.4 M179.35 23.1 L179.35 24.4 M177.79 24.4 L177.79 25.7 M179.35 24.4 L179.35 25.7 M177.79 25.7 L179.35 25.7" fill="none" stroke="#0000ff" stroke-width="0.15"/>
<path d="M34 79.5 L255 79.5" fill="none" stroke="#0000ff" stroke-width="0.15"/>
<path d="M34 109.5 L255 109.5" fill="none" stroke="#0000ff" stroke-width="0.15"/>
<path d="M230.28 80.1 L231.84 80.1 M231.84 80.1 L231.84 81.4 M230.28 81.4 L231.84 81.4 M231.84 81.4 L231.84 82.7 M230.28 82.7 L231.84 82.7" fill="none" stroke="#0000ff" stroke-width="0.15"/>
<path d="M232.49 80.1 L234.05 80.1 M232.49 80.1 L232.49 81.4 M234.05 80.1 L234.05 81.4 M232.49 81.4 L232.49 82.7 M234.05 81.4 L234.05 82.7 M232.49 82.7 L234.05 82.7" fill="none" stroke="#0000ff" stroke-width="0.15"/>
</g>

<text x="0" y="-8" font-family="Helvetica, Arial, sans-serif" font-size="6" fill="#2b2b2b">Destička na opasek 28–45 mm — co je co</text>
<text x="0" y="-3" font-family="Helvetica, Arial, sans-serif" font-size="3" fill="#6a6a6a">Vysvětlivky. Řezárně posílej opasek-desticka.svg, ne tento soubor.</text>
<path d="M204.3 37.5 L273 22.5" fill="none" stroke="#999" stroke-width="0.2"/>
<text x="274" y="23.5" font-family="Helvetica, Arial, sans-serif" font-size="3.1" fill="#2b2b2b">vyříznutý tvar ŠPIČKY — obtáhni jeho vnitřní hranu</text>
<path d="M60 37.5 L273 28.5" fill="none" stroke="#999" stroke-width="0.2"/>
<text x="274" y="29.5" font-family="Helvetica, Arial, sans-serif" font-size="3.1" fill="#2b2b2b">PROSTŘEDNÍ dírka = tvoje míra, podle ní řadu umístíš</text>
<path d="M60 25.5 L273 34.5" fill="none" stroke="#999" stroke-width="0.2"/>
<text x="274" y="35.5" font-family="Helvetica, Arial, sans-serif" font-size="3.1" fill="#2b2b2b">dva otvory označují, která dírka je prostřední</text>
<path d="M110 37.5 L273 40.5" fill="none" stroke="#999" stroke-width="0.2"/>
<text x="274" y="41.5" font-family="Helvetica, Arial, sans-serif" font-size="3.1" fill="#2b2b2b">5 dírek pro trn, rozteč 25 mm</text>
<path d="M240 6 L273 9" fill="none" stroke="#999" stroke-width="0.2"/>
<text x="274" y="10" font-family="Helvetica, Arial, sans-serif" font-size="3.1" fill="#2b2b2b">podélné PRAVÍTKO — délka pásku na poutko</text>
<path d="M40 15 L273 46.5" fill="none" stroke="#999" stroke-width="0.2"/>
<text x="274" y="47.5" font-family="Helvetica, Arial, sans-serif" font-size="3.1" fill="#2b2b2b">linky ŠÍŘEK: srovnej obě hrany pásu na svou šířku</text>
<path d="M28 53.5 L273 52.5" fill="none" stroke="#999" stroke-width="0.2"/>
<text x="274" y="53.5" font-family="Helvetica, Arial, sans-serif" font-size="3.1" fill="#2b2b2b">příčná STUPNICE: pro šířku bez linky (38 mm → hrany na 19)</text>
<path d="M90 94.5 L273 81.5" fill="none" stroke="#999" stroke-width="0.2"/>
<text x="274" y="82.5" font-family="Helvetica, Arial, sans-serif" font-size="3.1" fill="#2b2b2b">OVÁL pro trn 25 × 6 mm, ohyb ho půlí</text>
<path d="M90 82.5 L273 87.5" fill="none" stroke="#999" stroke-width="0.2"/>
<text x="274" y="88.5" font-family="Helvetica, Arial, sans-serif" font-size="3.1" fill="#2b2b2b">dva otvory = LINIE OHYBU, spoj je pravítkem</text>
<path d="M163.2 94.5 L273 93.5" fill="none" stroke="#999" stroke-width="0.2"/>
<text x="274" y="94.5" font-family="Helvetica, Arial, sans-serif" font-size="3.1" fill="#2b2b2b">4 otvory = 2 NÝTY (± 25,5 a ± 73,2 mm od ohybu)</text>
<path d="M64.5 94.5 L273 99.5" fill="none" stroke="#999" stroke-width="0.2"/>
<text x="274" y="100.5" font-family="Helvetica, Arial, sans-serif" font-size="3.1" fill="#2b2b2b">mezi nýty je KAPSA PRO POUTKO 47,7 mm</text>
<path d="M0 94.5 L273 105.5" fill="none" stroke="#999" stroke-width="0.2"/>
<text x="274" y="106.5" font-family="Helvetica, Arial, sans-serif" font-size="3.1" fill="#2b2b2b">levá hrana = KONEC PÁSU (ohyb 90 mm od ní)</text>
<path d="M4 4 L273 111.5" fill="none" stroke="#999" stroke-width="0.2"/>
<text x="274" y="112.5" font-family="Helvetica, Arial, sans-serif" font-size="3.1" fill="#2b2b2b">zkosený roh značí, která hrana je konec pásu</text>
<path d="M260 117 L273 117.5" fill="none" stroke="#999" stroke-width="0.2"/>
<text x="274" y="118.5" font-family="Helvetica, Arial, sans-serif" font-size="3.1" fill="#2b2b2b">závěsný otvor</text>
</svg>