<?xml version="1.0" encoding="UTF-8"?>
<!-- REZACI SOUBOR. Merítko 1:1, 1 jednotka = 1 mm, list 210 mm siroky.
     Vse v jedne vrstve "cut", vse jsou uzavrene kontury, zadny text, zadna vypln.
     Zarezy v bocnich hranach jsou soucasti obrysu (zamerne, nejsou to vady).
     Otvory Ø 2 mm jsou znacici - neslucovat a nezvetsovat.
     Otvor Ø 4 mm je na zaveseni sablony.
     Kompenzaci kerfu neresit. Neprepocitavat merítko. -->
<svg xmlns="http://www.w3.org/2000/svg" width="210mm" height="279mm" viewBox="0 0 210 279">
<g id="cut">
<path d="M10 10 L10 104.5 L12 106 L10 107.5 L10 196 L50 196 L50 107.5 L48 106 L50 104.5 L50 10 Z" fill="none" stroke="#ff0000" stroke-width="0.1"/>
<path d="M27 96.5 A3 3 0 0 1 33 96.5 L33 115.5 A3 3 0 0 1 27 115.5 Z" fill="none" stroke="#ff0000" stroke-width="0.1"/>
<circle cx="30" cy="80.5" r="1" fill="none" stroke="#ff0000" stroke-width="0.1"/>
<circle cx="30" cy="131.5" r="1" fill="none" stroke="#ff0000" stroke-width="0.1"/>
<circle cx="30" cy="32.8" r="1" fill="none" stroke="#ff0000" stroke-width="0.1"/>
<circle cx="30" cy="179.2" r="1" fill="none" stroke="#ff0000" stroke-width="0.1"/>
<circle cx="30" cy="21" r="2" fill="none" stroke="#ff0000" stroke-width="0.1"/>
<path d="M70 226.3 L70 155.8 L72 154.3 L70 152.8 L70 48.456 L86.356 12.349 A4 4 0 0 1 93.644 12.349 L110 48.456 L110 152.8 L108 154.3 L110 155.8 L110 226.3 Z" fill="none" stroke="#ff0000" stroke-width="0.1"/>
<circle cx="90" cy="104.3" r="1" fill="none" stroke="#ff0000" stroke-width="0.1"/>
<circle cx="90" cy="129.3" r="1" fill="none" stroke="#ff0000" stroke-width="0.1"/>
<circle cx="90" cy="154.3" r="1" fill="none" stroke="#ff0000" stroke-width="0.1"/>
<circle cx="90" cy="179.3" r="1" fill="none" stroke="#ff0000" stroke-width="0.1"/>
<circle cx="90" cy="204.3" r="1" fill="none" stroke="#ff0000" stroke-width="0.1"/>
<circle cx="90" cy="215.3" r="2" fill="none" stroke="#ff0000" stroke-width="0.1"/>
<rect x="10" y="246.3" width="111" height="12" fill="none" stroke="#ff0000" stroke-width="0.1"/>
</g>
</svg>