0
SECTION
2
HEADER
9
$INSUNITS
70
4
9
$MEASUREMENT
70
1
0
ENDSEC
0
SECTION
2
TABLES
0
TABLE
2
LAYER
70
2
0
LAYER
2
REZ
70
0
62
1
6
CONTINUOUS
0
LAYER
2
GRAVIROVANI
70
0
62
5
6
CONTINUOUS
0
ENDTAB
0
ENDSEC
0
SECTION
2
ENTITIES
0
CIRCLE
8
REZ
10
110.0000
20
146.5000
30
0.0
40
1.0000
0
CIRCLE
8
REZ
10
85.0000
20
146.5000
30
0.0
40
1.0000
0
CIRCLE
8
REZ
10
60.0000
20
146.5000
30
0.0
40
1.0000
0
CIRCLE
8
REZ
10
35.0000
20
146.5000
30
0.0
40
1.0000
0
CIRCLE
8
REZ
10
10.0000
20
146.5000
30
0.0
40
1.0000
0
CIRCLE
8
REZ
10
110.0000
20
89.5000
30
0.0
40
1.0000
0
CIRCLE
8
REZ
10
85.0000
20
89.5000
30
0.0
40
1.0000
0
CIRCLE
8
REZ
10
60.0000
20
89.5000
30
0.0
40
1.0000
0
CIRCLE
8
REZ
10
35.0000
20
89.5000
30
0.0
40
1.0000
0
CIRCLE
8
REZ
10
10.0000
20
89.5000
30
0.0
40
1.0000
0
CIRCLE
8
REZ
10
16.8000
20
32.5000
30
0.0
40
1.0000
0
CIRCLE
8
REZ
10
64.5000
20
32.5000
30
0.0
40
1.0000
0
CIRCLE
8
REZ
10
115.5000
20
32.5000
30
0.0
40
1.0000
0
CIRCLE
8
REZ
10
163.2000
20
32.5000
30
0.0
40
1.0000
0
CIRCLE
8
REZ
10
90.0000
20
44.5000
30
0.0
40
1.0000
0
CIRCLE
8
REZ
10
90.0000
20
20.5000
30
0.0
40
1.0000
0
CIRCLE
8
REZ
10
205.0000
20
6.0000
30
0.0
40
2.0000
0
LINE
8
REZ
10
0.0000
20
179.0000
30
0.0
11
5.0000
21
184.0000
31
0.0
0
LINE
8
REZ
10
5.0000
20
184.0000
30
0.0
11
212.0000
21
184.0000
31
0.0
0
ARC
8
REZ
10
215.0000
20
184.0000
30
0.0
40
3.0000
50
270.0000
51
180.0000
0
LINE
8
REZ
10
215.0000
20
181.0000
30
0.0
11
215.0000
21
3.0000
31
0.0
0
ARC
8
REZ
10
215.0000
20
0.0000
30
0.0
40
3.0000
50
180.0000
51
90.0000
0
LINE
8
REZ
10
212.0000
20
0.0000
30
0.0
11
3.0000
21
0.0000
31
0.0
0
ARC
8
REZ
10
0.0000
20
0.0000
30
0.0
40
3.0000
50
90.0000
51
0.0000
0
LINE
8
REZ
10
0.0000
20
3.0000
30
0.0
11
0.0000
21
179.0000
31
0.0
0
LINE
8
REZ
10
149.2870
20
174.0000
30
0.0
11
201.9510
21
150.1440
31
0.0
0
ARC
8
REZ
10
203.6006
20
146.5000
30
0.0
40
4.0000
50
245.6439
51
114.3561
0
LINE
8
REZ
10
201.9510
20
142.8560
30
0.0
11
149.2870
21
119.0000
31
0.0
0
LINE
8
REZ
10
149.2870
20
119.0000
30
0.0
11
149.2870
21
174.0000
31
0.0
0
ARC
8
REZ
10
181.8000
20
89.5000
30
0.0
40
23.0000
50
270.0000
51
90.0000
0
ARC
8
REZ
10
181.8000
20
67.0000
30
0.0
40
0.5000
50
270.0000
51
90.0000
0
ARC
8
REZ
10
181.8000
20
89.5000
30
0.0
40
22.0000
50
270.0000
51
90.0000
0
ARC
8
REZ
10
181.8000
20
112.0000
30
0.0
40
0.5000
50
270.0000
51
90.0000
0
ARC
8
REZ
10
181.8000
20
89.5000
30
0.0
40
20.5000
50
270.0000
51
90.0000
0
ARC
8
REZ
10
181.8000
20
69.5000
30
0.0
40
0.5000
50
270.0000
51
90.0000
0
ARC
8
REZ
10
181.8000
20
89.5000
30
0.0
40
19.5000
50
270.0000
51
90.0000
0
ARC
8
REZ
10
181.8000
20
109.5000
30
0.0
40
0.5000
50
270.0000
51
90.0000
0
ARC
8
REZ
10
181.8000
20
89.5000
30
0.0
40
18.0000
50
270.0000
51
90.0000
0
ARC
8
REZ
10
181.8000
20
72.0000
30
0.0
40
0.5000
50
270.0000
51
90.0000
0
ARC
8
REZ
10
181.8000
20
89.5000
30
0.0
40
17.0000
50
270.0000
51
90.0000
0
ARC
8
REZ
10
181.8000
20
107.0000
30
0.0
40
0.5000
50
270.0000
51
90.0000
0
ARC
8
REZ
10
181.8000
20
89.5000
30
0.0
40
15.5000
50
270.0000
51
90.0000
0
ARC
8
REZ
10
181.8000
20
74.5000
30
0.0
40
0.5000
50
270.0000
51
90.0000
0
ARC
8
REZ
10
181.8000
20
89.5000
30
0.0
40
14.5000
50
270.0000
51
90.0000
0
ARC
8
REZ
10
181.8000
20
104.5000
30
0.0
40
0.5000
50
270.0000
51
90.0000
0
LINE
8
REZ
10
80.5000
20
35.5000
30
0.0
11
99.5000
21
35.5000
31
0.0
0
ARC
8
REZ
10
99.5000
20
32.5000
30
0.0
40
3.0000
50
270.0000
51
90.0000
0
LINE
8
REZ
10
99.5000
20
29.5000
30
0.0
11
80.5000
21
29.5000
31
0.0
0
ARC
8
REZ
10
80.5000
20
32.5000
30
0.0
40
3.0000
50
90.0000
51
270.0000
0
LINE
8
GRAVIROVANI
10
24.0000
20
146.5000
30
0.0
11
31.0000
21
146.5000
31
0.0
0
LINE
8
GRAVIROVANI
10
24.0000
20
147.5000
30
0.0
11
26.0000
21
147.5000
31
0.0
0
LINE
8
GRAVIROVANI
10
24.0000
20
145.5000
30
0.0
11
26.0000
21
145.5000
31
0.0
0
LINE
8
GRAVIROVANI
10
24.0000
20
148.5000
30
0.0
11
26.0000
21
148.5000
31
0.0
0
LINE
8
GRAVIROVANI
10
24.0000
20
144.5000
30
0.0
11
26.0000
21
144.5000
31
0.0
0
LINE
8
GRAVIROVANI
10
24.0000
20
149.5000
30
0.0
11
26.0000
21
149.5000
31
0.0
0
LINE
8
GRAVIROVANI
10
24.0000
20
143.5000
30
0.0
11
26.0000
21
143.5000
31
0.0
0
LINE
8
GRAVIROVANI
10
24.0000
20
150.5000
30
0.0
11
26.0000
21
150.5000
31
0.0
0
LINE
8
GRAVIROVANI
10
24.0000
20
142.5000
30
0.0
11
26.0000
21
142.5000
31
0.0
0
LINE
8
GRAVIROVANI
10
24.0000
20
151.5000
30
0.0
11
28.0000
21
151.5000
31
0.0
0
LINE
8
GRAVIROVANI
10
24.0000
20
141.5000
30
0.0
11
28.0000
21
141.5000
31
0.0
0
LINE
8
GRAVIROVANI
10
24.0000
20
152.5000
30
0.0
11
26.0000
21
152.5000
31
0.0
0
LINE
8
GRAVIROVANI
10
24.0000
20
140.5000
30
0.0
11
26.0000
21
140.5000
31
0.0
0
LINE
8
GRAVIROVANI
10
24.0000
20
153.5000
30
0.0
11
26.0000
21
153.5000
31
0.0
0
LINE
8
GRAVIROVANI
10
24.0000
20
139.5000
30
0.0
11
26.0000
21
139.5000
31
0.0
0
LINE
8
GRAVIROVANI
10
24.0000
20
154.5000
30
0.0
11
26.0000
21
154.5000
31
0.0
0
LINE
8
GRAVIROVANI
10
24.0000
20
138.5000
30
0.0
11
26.0000
21
138.5000
31
0.0
0
LINE
8
GRAVIROVANI
10
24.0000
20
155.5000
30
0.0
11
26.0000
21
155.5000
31
0.0
0
LINE
8
GRAVIROVANI
10
24.0000
20
137.5000
30
0.0
11
26.0000
21
137.5000
31
0.0
0
LINE
8
GRAVIROVANI
10
24.0000
20
156.5000
30
0.0
11
31.0000
21
156.5000
31
0.0
0
LINE
8
GRAVIROVANI
10
19.1400
20
157.8000
30
0.0
11
19.1400
21
156.5000
31
0.0
0
LINE
8
GRAVIROVANI
10
19.1400
20
156.5000
30
0.0
11
19.1400
21
155.2000
31
0.0
0
LINE
8
GRAVIROVANI
10
19.7900
20
157.8000
30
0.0
11
21.3500
21
157.8000
31
0.0
0
LINE
8
GRAVIROVANI
10
19.7900
20
157.8000
30
0.0
11
19.7900
21
156.5000
31
0.0
0
LINE
8
GRAVIROVANI
10
21.3500
20
157.8000
30
0.0
11
21.3500
21
156.5000
31
0.0
0
LINE
8
GRAVIROVANI
10
19.7900
20
156.5000
30
0.0
11
19.7900
21
155.2000
31
0.0
0
LINE
8
GRAVIROVANI
10
21.3500
20
156.5000
30
0.0
11
21.3500
21
155.2000
31
0.0
0
LINE
8
GRAVIROVANI
10
19.7900
20
155.2000
30
0.0
11
21.3500
21
155.2000
31
0.0
0
LINE
8
GRAVIROVANI
10
24.0000
20
136.5000
30
0.0
11
31.0000
21
136.5000
31
0.0
0
LINE
8
GRAVIROVANI
10
19.1400
20
137.8000
30
0.0
11
19.1400
21
136.5000
31
0.0
0
LINE
8
GRAVIROVANI
10
19.1400
20
136.5000
30
0.0
11
19.1400
21
135.2000
31
0.0
0
LINE
8
GRAVIROVANI
10
19.7900
20
137.8000
30
0.0
11
21.3500
21
137.8000
31
0.0
0
LINE
8
GRAVIROVANI
10
19.7900
20
137.8000
30
0.0
11
19.7900
21
136.5000
31
0.0
0
LINE
8
GRAVIROVANI
10
21.3500
20
137.8000
30
0.0
11
21.3500
21
136.5000
31
0.0
0
LINE
8
GRAVIROVANI
10
19.7900
20
136.5000
30
0.0
11
19.7900
21
135.2000
31
0.0
0
LINE
8
GRAVIROVANI
10
21.3500
20
136.5000
30
0.0
11
21.3500
21
135.2000
31
0.0
0
LINE
8
GRAVIROVANI
10
19.7900
20
135.2000
30
0.0
11
21.3500
21
135.2000
31
0.0
0
LINE
8
GRAVIROVANI
10
24.0000
20
157.5000
30
0.0
11
26.0000
21
157.5000
31
0.0
0
LINE
8
GRAVIROVANI
10
24.0000
20
135.5000
30
0.0
11
26.0000
21
135.5000
31
0.0
0
LINE
8
GRAVIROVANI
10
24.0000
20
158.5000
30
0.0
11
26.0000
21
158.5000
31
0.0
0
LINE
8
GRAVIROVANI
10
24.0000
20
134.5000
30
0.0
11
26.0000
21
134.5000
31
0.0
0
LINE
8
GRAVIROVANI
10
24.0000
20
159.5000
30
0.0
11
26.0000
21
159.5000
31
0.0
0
LINE
8
GRAVIROVANI
10
24.0000
20
133.5000
30
0.0
11
26.0000
21
133.5000
31
0.0
0
LINE
8
GRAVIROVANI
10
24.0000
20
160.5000
30
0.0
11
26.0000
21
160.5000
31
0.0
0
LINE
8
GRAVIROVANI
10
24.0000
20
132.5000
30
0.0
11
26.0000
21
132.5000
31
0.0
0
LINE
8
GRAVIROVANI
10
24.0000
20
161.5000
30
0.0
11
28.0000
21
161.5000
31
0.0
0
LINE
8
GRAVIROVANI
10
24.0000
20
131.5000
30
0.0
11
28.0000
21
131.5000
31
0.0
0
LINE
8
GRAVIROVANI
10
24.0000
20
162.5000
30
0.0
11
26.0000
21
162.5000
31
0.0
0
LINE
8
GRAVIROVANI
10
24.0000
20
130.5000
30
0.0
11
26.0000
21
130.5000
31
0.0
0
LINE
8
GRAVIROVANI
10
24.0000
20
163.5000
30
0.0
11
26.0000
21
163.5000
31
0.0
0
LINE
8
GRAVIROVANI
10
24.0000
20
129.5000
30
0.0
11
26.0000
21
129.5000
31
0.0
0
LINE
8
GRAVIROVANI
10
24.0000
20
164.5000
30
0.0
11
26.0000
21
164.5000
31
0.0
0
LINE
8
GRAVIROVANI
10
24.0000
20
128.5000
30
0.0
11
26.0000
21
128.5000
31
0.0
0
LINE
8
GRAVIROVANI
10
24.0000
20
165.5000
30
0.0
11
26.0000
21
165.5000
31
0.0
0
LINE
8
GRAVIROVANI
10
24.0000
20
127.5000
30
0.0
11
26.0000
21
127.5000
31
0.0
0
LINE
8
GRAVIROVANI
10
24.0000
20
166.5000
30
0.0
11
31.0000
21
166.5000
31
0.0
0
LINE
8
GRAVIROVANI
10
17.5800
20
167.8000
30
0.0
11
19.1400
21
167.8000
31
0.0
0
LINE
8
GRAVIROVANI
10
19.1400
20
167.8000
30
0.0
11
19.1400
21
166.5000
31
0.0
0
LINE
8
GRAVIROVANI
10
17.5800
20
166.5000
30
0.0
11
19.1400
21
166.5000
31
0.0
0
LINE
8
GRAVIROVANI
10
17.5800
20
166.5000
30
0.0
11
17.5800
21
165.2000
31
0.0
0
LINE
8
GRAVIROVANI
10
17.5800
20
165.2000
30
0.0
11
19.1400
21
165.2000
31
0.0
0
LINE
8
GRAVIROVANI
10
19.7900
20
167.8000
30
0.0
11
21.3500
21
167.8000
31
0.0
0
LINE
8
GRAVIROVANI
10
19.7900
20
167.8000
30
0.0
11
19.7900
21
166.5000
31
0.0
0
LINE
8
GRAVIROVANI
10
21.3500
20
167.8000
30
0.0
11
21.3500
21
166.5000
31
0.0
0
LINE
8
GRAVIROVANI
10
19.7900
20
166.5000
30
0.0
11
19.7900
21
165.2000
31
0.0
0
LINE
8
GRAVIROVANI
10
21.3500
20
166.5000
30
0.0
11
21.3500
21
165.2000
31
0.0
0
LINE
8
GRAVIROVANI
10
19.7900
20
165.2000
30
0.0
11
21.3500
21
165.2000
31
0.0
0
LINE
8
GRAVIROVANI
10
24.0000
20
126.5000
30
0.0
11
31.0000
21
126.5000
31
0.0
0
LINE
8
GRAVIROVANI
10
17.5800
20
127.8000
30
0.0
11
19.1400
21
127.8000
31
0.0
0
LINE
8
GRAVIROVANI
10
19.1400
20
127.8000
30
0.0
11
19.1400
21
126.5000
31
0.0
0
LINE
8
GRAVIROVANI
10
17.5800
20
126.5000
30
0.0
11
19.1400
21
126.5000
31
0.0
0
LINE
8
GRAVIROVANI
10
17.5800
20
126.5000
30
0.0
11
17.5800
21
125.2000
31
0.0
0
LINE
8
GRAVIROVANI
10
17.5800
20
125.2000
30
0.0
11
19.1400
21
125.2000
31
0.0
0
LINE
8
GRAVIROVANI
10
19.7900
20
127.8000
30
0.0
11
21.3500
21
127.8000
31
0.0
0
LINE
8
GRAVIROVANI
10
19.7900
20
127.8000
30
0.0
11
19.7900
21
126.5000
31
0.0
0
LINE
8
GRAVIROVANI
10
21.3500
20
127.8000
30
0.0
11
21.3500
21
126.5000
31
0.0
0
LINE
8
GRAVIROVANI
10
19.7900
20
126.5000
30
0.0
11
19.7900
21
125.2000
31
0.0
0
LINE
8
GRAVIROVANI
10
21.3500
20
126.5000
30
0.0
11
21.3500
21
125.2000
31
0.0
0
LINE
8
GRAVIROVANI
10
19.7900
20
125.2000
30
0.0
11
21.3500
21
125.2000
31
0.0
0
LINE
8
GRAVIROVANI
10
24.0000
20
167.5000
30
0.0
11
26.0000
21
167.5000
31
0.0
0
LINE
8
GRAVIROVANI
10
24.0000
20
125.5000
30
0.0
11
26.0000
21
125.5000
31
0.0
0
LINE
8
GRAVIROVANI
10
24.0000
20
168.5000
30
0.0
11
26.0000
21
168.5000
31
0.0
0
LINE
8
GRAVIROVANI
10
24.0000
20
124.5000
30
0.0
11
26.0000
21
124.5000
31
0.0
0
LINE
8
GRAVIROVANI
10
24.0000
20
169.5000
30
0.0
11
26.0000
21
169.5000
31
0.0
0
LINE
8
GRAVIROVANI
10
24.0000
20
123.5000
30
0.0
11
26.0000
21
123.5000
31
0.0
0
LINE
8
GRAVIROVANI
10
24.0000
20
170.5000
30
0.0
11
26.0000
21
170.5000
31
0.0
0
LINE
8
GRAVIROVANI
10
24.0000
20
122.5000
30
0.0
11
26.0000
21
122.5000
31
0.0
0
LINE
8
GRAVIROVANI
10
24.0000
20
89.5000
30
0.0
11
31.0000
21
89.5000
31
0.0
0
LINE
8
GRAVIROVANI
10
24.0000
20
90.5000
30
0.0
11
26.0000
21
90.5000
31
0.0
0
LINE
8
GRAVIROVANI
10
24.0000
20
88.5000
30
0.0
11
26.0000
21
88.5000
31
0.0
0
LINE
8
GRAVIROVANI
10
24.0000
20
91.5000
30
0.0
11
26.0000
21
91.5000
31
0.0
0
LINE
8
GRAVIROVANI
10
24.0000
20
87.5000
30
0.0
11
26.0000
21
87.5000
31
0.0
0
LINE
8
GRAVIROVANI
10
24.0000
20
92.5000
30
0.0
11
26.0000
21
92.5000
31
0.0
0
LINE
8
GRAVIROVANI
10
24.0000
20
86.5000
30
0.0
11
26.0000
21
86.5000
31
0.0
0
LINE
8
GRAVIROVANI
10
24.0000
20
93.5000
30
0.0
11
26.0000
21
93.5000
31
0.0
0
LINE
8
GRAVIROVANI
10
24.0000
20
85.5000
30
0.0
11
26.0000
21
85.5000
31
0.0
0
LINE
8
GRAVIROVANI
10
24.0000
20
94.5000
30
0.0
11
28.0000
21
94.5000
31
0.0
0
LINE
8
GRAVIROVANI
10
24.0000
20
84.5000
30
0.0
11
28.0000
21
84.5000
31
0.0
0
LINE
8
GRAVIROVANI
10
24.0000
20
95.5000
30
0.0
11
26.0000
21
95.5000
31
0.0
0
LINE
8
GRAVIROVANI
10
24.0000
20
83.5000
30
0.0
11
26.0000
21
83.5000
31
0.0
0
LINE
8
GRAVIROVANI
10
24.0000
20
96.5000
30
0.0
11
26.0000
21
96.5000
31
0.0
0
LINE
8
GRAVIROVANI
10
24.0000
20
82.5000
30
0.0
11
26.0000
21
82.5000
31
0.0
0
LINE
8
GRAVIROVANI
10
24.0000
20
97.5000
30
0.0
11
26.0000
21
97.5000
31
0.0
0
LINE
8
GRAVIROVANI
10
24.0000
20
81.5000
30
0.0
11
26.0000
21
81.5000
31
0.0
0
LINE
8
GRAVIROVANI
10
24.0000
20
98.5000
30
0.0
11
26.0000
21
98.5000
31
0.0
0
LINE
8
GRAVIROVANI
10
24.0000
20
80.5000
30
0.0
11
26.0000
21
80.5000
31
0.0
0
LINE
8
GRAVIROVANI
10
24.0000
20
99.5000
30
0.0
11
31.0000
21
99.5000
31
0.0
0
LINE
8
GRAVIROVANI
10
19.1400
20
100.8000
30
0.0
11
19.1400
21
99.5000
31
0.0
0
LINE
8
GRAVIROVANI
10
19.1400
20
99.5000
30
0.0
11
19.1400
21
98.2000
31
0.0
0
LINE
8
GRAVIROVANI
10
19.7900
20
100.8000
30
0.0
11
21.3500
21
100.8000
31
0.0
0
LINE
8
GRAVIROVANI
10
19.7900
20
100.8000
30
0.0
11
19.7900
21
99.5000
31
0.0
0
LINE
8
GRAVIROVANI
10
21.3500
20
100.8000
30
0.0
11
21.3500
21
99.5000
31
0.0
0
LINE
8
GRAVIROVANI
10
19.7900
20
99.5000
30
0.0
11
19.7900
21
98.2000
31
0.0
0
LINE
8
GRAVIROVANI
10
21.3500
20
99.5000
30
0.0
11
21.3500
21
98.2000
31
0.0
0
LINE
8
GRAVIROVANI
10
19.7900
20
98.2000
30
0.0
11
21.3500
21
98.2000
31
0.0
0
LINE
8
GRAVIROVANI
10
24.0000
20
79.5000
30
0.0
11
31.0000
21
79.5000
31
0.0
0
LINE
8
GRAVIROVANI
10
19.1400
20
80.8000
30
0.0
11
19.1400
21
79.5000
31
0.0
0
LINE
8
GRAVIROVANI
10
19.1400
20
79.5000
30
0.0
11
19.1400
21
78.2000
31
0.0
0
LINE
8
GRAVIROVANI
10
19.7900
20
80.8000
30
0.0
11
21.3500
21
80.8000
31
0.0
0
LINE
8
GRAVIROVANI
10
19.7900
20
80.8000
30
0.0
11
19.7900
21
79.5000
31
0.0
0
LINE
8
GRAVIROVANI
10
21.3500
20
80.8000
30
0.0
11
21.3500
21
79.5000
31
0.0
0
LINE
8
GRAVIROVANI
10
19.7900
20
79.5000
30
0.0
11
19.7900
21
78.2000
31
0.0
0
LINE
8
GRAVIROVANI
10
21.3500
20
79.5000
30
0.0
11
21.3500
21
78.2000
31
0.0
0
LINE
8
GRAVIROVANI
10
19.7900
20
78.2000
30
0.0
11
21.3500
21
78.2000
31
0.0
0
LINE
8
GRAVIROVANI
10
24.0000
20
100.5000
30
0.0
11
26.0000
21
100.5000
31
0.0
0
LINE
8
GRAVIROVANI
10
24.0000
20
78.5000
30
0.0
11
26.0000
21
78.5000
31
0.0
0
LINE
8
GRAVIROVANI
10
24.0000
20
101.5000
30
0.0
11
26.0000
21
101.5000
31
0.0
0
LINE
8
GRAVIROVANI
10
24.0000
20
77.5000
30
0.0
11
26.0000
21
77.5000
31
0.0
0
LINE
8
GRAVIROVANI
10
24.0000
20
102.5000
30
0.0
11
26.0000
21
102.5000
31
0.0
0
LINE
8
GRAVIROVANI
10
24.0000
20
76.5000
30
0.0
11
26.0000
21
76.5000
31
0.0
0
LINE
8
GRAVIROVANI
10
24.0000
20
103.5000
30
0.0
11
26.0000
21
103.5000
31
0.0
0
LINE
8
GRAVIROVANI
10
24.0000
20
75.5000
30
0.0
11
26.0000
21
75.5000
31
0.0
0
LINE
8
GRAVIROVANI
10
24.0000
20
104.5000
30
0.0
11
28.0000
21
104.5000
31
0.0
0
LINE
8
GRAVIROVANI
10
24.0000
20
74.5000
30
0.0
11
28.0000
21
74.5000
31
0.0
0
LINE
8
GRAVIROVANI
10
24.0000
20
105.5000
30
0.0
11
26.0000
21
105.5000
31
0.0
0
LINE
8
GRAVIROVANI
10
24.0000
20
73.5000
30
0.0
11
26.0000
21
73.5000
31
0.0
0
LINE
8
GRAVIROVANI
10
24.0000
20
106.5000
30
0.0
11
26.0000
21
106.5000
31
0.0
0
LINE
8
GRAVIROVANI
10
24.0000
20
72.5000
30
0.0
11
26.0000
21
72.5000
31
0.0
0
LINE
8
GRAVIROVANI
10
24.0000
20
107.5000
30
0.0
11
26.0000
21
107.5000
31
0.0
0
LINE
8
GRAVIROVANI
10
24.0000
20
71.5000
30
0.0
11
26.0000
21
71.5000
31
0.0
0
LINE
8
GRAVIROVANI
10
24.0000
20
108.5000
30
0.0
11
26.0000
21
108.5000
31
0.0
0
LINE
8
GRAVIROVANI
10
24.0000
20
70.5000
30
0.0
11
26.0000
21
70.5000
31
0.0
0
LINE
8
GRAVIROVANI
10
24.0000
20
109.5000
30
0.0
11
31.0000
21
109.5000
31
0.0
0
LINE
8
GRAVIROVANI
10
17.5800
20
110.8000
30
0.0
11
19.1400
21
110.8000
31
0.0
0
LINE
8
GRAVIROVANI
10
19.1400
20
110.8000
30
0.0
11
19.1400
21
109.5000
31
0.0
0
LINE
8
GRAVIROVANI
10
17.5800
20
109.5000
30
0.0
11
19.1400
21
109.5000
31
0.0
0
LINE
8
GRAVIROVANI
10
17.5800
20
109.5000
30
0.0
11
17.5800
21
108.2000
31
0.0
0
LINE
8
GRAVIROVANI
10
17.5800
20
108.2000
30
0.0
11
19.1400
21
108.2000
31
0.0
0
LINE
8
GRAVIROVANI
10
19.7900
20
110.8000
30
0.0
11
21.3500
21
110.8000
31
0.0
0
LINE
8
GRAVIROVANI
10
19.7900
20
110.8000
30
0.0
11
19.7900
21
109.5000
31
0.0
0
LINE
8
GRAVIROVANI
10
21.3500
20
110.8000
30
0.0
11
21.3500
21
109.5000
31
0.0
0
LINE
8
GRAVIROVANI
10
19.7900
20
109.5000
30
0.0
11
19.7900
21
108.2000
31
0.0
0
LINE
8
GRAVIROVANI
10
21.3500
20
109.5000
30
0.0
11
21.3500
21
108.2000
31
0.0
0
LINE
8
GRAVIROVANI
10
19.7900
20
108.2000
30
0.0
11
21.3500
21
108.2000
31
0.0
0
LINE
8
GRAVIROVANI
10
24.0000
20
69.5000
30
0.0
11
31.0000
21
69.5000
31
0.0
0
LINE
8
GRAVIROVANI
10
17.5800
20
70.8000
30
0.0
11
19.1400
21
70.8000
31
0.0
0
LINE
8
GRAVIROVANI
10
19.1400
20
70.8000
30
0.0
11
19.1400
21
69.5000
31
0.0
0
LINE
8
GRAVIROVANI
10
17.5800
20
69.5000
30
0.0
11
19.1400
21
69.5000
31
0.0
0
LINE
8
GRAVIROVANI
10
17.5800
20
69.5000
30
0.0
11
17.5800
21
68.2000
31
0.0
0
LINE
8
GRAVIROVANI
10
17.5800
20
68.2000
30
0.0
11
19.1400
21
68.2000
31
0.0
0
LINE
8
GRAVIROVANI
10
19.7900
20
70.8000
30
0.0
11
21.3500
21
70.8000
31
0.0
0
LINE
8
GRAVIROVANI
10
19.7900
20
70.8000
30
0.0
11
19.7900
21
69.5000
31
0.0
0
LINE
8
GRAVIROVANI
10
21.3500
20
70.8000
30
0.0
11
21.3500
21
69.5000
31
0.0
0
LINE
8
GRAVIROVANI
10
19.7900
20
69.5000
30
0.0
11
19.7900
21
68.2000
31
0.0
0
LINE
8
GRAVIROVANI
10
21.3500
20
69.5000
30
0.0
11
21.3500
21
68.2000
31
0.0
0
LINE
8
GRAVIROVANI
10
19.7900
20
68.2000
30
0.0
11
21.3500
21
68.2000
31
0.0
0
LINE
8
GRAVIROVANI
10
24.0000
20
110.5000
30
0.0
11
26.0000
21
110.5000
31
0.0
0
LINE
8
GRAVIROVANI
10
24.0000
20
68.5000
30
0.0
11
26.0000
21
68.5000
31
0.0
0
LINE
8
GRAVIROVANI
10
24.0000
20
111.5000
30
0.0
11
26.0000
21
111.5000
31
0.0
0
LINE
8
GRAVIROVANI
10
24.0000
20
67.5000
30
0.0
11
26.0000
21
67.5000
31
0.0
0
LINE
8
GRAVIROVANI
10
24.0000
20
112.5000
30
0.0
11
26.0000
21
112.5000
31
0.0
0
LINE
8
GRAVIROVANI
10
24.0000
20
66.5000
30
0.0
11
26.0000
21
66.5000
31
0.0
0
LINE
8
GRAVIROVANI
10
24.0000
20
113.5000
30
0.0
11
26.0000
21
113.5000
31
0.0
0
LINE
8
GRAVIROVANI
10
24.0000
20
65.5000
30
0.0
11
26.0000
21
65.5000
31
0.0
0
LINE
8
GRAVIROVANI
10
24.0000
20
32.5000
30
0.0
11
31.0000
21
32.5000
31
0.0
0
LINE
8
GRAVIROVANI
10
24.0000
20
33.5000
30
0.0
11
26.0000
21
33.5000
31
0.0
0
LINE
8
GRAVIROVANI
10
24.0000
20
31.5000
30
0.0
11
26.0000
21
31.5000
31
0.0
0
LINE
8
GRAVIROVANI
10
24.0000
20
34.5000
30
0.0
11
26.0000
21
34.5000
31
0.0
0
LINE
8
GRAVIROVANI
10
24.0000
20
30.5000
30
0.0
11
26.0000
21
30.5000
31
0.0
0
LINE
8
GRAVIROVANI
10
24.0000
20
35.5000
30
0.0
11
26.0000
21
35.5000
31
0.0
0
LINE
8
GRAVIROVANI
10
24.0000
20
29.5000
30
0.0
11
26.0000
21
29.5000
31
0.0
0
LINE
8
GRAVIROVANI
10
24.0000
20
36.5000
30
0.0
11
26.0000
21
36.5000
31
0.0
0
LINE
8
GRAVIROVANI
10
24.0000
20
28.5000
30
0.0
11
26.0000
21
28.5000
31
0.0
0
LINE
8
GRAVIROVANI
10
24.0000
20
37.5000
30
0.0
11
28.0000
21
37.5000
31
0.0
0
LINE
8
GRAVIROVANI
10
24.0000
20
27.5000
30
0.0
11
28.0000
21
27.5000
31
0.0
0
LINE
8
GRAVIROVANI
10
24.0000
20
38.5000
30
0.0
11
26.0000
21
38.5000
31
0.0
0
LINE
8
GRAVIROVANI
10
24.0000
20
26.5000
30
0.0
11
26.0000
21
26.5000
31
0.0
0
LINE
8
GRAVIROVANI
10
24.0000
20
39.5000
30
0.0
11
26.0000
21
39.5000
31
0.0
0
LINE
8
GRAVIROVANI
10
24.0000
20
25.5000
30
0.0
11
26.0000
21
25.5000
31
0.0
0
LINE
8
GRAVIROVANI
10
24.0000
20
40.5000
30
0.0
11
26.0000
21
40.5000
31
0.0
0
LINE
8
GRAVIROVANI
10
24.0000
20
24.5000
30
0.0
11
26.0000
21
24.5000
31
0.0
0
LINE
8
GRAVIROVANI
10
24.0000
20
41.5000
30
0.0
11
26.0000
21
41.5000
31
0.0
0
LINE
8
GRAVIROVANI
10
24.0000
20
23.5000
30
0.0
11
26.0000
21
23.5000
31
0.0
0
LINE
8
GRAVIROVANI
10
24.0000
20
42.5000
30
0.0
11
31.0000
21
42.5000
31
0.0
0
LINE
8
GRAVIROVANI
10
19.1400
20
43.8000
30
0.0
11
19.1400
21
42.5000
31
0.0
0
LINE
8
GRAVIROVANI
10
19.1400
20
42.5000
30
0.0
11
19.1400
21
41.2000
31
0.0
0
LINE
8
GRAVIROVANI
10
19.7900
20
43.8000
30
0.0
11
21.3500
21
43.8000
31
0.0
0
LINE
8
GRAVIROVANI
10
19.7900
20
43.8000
30
0.0
11
19.7900
21
42.5000
31
0.0
0
LINE
8
GRAVIROVANI
10
21.3500
20
43.8000
30
0.0
11
21.3500
21
42.5000
31
0.0
0
LINE
8
GRAVIROVANI
10
19.7900
20
42.5000
30
0.0
11
19.7900
21
41.2000
31
0.0
0
LINE
8
GRAVIROVANI
10
21.3500
20
42.5000
30
0.0
11
21.3500
21
41.2000
31
0.0
0
LINE
8
GRAVIROVANI
10
19.7900
20
41.2000
30
0.0
11
21.3500
21
41.2000
31
0.0
0
LINE
8
GRAVIROVANI
10
24.0000
20
22.5000
30
0.0
11
31.0000
21
22.5000
31
0.0
0
LINE
8
GRAVIROVANI
10
19.1400
20
23.8000
30
0.0
11
19.1400
21
22.5000
31
0.0
0
LINE
8
GRAVIROVANI
10
19.1400
20
22.5000
30
0.0
11
19.1400
21
21.2000
31
0.0
0
LINE
8
GRAVIROVANI
10
19.7900
20
23.8000
30
0.0
11
21.3500
21
23.8000
31
0.0
0
LINE
8
GRAVIROVANI
10
19.7900
20
23.8000
30
0.0
11
19.7900
21
22.5000
31
0.0
0
LINE
8
GRAVIROVANI
10
21.3500
20
23.8000
30
0.0
11
21.3500
21
22.5000
31
0.0
0
LINE
8
GRAVIROVANI
10
19.7900
20
22.5000
30
0.0
11
19.7900
21
21.2000
31
0.0
0
LINE
8
GRAVIROVANI
10
21.3500
20
22.5000
30
0.0
11
21.3500
21
21.2000
31
0.0
0
LINE
8
GRAVIROVANI
10
19.7900
20
21.2000
30
0.0
11
21.3500
21
21.2000
31
0.0
0
LINE
8
GRAVIROVANI
10
24.0000
20
43.5000
30
0.0
11
26.0000
21
43.5000
31
0.0
0
LINE
8
GRAVIROVANI
10
24.0000
20
21.5000
30
0.0
11
26.0000
21
21.5000
31
0.0
0
LINE
8
GRAVIROVANI
10
24.0000
20
44.5000
30
0.0
11
26.0000
21
44.5000
31
0.0
0
LINE
8
GRAVIROVANI
10
24.0000
20
20.5000
30
0.0
11
26.0000
21
20.5000
31
0.0
0
LINE
8
GRAVIROVANI
10
24.0000
20
45.5000
30
0.0
11
26.0000
21
45.5000
31
0.0
0
LINE
8
GRAVIROVANI
10
24.0000
20
19.5000
30
0.0
11
26.0000
21
19.5000
31
0.0
0
LINE
8
GRAVIROVANI
10
24.0000
20
46.5000
30
0.0
11
26.0000
21
46.5000
31
0.0
0
LINE
8
GRAVIROVANI
10
24.0000
20
18.5000
30
0.0
11
26.0000
21
18.5000
31
0.0
0
LINE
8
GRAVIROVANI
10
24.0000
20
47.5000
30
0.0
11
28.0000
21
47.5000
31
0.0
0
LINE
8
GRAVIROVANI
10
24.0000
20
17.5000
30
0.0
11
28.0000
21
17.5000
31
0.0
0
LINE
8
GRAVIROVANI
10
24.0000
20
48.5000
30
0.0
11
26.0000
21
48.5000
31
0.0
0
LINE
8
GRAVIROVANI
10
24.0000
20
16.5000
30
0.0
11
26.0000
21
16.5000
31
0.0
0
LINE
8
GRAVIROVANI
10
24.0000
20
49.5000
30
0.0
11
26.0000
21
49.5000
31
0.0
0
LINE
8
GRAVIROVANI
10
24.0000
20
15.5000
30
0.0
11
26.0000
21
15.5000
31
0.0
0
LINE
8
GRAVIROVANI
10
24.0000
20
50.5000
30
0.0
11
26.0000
21
50.5000
31
0.0
0
LINE
8
GRAVIROVANI
10
24.0000
20
14.5000
30
0.0
11
26.0000
21
14.5000
31
0.0
0
LINE
8
GRAVIROVANI
10
24.0000
20
51.5000
30
0.0
11
26.0000
21
51.5000
31
0.0
0
LINE
8
GRAVIROVANI
10
24.0000
20
13.5000
30
0.0
11
26.0000
21
13.5000
31
0.0
0
LINE
8
GRAVIROVANI
10
24.0000
20
52.5000
30
0.0
11
31.0000
21
52.5000
31
0.0
0
LINE
8
GRAVIROVANI
10
17.5800
20
53.8000
30
0.0
11
19.1400
21
53.8000
31
0.0
0
LINE
8
GRAVIROVANI
10
19.1400
20
53.8000
30
0.0
11
19.1400
21
52.5000
31
0.0
0
LINE
8
GRAVIROVANI
10
17.5800
20
52.5000
30
0.0
11
19.1400
21
52.5000
31
0.0
0
LINE
8
GRAVIROVANI
10
17.5800
20
52.5000
30
0.0
11
17.5800
21
51.2000
31
0.0
0
LINE
8
GRAVIROVANI
10
17.5800
20
51.2000
30
0.0
11
19.1400
21
51.2000
31
0.0
0
LINE
8
GRAVIROVANI
10
19.7900
20
53.8000
30
0.0
11
21.3500
21
53.8000
31
0.0
0
LINE
8
GRAVIROVANI
10
19.7900
20
53.8000
30
0.0
11
19.7900
21
52.5000
31
0.0
0
LINE
8
GRAVIROVANI
10
21.3500
20
53.8000
30
0.0
11
21.3500
21
52.5000
31
0.0
0
LINE
8
GRAVIROVANI
10
19.7900
20
52.5000
30
0.0
11
19.7900
21
51.2000
31
0.0
0
LINE
8
GRAVIROVANI
10
21.3500
20
52.5000
30
0.0
11
21.3500
21
51.2000
31
0.0
0
LINE
8
GRAVIROVANI
10
19.7900
20
51.2000
30
0.0
11
21.3500
21
51.2000
31
0.0
0
LINE
8
GRAVIROVANI
10
24.0000
20
12.5000
30
0.0
11
31.0000
21
12.5000
31
0.0
0
LINE
8
GRAVIROVANI
10
17.5800
20
13.8000
30
0.0
11
19.1400
21
13.8000
31
0.0
0
LINE
8
GRAVIROVANI
10
19.1400
20
13.8000
30
0.0
11
19.1400
21
12.5000
31
0.0
0
LINE
8
GRAVIROVANI
10
17.5800
20
12.5000
30
0.0
11
19.1400
21
12.5000
31
0.0
0
LINE
8
GRAVIROVANI
10
17.5800
20
12.5000
30
0.0
11
17.5800
21
11.2000
31
0.0
0
LINE
8
GRAVIROVANI
10
17.5800
20
11.2000
30
0.0
11
19.1400
21
11.2000
31
0.0
0
LINE
8
GRAVIROVANI
10
19.7900
20
13.8000
30
0.0
11
21.3500
21
13.8000
31
0.0
0
LINE
8
GRAVIROVANI
10
19.7900
20
13.8000
30
0.0
11
19.7900
21
12.5000
31
0.0
0
LINE
8
GRAVIROVANI
10
21.3500
20
13.8000
30
0.0
11
21.3500
21
12.5000
31
0.0
0
LINE
8
GRAVIROVANI
10
19.7900
20
12.5000
30
0.0
11
19.7900
21
11.2000
31
0.0
0
LINE
8
GRAVIROVANI
10
21.3500
20
12.5000
30
0.0
11
21.3500
21
11.2000
31
0.0
0
LINE
8
GRAVIROVANI
10
19.7900
20
11.2000
30
0.0
11
21.3500
21
11.2000
31
0.0
0
LINE
8
GRAVIROVANI
10
24.0000
20
53.5000
30
0.0
11
26.0000
21
53.5000
31
0.0
0
LINE
8
GRAVIROVANI
10
24.0000
20
11.5000
30
0.0
11
26.0000
21
11.5000
31
0.0
0
LINE
8
GRAVIROVANI
10
24.0000
20
54.5000
30
0.0
11
26.0000
21
54.5000
31
0.0
0
LINE
8
GRAVIROVANI
10
24.0000
20
10.5000
30
0.0
11
26.0000
21
10.5000
31
0.0
0
LINE
8
GRAVIROVANI
10
24.0000
20
55.5000
30
0.0
11
26.0000
21
55.5000
31
0.0
0
LINE
8
GRAVIROVANI
10
24.0000
20
9.5000
30
0.0
11
26.0000
21
9.5000
31
0.0
0
LINE
8
GRAVIROVANI
10
24.0000
20
56.5000
30
0.0
11
26.0000
21
56.5000
31
0.0
0
LINE
8
GRAVIROVANI
10
24.0000
20
8.5000
30
0.0
11
26.0000
21
8.5000
31
0.0
0
LINE
8
GRAVIROVANI
10
1.0000
20
178.0000
30
0.0
11
1.0000
21
176.0000
31
0.0
0
LINE
8
GRAVIROVANI
10
2.0000
20
178.0000
30
0.0
11
2.0000
21
176.8000
31
0.0
0
LINE
8
GRAVIROVANI
10
3.0000
20
178.0000
30
0.0
11
3.0000
21
176.8000
31
0.0
0
LINE
8
GRAVIROVANI
10
4.0000
20
178.0000
30
0.0
11
4.0000
21
176.0000
31
0.0
0
LINE
8
GRAVIROVANI
10
5.0000
20
178.0000
30
0.0
11
5.0000
21
174.5000
31
0.0
0
LINE
8
GRAVIROVANI
10
6.0000
20
178.0000
30
0.0
11
6.0000
21
176.0000
31
0.0
0
LINE
8
GRAVIROVANI
10
7.0000
20
178.0000
30
0.0
11
7.0000
21
176.0000
31
0.0
0
LINE
8
GRAVIROVANI
10
8.0000
20
178.0000
30
0.0
11
8.0000
21
176.0000
31
0.0
0
LINE
8
GRAVIROVANI
10
9.0000
20
178.0000
30
0.0
11
9.0000
21
176.0000
31
0.0
0
LINE
8
GRAVIROVANI
10
10.0000
20
178.0000
30
0.0
11
10.0000
21
173.0000
31
0.0
0
LINE
8
GRAVIROVANI
10
11.0000
20
178.0000
30
0.0
11
11.0000
21
176.0000
31
0.0
0
LINE
8
GRAVIROVANI
10
12.0000
20
178.0000
30
0.0
11
12.0000
21
176.0000
31
0.0
0
LINE
8
GRAVIROVANI
10
13.0000
20
178.0000
30
0.0
11
13.0000
21
176.0000
31
0.0
0
LINE
8
GRAVIROVANI
10
14.0000
20
178.0000
30
0.0
11
14.0000
21
176.0000
31
0.0
0
LINE
8
GRAVIROVANI
10
15.0000
20
178.0000
30
0.0
11
15.0000
21
174.5000
31
0.0
0
LINE
8
GRAVIROVANI
10
16.0000
20
178.0000
30
0.0
11
16.0000
21
176.0000
31
0.0
0
LINE
8
GRAVIROVANI
10
17.0000
20
178.0000
30
0.0
11
17.0000
21
176.0000
31
0.0
0
LINE
8
GRAVIROVANI
10
18.0000
20
178.0000
30
0.0
11
18.0000
21
176.0000
31
0.0
0
LINE
8
GRAVIROVANI
10
19.0000
20
178.0000
30
0.0
11
19.0000
21
176.0000
31
0.0
0
LINE
8
GRAVIROVANI
10
20.0000
20
178.0000
30
0.0
11
20.0000
21
173.0000
31
0.0
0
LINE
8
GRAVIROVANI
10
21.0000
20
178.0000
30
0.0
11
21.0000
21
176.0000
31
0.0
0
LINE
8
GRAVIROVANI
10
22.0000
20
178.0000
30
0.0
11
22.0000
21
176.0000
31
0.0
0
LINE
8
GRAVIROVANI
10
23.0000
20
178.0000
30
0.0
11
23.0000
21
176.0000
31
0.0
0
LINE
8
GRAVIROVANI
10
24.0000
20
178.0000
30
0.0
11
24.0000
21
176.0000
31
0.0
0
LINE
8
GRAVIROVANI
10
25.0000
20
178.0000
30
0.0
11
25.0000
21
174.5000
31
0.0
0
LINE
8
GRAVIROVANI
10
26.0000
20
178.0000
30
0.0
11
26.0000
21
176.0000
31
0.0
0
LINE
8
GRAVIROVANI
10
27.0000
20
178.0000
30
0.0
11
27.0000
21
176.0000
31
0.0
0
LINE
8
GRAVIROVANI
10
28.0000
20
178.0000
30
0.0
11
28.0000
21
176.0000
31
0.0
0
LINE
8
GRAVIROVANI
10
29.0000
20
178.0000
30
0.0
11
29.0000
21
176.0000
31
0.0
0
LINE
8
GRAVIROVANI
10
30.0000
20
178.0000
30
0.0
11
30.0000
21
173.0000
31
0.0
0
LINE
8
GRAVIROVANI
10
31.0000
20
178.0000
30
0.0
11
31.0000
21
176.0000
31
0.0
0
LINE
8
GRAVIROVANI
10
32.0000
20
178.0000
30
0.0
11
32.0000
21
176.0000
31
0.0
0
LINE
8
GRAVIROVANI
10
33.0000
20
178.0000
30
0.0
11
33.0000
21
176.0000
31
0.0
0
LINE
8
GRAVIROVANI
10
34.0000
20
178.0000
30
0.0
11
34.0000
21
176.0000
31
0.0
0
LINE
8
GRAVIROVANI
10
35.0000
20
178.0000
30
0.0
11
35.0000
21
174.5000
31
0.0
0
LINE
8
GRAVIROVANI
10
36.0000
20
178.0000
30
0.0
11
36.0000
21
176.0000
31
0.0
0
LINE
8
GRAVIROVANI
10
37.0000
20
178.0000
30
0.0
11
37.0000
21
176.0000
31
0.0
0
LINE
8
GRAVIROVANI
10
38.0000
20
178.0000
30
0.0
11
38.0000
21
176.0000
31
0.0
0
LINE
8
GRAVIROVANI
10
39.0000
20
178.0000
30
0.0
11
39.0000
21
176.0000
31
0.0
0
LINE
8
GRAVIROVANI
10
40.0000
20
178.0000
30
0.0
11
40.0000
21
173.0000
31
0.0
0
LINE
8
GRAVIROVANI
10
41.0000
20
178.0000
30
0.0
11
41.0000
21
176.0000
31
0.0
0
LINE
8
GRAVIROVANI
10
42.0000
20
178.0000
30
0.0
11
42.0000
21
176.0000
31
0.0
0
LINE
8
GRAVIROVANI
10
43.0000
20
178.0000
30
0.0
11
43.0000
21
176.0000
31
0.0
0
LINE
8
GRAVIROVANI
10
44.0000
20
178.0000
30
0.0
11
44.0000
21
176.0000
31
0.0
0
LINE
8
GRAVIROVANI
10
45.0000
20
178.0000
30
0.0
11
45.0000
21
174.5000
31
0.0
0
LINE
8
GRAVIROVANI
10
46.0000
20
178.0000
30
0.0
11
46.0000
21
176.0000
31
0.0
0
LINE
8
GRAVIROVANI
10
47.0000
20
178.0000
30
0.0
11
47.0000
21
176.0000
31
0.0
0
LINE
8
GRAVIROVANI
10
48.0000
20
178.0000
30
0.0
11
48.0000
21
176.0000
31
0.0
0
LINE
8
GRAVIROVANI
10
49.0000
20
178.0000
30
0.0
11
49.0000
21
176.0000
31
0.0
0
LINE
8
GRAVIROVANI
10
50.0000
20
178.0000
30
0.0
11
50.0000
21
171.0000
31
0.0
0
LINE
8
GRAVIROVANI
10
51.0000
20
178.0000
30
0.0
11
51.0000
21
176.0000
31
0.0
0
LINE
8
GRAVIROVANI
10
52.0000
20
178.0000
30
0.0
11
52.0000
21
176.8000
31
0.0
0
LINE
8
GRAVIROVANI
10
53.0000
20
178.0000
30
0.0
11
53.0000
21
176.8000
31
0.0
0
LINE
8
GRAVIROVANI
10
54.0000
20
178.0000
30
0.0
11
54.0000
21
176.8000
31
0.0
0
LINE
8
GRAVIROVANI
10
55.0000
20
178.0000
30
0.0
11
55.0000
21
176.8000
31
0.0
0
LINE
8
GRAVIROVANI
10
56.0000
20
178.0000
30
0.0
11
56.0000
21
176.0000
31
0.0
0
LINE
8
GRAVIROVANI
10
57.0000
20
178.0000
30
0.0
11
57.0000
21
176.0000
31
0.0
0
LINE
8
GRAVIROVANI
10
58.0000
20
178.0000
30
0.0
11
58.0000
21
176.0000
31
0.0
0
LINE
8
GRAVIROVANI
10
59.0000
20
178.0000
30
0.0
11
59.0000
21
176.0000
31
0.0
0
LINE
8
GRAVIROVANI
10
60.0000
20
178.0000
30
0.0
11
60.0000
21
173.0000
31
0.0
0
LINE
8
GRAVIROVANI
10
61.0000
20
178.0000
30
0.0
11
61.0000
21
176.0000
31
0.0
0
LINE
8
GRAVIROVANI
10
62.0000
20
178.0000
30
0.0
11
62.0000
21
176.0000
31
0.0
0
LINE
8
GRAVIROVANI
10
63.0000
20
178.0000
30
0.0
11
63.0000
21
176.0000
31
0.0
0
LINE
8
GRAVIROVANI
10
64.0000
20
178.0000
30
0.0
11
64.0000
21
176.0000
31
0.0
0
LINE
8
GRAVIROVANI
10
65.0000
20
178.0000
30
0.0
11
65.0000
21
174.5000
31
0.0
0
LINE
8
GRAVIROVANI
10
66.0000
20
178.0000
30
0.0
11
66.0000
21
176.0000
31
0.0
0
LINE
8
GRAVIROVANI
10
67.0000
20
178.0000
30
0.0
11
67.0000
21
176.0000
31
0.0
0
LINE
8
GRAVIROVANI
10
68.0000
20
178.0000
30
0.0
11
68.0000
21
176.0000
31
0.0
0
LINE
8
GRAVIROVANI
10
69.0000
20
178.0000
30
0.0
11
69.0000
21
176.0000
31
0.0
0
LINE
8
GRAVIROVANI
10
70.0000
20
178.0000
30
0.0
11
70.0000
21
173.0000
31
0.0
0
LINE
8
GRAVIROVANI
10
71.0000
20
178.0000
30
0.0
11
71.0000
21
176.0000
31
0.0
0
LINE
8
GRAVIROVANI
10
72.0000
20
178.0000
30
0.0
11
72.0000
21
176.0000
31
0.0
0
LINE
8
GRAVIROVANI
10
73.0000
20
178.0000
30
0.0
11
73.0000
21
176.0000
31
0.0
0
LINE
8
GRAVIROVANI
10
74.0000
20
178.0000
30
0.0
11
74.0000
21
176.0000
31
0.0
0
LINE
8
GRAVIROVANI
10
75.0000
20
178.0000
30
0.0
11
75.0000
21
174.5000
31
0.0
0
LINE
8
GRAVIROVANI
10
76.0000
20
178.0000
30
0.0
11
76.0000
21
176.0000
31
0.0
0
LINE
8
GRAVIROVANI
10
77.0000
20
178.0000
30
0.0
11
77.0000
21
176.0000
31
0.0
0
LINE
8
GRAVIROVANI
10
78.0000
20
178.0000
30
0.0
11
78.0000
21
176.0000
31
0.0
0
LINE
8
GRAVIROVANI
10
79.0000
20
178.0000
30
0.0
11
79.0000
21
176.0000
31
0.0
0
LINE
8
GRAVIROVANI
10
80.0000
20
178.0000
30
0.0
11
80.0000
21
173.0000
31
0.0
0
LINE
8
GRAVIROVANI
10
81.0000
20
178.0000
30
0.0
11
81.0000
21
176.0000
31
0.0
0
LINE
8
GRAVIROVANI
10
82.0000
20
178.0000
30
0.0
11
82.0000
21
176.0000
31
0.0
0
LINE
8
GRAVIROVANI
10
83.0000
20
178.0000
30
0.0
11
83.0000
21
176.0000
31
0.0
0
LINE
8
GRAVIROVANI
10
84.0000
20
178.0000
30
0.0
11
84.0000
21
176.0000
31
0.0
0
LINE
8
GRAVIROVANI
10
85.0000
20
178.0000
30
0.0
11
85.0000
21
174.5000
31
0.0
0
LINE
8
GRAVIROVANI
10
86.0000
20
178.0000
30
0.0
11
86.0000
21
176.0000
31
0.0
0
LINE
8
GRAVIROVANI
10
87.0000
20
178.0000
30
0.0
11
87.0000
21
176.0000
31
0.0
0
LINE
8
GRAVIROVANI
10
88.0000
20
178.0000
30
0.0
11
88.0000
21
176.0000
31
0.0
0
LINE
8
GRAVIROVANI
10
89.0000
20
178.0000
30
0.0
11
89.0000
21
176.0000
31
0.0
0
LINE
8
GRAVIROVANI
10
90.0000
20
178.0000
30
0.0
11
90.0000
21
173.0000
31
0.0
0
LINE
8
GRAVIROVANI
10
91.0000
20
178.0000
30
0.0
11
91.0000
21
176.0000
31
0.0
0
LINE
8
GRAVIROVANI
10
92.0000
20
178.0000
30
0.0
11
92.0000
21
176.0000
31
0.0
0
LINE
8
GRAVIROVANI
10
93.0000
20
178.0000
30
0.0
11
93.0000
21
176.0000
31
0.0
0
LINE
8
GRAVIROVANI
10
94.0000
20
178.0000
30
0.0
11
94.0000
21
176.0000
31
0.0
0
LINE
8
GRAVIROVANI
10
95.0000
20
178.0000
30
0.0
11
95.0000
21
174.5000
31
0.0
0
LINE
8
GRAVIROVANI
10
96.0000
20
178.0000
30
0.0
11
96.0000
21
176.0000
31
0.0
0
LINE
8
GRAVIROVANI
10
97.0000
20
178.0000
30
0.0
11
97.0000
21
176.0000
31
0.0
0
LINE
8
GRAVIROVANI
10
98.0000
20
178.0000
30
0.0
11
98.0000
21
176.0000
31
0.0
0
LINE
8
GRAVIROVANI
10
99.0000
20
178.0000
30
0.0
11
99.0000
21
176.0000
31
0.0
0
LINE
8
GRAVIROVANI
10
100.0000
20
178.0000
30
0.0
11
100.0000
21
171.0000
31
0.0
0
LINE
8
GRAVIROVANI
10
101.0000
20
178.0000
30
0.0
11
101.0000
21
176.0000
31
0.0
0
LINE
8
GRAVIROVANI
10
102.0000
20
178.0000
30
0.0
11
102.0000
21
176.8000
31
0.0
0
LINE
8
GRAVIROVANI
10
103.0000
20
178.0000
30
0.0
11
103.0000
21
176.8000
31
0.0
0
LINE
8
GRAVIROVANI
10
104.0000
20
178.0000
30
0.0
11
104.0000
21
176.8000
31
0.0
0
LINE
8
GRAVIROVANI
10
105.0000
20
178.0000
30
0.0
11
105.0000
21
176.8000
31
0.0
0
LINE
8
GRAVIROVANI
10
106.0000
20
178.0000
30
0.0
11
106.0000
21
176.8000
31
0.0
0
LINE
8
GRAVIROVANI
10
107.0000
20
178.0000
30
0.0
11
107.0000
21
176.8000
31
0.0
0
LINE
8
GRAVIROVANI
10
108.0000
20
178.0000
30
0.0
11
108.0000
21
176.0000
31
0.0
0
LINE
8
GRAVIROVANI
10
109.0000
20
178.0000
30
0.0
11
109.0000
21
176.0000
31
0.0
0
LINE
8
GRAVIROVANI
10
110.0000
20
178.0000
30
0.0
11
110.0000
21
173.0000
31
0.0
0
LINE
8
GRAVIROVANI
10
111.0000
20
178.0000
30
0.0
11
111.0000
21
176.0000
31
0.0
0
LINE
8
GRAVIROVANI
10
112.0000
20
178.0000
30
0.0
11
112.0000
21
176.0000
31
0.0
0
LINE
8
GRAVIROVANI
10
113.0000
20
178.0000
30
0.0
11
113.0000
21
176.0000
31
0.0
0
LINE
8
GRAVIROVANI
10
114.0000
20
178.0000
30
0.0
11
114.0000
21
176.0000
31
0.0
0
LINE
8
GRAVIROVANI
10
115.0000
20
178.0000
30
0.0
11
115.0000
21
174.5000
31
0.0
0
LINE
8
GRAVIROVANI
10
116.0000
20
178.0000
30
0.0
11
116.0000
21
176.0000
31
0.0
0
LINE
8
GRAVIROVANI
10
117.0000
20
178.0000
30
0.0
11
117.0000
21
176.0000
31
0.0
0
LINE
8
GRAVIROVANI
10
118.0000
20
178.0000
30
0.0
11
118.0000
21
176.0000
31
0.0
0
LINE
8
GRAVIROVANI
10
119.0000
20
178.0000
30
0.0
11
119.0000
21
176.0000
31
0.0
0
LINE
8
GRAVIROVANI
10
120.0000
20
178.0000
30
0.0
11
120.0000
21
173.0000
31
0.0
0
LINE
8
GRAVIROVANI
10
121.0000
20
178.0000
30
0.0
11
121.0000
21
176.0000
31
0.0
0
LINE
8
GRAVIROVANI
10
122.0000
20
178.0000
30
0.0
11
122.0000
21
176.0000
31
0.0
0
LINE
8
GRAVIROVANI
10
123.0000
20
178.0000
30
0.0
11
123.0000
21
176.0000
31
0.0
0
LINE
8
GRAVIROVANI
10
124.0000
20
178.0000
30
0.0
11
124.0000
21
176.0000
31
0.0
0
LINE
8
GRAVIROVANI
10
125.0000
20
178.0000
30
0.0
11
125.0000
21
174.5000
31
0.0
0
LINE
8
GRAVIROVANI
10
126.0000
20
178.0000
30
0.0
11
126.0000
21
176.0000
31
0.0
0
LINE
8
GRAVIROVANI
10
127.0000
20
178.0000
30
0.0
11
127.0000
21
176.0000
31
0.0
0
LINE
8
GRAVIROVANI
10
128.0000
20
178.0000
30
0.0
11
128.0000
21
176.0000
31
0.0
0
LINE
8
GRAVIROVANI
10
129.0000
20
178.0000
30
0.0
11
129.0000
21
176.0000
31
0.0
0
LINE
8
GRAVIROVANI
10
130.0000
20
178.0000
30
0.0
11
130.0000
21
173.0000
31
0.0
0
LINE
8
GRAVIROVANI
10
131.0000
20
178.0000
30
0.0
11
131.0000
21
176.0000
31
0.0
0
LINE
8
GRAVIROVANI
10
132.0000
20
178.0000
30
0.0
11
132.0000
21
176.0000
31
0.0
0
LINE
8
GRAVIROVANI
10
133.0000
20
178.0000
30
0.0
11
133.0000
21
176.0000
31
0.0
0
LINE
8
GRAVIROVANI
10
134.0000
20
178.0000
30
0.0
11
134.0000
21
176.0000
31
0.0
0
LINE
8
GRAVIROVANI
10
135.0000
20
178.0000
30
0.0
11
135.0000
21
174.5000
31
0.0
0
LINE
8
GRAVIROVANI
10
136.0000
20
178.0000
30
0.0
11
136.0000
21
176.0000
31
0.0
0
LINE
8
GRAVIROVANI
10
137.0000
20
178.0000
30
0.0
11
137.0000
21
176.0000
31
0.0
0
LINE
8
GRAVIROVANI
10
138.0000
20
178.0000
30
0.0
11
138.0000
21
176.0000
31
0.0
0
LINE
8
GRAVIROVANI
10
139.0000
20
178.0000
30
0.0
11
139.0000
21
176.0000
31
0.0
0
LINE
8
GRAVIROVANI
10
140.0000
20
178.0000
30
0.0
11
140.0000
21
173.0000
31
0.0
0
LINE
8
GRAVIROVANI
10
141.0000
20
178.0000
30
0.0
11
141.0000
21
176.0000
31
0.0
0
LINE
8
GRAVIROVANI
10
142.0000
20
178.0000
30
0.0
11
142.0000
21
176.0000
31
0.0
0
LINE
8
GRAVIROVANI
10
143.0000
20
178.0000
30
0.0
11
143.0000
21
176.0000
31
0.0
0
LINE
8
GRAVIROVANI
10
144.0000
20
178.0000
30
0.0
11
144.0000
21
176.0000
31
0.0
0
LINE
8
GRAVIROVANI
10
145.0000
20
178.0000
30
0.0
11
145.0000
21
174.5000
31
0.0
0
LINE
8
GRAVIROVANI
10
1.2000
20
176.4000
30
0.0
11
2.7600
21
176.4000
31
0.0
0
LINE
8
GRAVIROVANI
10
1.2000
20
176.4000
30
0.0
11
1.2000
21
175.1000
31
0.0
0
LINE
8
GRAVIROVANI
10
2.7600
20
176.4000
30
0.0
11
2.7600
21
175.1000
31
0.0
0
LINE
8
GRAVIROVANI
10
1.2000
20
175.1000
30
0.0
11
1.2000
21
173.8000
31
0.0
0
LINE
8
GRAVIROVANI
10
2.7600
20
175.1000
30
0.0
11
2.7600
21
173.8000
31
0.0
0
LINE
8
GRAVIROVANI
10
1.2000
20
173.8000
30
0.0
11
2.7600
21
173.8000
31
0.0
0
LINE
8
GRAVIROVANI
10
51.2000
20
176.4000
30
0.0
11
52.7600
21
176.4000
31
0.0
0
LINE
8
GRAVIROVANI
10
51.2000
20
176.4000
30
0.0
11
51.2000
21
175.1000
31
0.0
0
LINE
8
GRAVIROVANI
10
51.2000
20
175.1000
30
0.0
11
52.7600
21
175.1000
31
0.0
0
LINE
8
GRAVIROVANI
10
52.7600
20
175.1000
30
0.0
11
52.7600
21
173.8000
31
0.0
0
LINE
8
GRAVIROVANI
10
51.2000
20
173.8000
30
0.0
11
52.7600
21
173.8000
31
0.0
0
LINE
8
GRAVIROVANI
10
53.4100
20
176.4000
30
0.0
11
54.9700
21
176.4000
31
0.0
0
LINE
8
GRAVIROVANI
10
53.4100
20
176.4000
30
0.0
11
53.4100
21
175.1000
31
0.0
0
LINE
8
GRAVIROVANI
10
54.9700
20
176.4000
30
0.0
11
54.9700
21
175.1000
31
0.0
0
LINE
8
GRAVIROVANI
10
53.4100
20
175.1000
30
0.0
11
53.4100
21
173.8000
31
0.0
0
LINE
8
GRAVIROVANI
10
54.9700
20
175.1000
30
0.0
11
54.9700
21
173.8000
31
0.0
0
LINE
8
GRAVIROVANI
10
53.4100
20
173.8000
30
0.0
11
54.9700
21
173.8000
31
0.0
0
LINE
8
GRAVIROVANI
10
102.7600
20
176.4000
30
0.0
11
102.7600
21
175.1000
31
0.0
0
LINE
8
GRAVIROVANI
10
102.7600
20
175.1000
30
0.0
11
102.7600
21
173.8000
31
0.0
0
LINE
8
GRAVIROVANI
10
103.4100
20
176.4000
30
0.0
11
104.9700
21
176.4000
31
0.0
0
LINE
8
GRAVIROVANI
10
103.4100
20
176.4000
30
0.0
11
103.4100
21
175.1000
31
0.0
0
LINE
8
GRAVIROVANI
10
104.9700
20
176.4000
30
0.0
11
104.9700
21
175.1000
31
0.0
0
LINE
8
GRAVIROVANI
10
103.4100
20
175.1000
30
0.0
11
103.4100
21
173.8000
31
0.0
0
LINE
8
GRAVIROVANI
10
104.9700
20
175.1000
30
0.0
11
104.9700
21
173.8000
31
0.0
0
LINE
8
GRAVIROVANI
10
103.4100
20
173.8000
30
0.0
11
104.9700
21
173.8000
31
0.0
0
LINE
8
GRAVIROVANI
10
105.6200
20
176.4000
30
0.0
11
107.1800
21
176.4000
31
0.0
0
LINE
8
GRAVIROVANI
10
105.6200
20
176.4000
30
0.0
11
105.6200
21
175.1000
31
0.0
0
LINE
8
GRAVIROVANI
10
107.1800
20
176.4000
30
0.0
11
107.1800
21
175.1000
31
0.0
0
LINE
8
GRAVIROVANI
10
105.6200
20
175.1000
30
0.0
11
105.6200
21
173.8000
31
0.0
0
LINE
8
GRAVIROVANI
10
107.1800
20
175.1000
30
0.0
11
107.1800
21
173.8000
31
0.0
0
LINE
8
GRAVIROVANI
10
105.6200
20
173.8000
30
0.0
11
107.1800
21
173.8000
31
0.0
0
LINE
8
GRAVIROVANI
10
39.0000
20
169.0000
30
0.0
11
134.6870
21
169.0000
31
0.0
0
LINE
8
GRAVIROVANI
10
139.2870
20
169.0000
30
0.0
11
145.2870
21
169.0000
31
0.0
0
LINE
8
GRAVIROVANI
10
135.2870
20
170.0000
30
0.0
11
135.2870
21
169.0000
31
0.0
0
LINE
8
GRAVIROVANI
10
136.4870
20
170.0000
30
0.0
11
136.4870
21
169.0000
31
0.0
0
LINE
8
GRAVIROVANI
10
135.2870
20
169.0000
30
0.0
11
136.4870
21
169.0000
31
0.0
0
LINE
8
GRAVIROVANI
10
136.4870
20
169.0000
30
0.0
11
136.4870
21
168.0000
31
0.0
0
LINE
8
GRAVIROVANI
10
136.9870
20
170.0000
30
0.0
11
138.1870
21
170.0000
31
0.0
0
LINE
8
GRAVIROVANI
10
136.9870
20
170.0000
30
0.0
11
136.9870
21
169.0000
31
0.0
0
LINE
8
GRAVIROVANI
10
136.9870
20
169.0000
30
0.0
11
138.1870
21
169.0000
31
0.0
0
LINE
8
GRAVIROVANI
10
138.1870
20
169.0000
30
0.0
11
138.1870
21
168.0000
31
0.0
0
LINE
8
GRAVIROVANI
10
136.9870
20
168.0000
30
0.0
11
138.1870
21
168.0000
31
0.0
0
LINE
8
GRAVIROVANI
10
39.0000
20
124.0000
30
0.0
11
134.6870
21
124.0000
31
0.0
0
LINE
8
GRAVIROVANI
10
139.2870
20
124.0000
30
0.0
11
145.2870
21
124.0000
31
0.0
0
LINE
8
GRAVIROVANI
10
135.2870
20
125.0000
30
0.0
11
135.2870
21
124.0000
31
0.0
0
LINE
8
GRAVIROVANI
10
136.4870
20
125.0000
30
0.0
11
136.4870
21
124.0000
31
0.0
0
LINE
8
GRAVIROVANI
10
135.2870
20
124.0000
30
0.0
11
136.4870
21
124.0000
31
0.0
0
LINE
8
GRAVIROVANI
10
136.4870
20
124.0000
30
0.0
11
136.4870
21
123.0000
31
0.0
0
LINE
8
GRAVIROVANI
10
136.9870
20
125.0000
30
0.0
11
138.1870
21
125.0000
31
0.0
0
LINE
8
GRAVIROVANI
10
136.9870
20
125.0000
30
0.0
11
136.9870
21
124.0000
31
0.0
0
LINE
8
GRAVIROVANI
10
136.9870
20
124.0000
30
0.0
11
138.1870
21
124.0000
31
0.0
0
LINE
8
GRAVIROVANI
10
138.1870
20
124.0000
30
0.0
11
138.1870
21
123.0000
31
0.0
0
LINE
8
GRAVIROVANI
10
136.9870
20
123.0000
30
0.0
11
138.1870
21
123.0000
31
0.0
0
LINE
8
GRAVIROVANI
10
39.0000
20
112.0000
30
0.0
11
171.2000
21
112.0000
31
0.0
0
LINE
8
GRAVIROVANI
10
175.8000
20
112.0000
30
0.0
11
181.8000
21
112.0000
31
0.0
0
LINE
8
GRAVIROVANI
10
171.8000
20
113.0000
30
0.0
11
171.8000
21
112.0000
31
0.0
0
LINE
8
GRAVIROVANI
10
173.0000
20
113.0000
30
0.0
11
173.0000
21
112.0000
31
0.0
0
LINE
8
GRAVIROVANI
10
171.8000
20
112.0000
30
0.0
11
173.0000
21
112.0000
31
0.0
0
LINE
8
GRAVIROVANI
10
173.0000
20
112.0000
30
0.0
11
173.0000
21
111.0000
31
0.0
0
LINE
8
GRAVIROVANI
10
173.5000
20
113.0000
30
0.0
11
174.7000
21
113.0000
31
0.0
0
LINE
8
GRAVIROVANI
10
173.5000
20
113.0000
30
0.0
11
173.5000
21
112.0000
31
0.0
0
LINE
8
GRAVIROVANI
10
173.5000
20
112.0000
30
0.0
11
174.7000
21
112.0000
31
0.0
0
LINE
8
GRAVIROVANI
10
174.7000
20
112.0000
30
0.0
11
174.7000
21
111.0000
31
0.0
0
LINE
8
GRAVIROVANI
10
173.5000
20
111.0000
30
0.0
11
174.7000
21
111.0000
31
0.0
0
LINE
8
GRAVIROVANI
10
39.0000
20
67.0000
30
0.0
11
171.2000
21
67.0000
31
0.0
0
LINE
8
GRAVIROVANI
10
175.8000
20
67.0000
30
0.0
11
181.8000
21
67.0000
31
0.0
0
LINE
8
GRAVIROVANI
10
171.8000
20
68.0000
30
0.0
11
171.8000
21
67.0000
31
0.0
0
LINE
8
GRAVIROVANI
10
173.0000
20
68.0000
30
0.0
11
173.0000
21
67.0000
31
0.0
0
LINE
8
GRAVIROVANI
10
171.8000
20
67.0000
30
0.0
11
173.0000
21
67.0000
31
0.0
0
LINE
8
GRAVIROVANI
10
173.0000
20
67.0000
30
0.0
11
173.0000
21
66.0000
31
0.0
0
LINE
8
GRAVIROVANI
10
173.5000
20
68.0000
30
0.0
11
174.7000
21
68.0000
31
0.0
0
LINE
8
GRAVIROVANI
10
173.5000
20
68.0000
30
0.0
11
173.5000
21
67.0000
31
0.0
0
LINE
8
GRAVIROVANI
10
173.5000
20
67.0000
30
0.0
11
174.7000
21
67.0000
31
0.0
0
LINE
8
GRAVIROVANI
10
174.7000
20
67.0000
30
0.0
11
174.7000
21
66.0000
31
0.0
0
LINE
8
GRAVIROVANI
10
173.5000
20
66.0000
30
0.0
11
174.7000
21
66.0000
31
0.0
0
LINE
8
GRAVIROVANI
10
39.0000
20
55.0000
30
0.0
11
189.4000
21
55.0000
31
0.0
0
LINE
8
GRAVIROVANI
10
194.0000
20
55.0000
30
0.0
11
200.0000
21
55.0000
31
0.0
0
LINE
8
GRAVIROVANI
10
190.0000
20
56.0000
30
0.0
11
190.0000
21
55.0000
31
0.0
0
LINE
8
GRAVIROVANI
10
191.2000
20
56.0000
30
0.0
11
191.2000
21
55.0000
31
0.0
0
LINE
8
GRAVIROVANI
10
190.0000
20
55.0000
30
0.0
11
191.2000
21
55.0000
31
0.0
0
LINE
8
GRAVIROVANI
10
191.2000
20
55.0000
30
0.0
11
191.2000
21
54.0000
31
0.0
0
LINE
8
GRAVIROVANI
10
191.7000
20
56.0000
30
0.0
11
192.9000
21
56.0000
31
0.0
0
LINE
8
GRAVIROVANI
10
191.7000
20
56.0000
30
0.0
11
191.7000
21
55.0000
31
0.0
0
LINE
8
GRAVIROVANI
10
191.7000
20
55.0000
30
0.0
11
192.9000
21
55.0000
31
0.0
0
LINE
8
GRAVIROVANI
10
192.9000
20
55.0000
30
0.0
11
192.9000
21
54.0000
31
0.0
0
LINE
8
GRAVIROVANI
10
191.7000
20
54.0000
30
0.0
11
192.9000
21
54.0000
31
0.0
0
LINE
8
GRAVIROVANI
10
39.0000
20
10.0000
30
0.0
11
189.4000
21
10.0000
31
0.0
0
LINE
8
GRAVIROVANI
10
194.0000
20
10.0000
30
0.0
11
200.0000
21
10.0000
31
0.0
0
LINE
8
GRAVIROVANI
10
190.0000
20
11.0000
30
0.0
11
190.0000
21
10.0000
31
0.0
0
LINE
8
GRAVIROVANI
10
191.2000
20
11.0000
30
0.0
11
191.2000
21
10.0000
31
0.0
0
LINE
8
GRAVIROVANI
10
190.0000
20
10.0000
30
0.0
11
191.2000
21
10.0000
31
0.0
0
LINE
8
GRAVIROVANI
10
191.2000
20
10.0000
30
0.0
11
191.2000
21
9.0000
31
0.0
0
LINE
8
GRAVIROVANI
10
191.7000
20
11.0000
30
0.0
11
192.9000
21
11.0000
31
0.0
0
LINE
8
GRAVIROVANI
10
191.7000
20
11.0000
30
0.0
11
191.7000
21
10.0000
31
0.0
0
LINE
8
GRAVIROVANI
10
191.7000
20
10.0000
30
0.0
11
192.9000
21
10.0000
31
0.0
0
LINE
8
GRAVIROVANI
10
192.9000
20
10.0000
30
0.0
11
192.9000
21
9.0000
31
0.0
0
LINE
8
GRAVIROVANI
10
191.7000
20
9.0000
30
0.0
11
192.9000
21
9.0000
31
0.0
0
LINE
8
GRAVIROVANI
10
39.0000
20
166.5000
30
0.0
11
129.8870
21
166.5000
31
0.0
0
LINE
8
GRAVIROVANI
10
134.4870
20
166.5000
30
0.0
11
145.2870
21
166.5000
31
0.0
0
LINE
8
GRAVIROVANI
10
130.4870
20
167.5000
30
0.0
11
130.4870
21
166.5000
31
0.0
0
LINE
8
GRAVIROVANI
10
131.6870
20
167.5000
30
0.0
11
131.6870
21
166.5000
31
0.0
0
LINE
8
GRAVIROVANI
10
130.4870
20
166.5000
30
0.0
11
131.6870
21
166.5000
31
0.0
0
LINE
8
GRAVIROVANI
10
131.6870
20
166.5000
30
0.0
11
131.6870
21
165.5000
31
0.0
0
LINE
8
GRAVIROVANI
10
132.1870
20
167.5000
30
0.0
11
133.3870
21
167.5000
31
0.0
0
LINE
8
GRAVIROVANI
10
132.1870
20
167.5000
30
0.0
11
132.1870
21
166.5000
31
0.0
0
LINE
8
GRAVIROVANI
10
133.3870
20
167.5000
30
0.0
11
133.3870
21
166.5000
31
0.0
0
LINE
8
GRAVIROVANI
10
132.1870
20
166.5000
30
0.0
11
132.1870
21
165.5000
31
0.0
0
LINE
8
GRAVIROVANI
10
133.3870
20
166.5000
30
0.0
11
133.3870
21
165.5000
31
0.0
0
LINE
8
GRAVIROVANI
10
132.1870
20
165.5000
30
0.0
11
133.3870
21
165.5000
31
0.0
0
LINE
8
GRAVIROVANI
10
39.0000
20
126.5000
30
0.0
11
129.8870
21
126.5000
31
0.0
0
LINE
8
GRAVIROVANI
10
134.4870
20
126.5000
30
0.0
11
145.2870
21
126.5000
31
0.0
0
LINE
8
GRAVIROVANI
10
130.4870
20
127.5000
30
0.0
11
130.4870
21
126.5000
31
0.0
0
LINE
8
GRAVIROVANI
10
131.6870
20
127.5000
30
0.0
11
131.6870
21
126.5000
31
0.0
0
LINE
8
GRAVIROVANI
10
130.4870
20
126.5000
30
0.0
11
131.6870
21
126.5000
31
0.0
0
LINE
8
GRAVIROVANI
10
131.6870
20
126.5000
30
0.0
11
131.6870
21
125.5000
31
0.0
0
LINE
8
GRAVIROVANI
10
132.1870
20
127.5000
30
0.0
11
133.3870
21
127.5000
31
0.0
0
LINE
8
GRAVIROVANI
10
132.1870
20
127.5000
30
0.0
11
132.1870
21
126.5000
31
0.0
0
LINE
8
GRAVIROVANI
10
133.3870
20
127.5000
30
0.0
11
133.3870
21
126.5000
31
0.0
0
LINE
8
GRAVIROVANI
10
132.1870
20
126.5000
30
0.0
11
132.1870
21
125.5000
31
0.0
0
LINE
8
GRAVIROVANI
10
133.3870
20
126.5000
30
0.0
11
133.3870
21
125.5000
31
0.0
0
LINE
8
GRAVIROVANI
10
132.1870
20
125.5000
30
0.0
11
133.3870
21
125.5000
31
0.0
0
LINE
8
GRAVIROVANI
10
39.0000
20
109.5000
30
0.0
11
166.4000
21
109.5000
31
0.0
0
LINE
8
GRAVIROVANI
10
171.0000
20
109.5000
30
0.0
11
181.8000
21
109.5000
31
0.0
0
LINE
8
GRAVIROVANI
10
167.0000
20
110.5000
30
0.0
11
167.0000
21
109.5000
31
0.0
0
LINE
8
GRAVIROVANI
10
168.2000
20
110.5000
30
0.0
11
168.2000
21
109.5000
31
0.0
0
LINE
8
GRAVIROVANI
10
167.0000
20
109.5000
30
0.0
11
168.2000
21
109.5000
31
0.0
0
LINE
8
GRAVIROVANI
10
168.2000
20
109.5000
30
0.0
11
168.2000
21
108.5000
31
0.0
0
LINE
8
GRAVIROVANI
10
168.7000
20
110.5000
30
0.0
11
169.9000
21
110.5000
31
0.0
0
LINE
8
GRAVIROVANI
10
168.7000
20
110.5000
30
0.0
11
168.7000
21
109.5000
31
0.0
0
LINE
8
GRAVIROVANI
10
169.9000
20
110.5000
30
0.0
11
169.9000
21
109.5000
31
0.0
0
LINE
8
GRAVIROVANI
10
168.7000
20
109.5000
30
0.0
11
168.7000
21
108.5000
31
0.0
0
LINE
8
GRAVIROVANI
10
169.9000
20
109.5000
30
0.0
11
169.9000
21
108.5000
31
0.0
0
LINE
8
GRAVIROVANI
10
168.7000
20
108.5000
30
0.0
11
169.9000
21
108.5000
31
0.0
0
LINE
8
GRAVIROVANI
10
39.0000
20
69.5000
30
0.0
11
166.4000
21
69.5000
31
0.0
0
LINE
8
GRAVIROVANI
10
171.0000
20
69.5000
30
0.0
11
181.8000
21
69.5000
31
0.0
0
LINE
8
GRAVIROVANI
10
167.0000
20
70.5000
30
0.0
11
167.0000
21
69.5000
31
0.0
0
LINE
8
GRAVIROVANI
10
168.2000
20
70.5000
30
0.0
11
168.2000
21
69.5000
31
0.0
0
LINE
8
GRAVIROVANI
10
167.0000
20
69.5000
30
0.0
11
168.2000
21
69.5000
31
0.0
0
LINE
8
GRAVIROVANI
10
168.2000
20
69.5000
30
0.0
11
168.2000
21
68.5000
31
0.0
0
LINE
8
GRAVIROVANI
10
168.7000
20
70.5000
30
0.0
11
169.9000
21
70.5000
31
0.0
0
LINE
8
GRAVIROVANI
10
168.7000
20
70.5000
30
0.0
11
168.7000
21
69.5000
31
0.0
0
LINE
8
GRAVIROVANI
10
169.9000
20
70.5000
30
0.0
11
169.9000
21
69.5000
31
0.0
0
LINE
8
GRAVIROVANI
10
168.7000
20
69.5000
30
0.0
11
168.7000
21
68.5000
31
0.0
0
LINE
8
GRAVIROVANI
10
169.9000
20
69.5000
30
0.0
11
169.9000
21
68.5000
31
0.0
0
LINE
8
GRAVIROVANI
10
168.7000
20
68.5000
30
0.0
11
169.9000
21
68.5000
31
0.0
0
LINE
8
GRAVIROVANI
10
39.0000
20
52.5000
30
0.0
11
184.6000
21
52.5000
31
0.0
0
LINE
8
GRAVIROVANI
10
189.2000
20
52.5000
30
0.0
11
200.0000
21
52.5000
31
0.0
0
LINE
8
GRAVIROVANI
10
185.2000
20
53.5000
30
0.0
11
185.2000
21
52.5000
31
0.0
0
LINE
8
GRAVIROVANI
10
186.4000
20
53.5000
30
0.0
11
186.4000
21
52.5000
31
0.0
0
LINE
8
GRAVIROVANI
10
185.2000
20
52.5000
30
0.0
11
186.4000
21
52.5000
31
0.0
0
LINE
8
GRAVIROVANI
10
186.4000
20
52.5000
30
0.0
11
186.4000
21
51.5000
31
0.0
0
LINE
8
GRAVIROVANI
10
186.9000
20
53.5000
30
0.0
11
188.1000
21
53.5000
31
0.0
0
LINE
8
GRAVIROVANI
10
186.9000
20
53.5000
30
0.0
11
186.9000
21
52.5000
31
0.0
0
LINE
8
GRAVIROVANI
10
188.1000
20
53.5000
30
0.0
11
188.1000
21
52.5000
31
0.0
0
LINE
8
GRAVIROVANI
10
186.9000
20
52.5000
30
0.0
11
186.9000
21
51.5000
31
0.0
0
LINE
8
GRAVIROVANI
10
188.1000
20
52.5000
30
0.0
11
188.1000
21
51.5000
31
0.0
0
LINE
8
GRAVIROVANI
10
186.9000
20
51.5000
30
0.0
11
188.1000
21
51.5000
31
0.0
0
LINE
8
GRAVIROVANI
10
39.0000
20
12.5000
30
0.0
11
184.6000
21
12.5000
31
0.0
0
LINE
8
GRAVIROVANI
10
189.2000
20
12.5000
30
0.0
11
200.0000
21
12.5000
31
0.0
0
LINE
8
GRAVIROVANI
10
185.2000
20
13.5000
30
0.0
11
185.2000
21
12.5000
31
0.0
0
LINE
8
GRAVIROVANI
10
186.4000
20
13.5000
30
0.0
11
186.4000
21
12.5000
31
0.0
0
LINE
8
GRAVIROVANI
10
185.2000
20
12.5000
30
0.0
11
186.4000
21
12.5000
31
0.0
0
LINE
8
GRAVIROVANI
10
186.4000
20
12.5000
30
0.0
11
186.4000
21
11.5000
31
0.0
0
LINE
8
GRAVIROVANI
10
186.9000
20
13.5000
30
0.0
11
188.1000
21
13.5000
31
0.0
0
LINE
8
GRAVIROVANI
10
186.9000
20
13.5000
30
0.0
11
186.9000
21
12.5000
31
0.0
0
LINE
8
GRAVIROVANI
10
188.1000
20
13.5000
30
0.0
11
188.1000
21
12.5000
31
0.0
0
LINE
8
GRAVIROVANI
10
186.9000
20
12.5000
30
0.0
11
186.9000
21
11.5000
31
0.0
0
LINE
8
GRAVIROVANI
10
188.1000
20
12.5000
30
0.0
11
188.1000
21
11.5000
31
0.0
0
LINE
8
GRAVIROVANI
10
186.9000
20
11.5000
30
0.0
11
188.1000
21
11.5000
31
0.0
0
LINE
8
GRAVIROVANI
10
39.0000
20
164.0000
30
0.0
11
125.0870
21
164.0000
31
0.0
0
LINE
8
GRAVIROVANI
10
129.6870
20
164.0000
30
0.0
11
145.2870
21
164.0000
31
0.0
0
LINE
8
GRAVIROVANI
10
125.6870
20
165.0000
30
0.0
11
126.8870
21
165.0000
31
0.0
0
LINE
8
GRAVIROVANI
10
126.8870
20
165.0000
30
0.0
11
126.8870
21
164.0000
31
0.0
0
LINE
8
GRAVIROVANI
10
125.6870
20
164.0000
30
0.0
11
126.8870
21
164.0000
31
0.0
0
LINE
8
GRAVIROVANI
10
126.8870
20
164.0000
30
0.0
11
126.8870
21
163.0000
31
0.0
0
LINE
8
GRAVIROVANI
10
125.6870
20
163.0000
30
0.0
11
126.8870
21
163.0000
31
0.0
0
LINE
8
GRAVIROVANI
10
127.3870
20
165.0000
30
0.0
11
128.5870
21
165.0000
31
0.0
0
LINE
8
GRAVIROVANI
10
127.3870
20
165.0000
30
0.0
11
127.3870
21
164.0000
31
0.0
0
LINE
8
GRAVIROVANI
10
127.3870
20
164.0000
30
0.0
11
128.5870
21
164.0000
31
0.0
0
LINE
8
GRAVIROVANI
10
128.5870
20
164.0000
30
0.0
11
128.5870
21
163.0000
31
0.0
0
LINE
8
GRAVIROVANI
10
127.3870
20
163.0000
30
0.0
11
128.5870
21
163.0000
31
0.0
0
LINE
8
GRAVIROVANI
10
39.0000
20
129.0000
30
0.0
11
125.0870
21
129.0000
31
0.0
0
LINE
8
GRAVIROVANI
10
129.6870
20
129.0000
30
0.0
11
145.2870
21
129.0000
31
0.0
0
LINE
8
GRAVIROVANI
10
125.6870
20
130.0000
30
0.0
11
126.8870
21
130.0000
31
0.0
0
LINE
8
GRAVIROVANI
10
126.8870
20
130.0000
30
0.0
11
126.8870
21
129.0000
31
0.0
0
LINE
8
GRAVIROVANI
10
125.6870
20
129.0000
30
0.0
11
126.8870
21
129.0000
31
0.0
0
LINE
8
GRAVIROVANI
10
126.8870
20
129.0000
30
0.0
11
126.8870
21
128.0000
31
0.0
0
LINE
8
GRAVIROVANI
10
125.6870
20
128.0000
30
0.0
11
126.8870
21
128.0000
31
0.0
0
LINE
8
GRAVIROVANI
10
127.3870
20
130.0000
30
0.0
11
128.5870
21
130.0000
31
0.0
0
LINE
8
GRAVIROVANI
10
127.3870
20
130.0000
30
0.0
11
127.3870
21
129.0000
31
0.0
0
LINE
8
GRAVIROVANI
10
127.3870
20
129.0000
30
0.0
11
128.5870
21
129.0000
31
0.0
0
LINE
8
GRAVIROVANI
10
128.5870
20
129.0000
30
0.0
11
128.5870
21
128.0000
31
0.0
0
LINE
8
GRAVIROVANI
10
127.3870
20
128.0000
30
0.0
11
128.5870
21
128.0000
31
0.0
0
LINE
8
GRAVIROVANI
10
39.0000
20
107.0000
30
0.0
11
161.6000
21
107.0000
31
0.0
0
LINE
8
GRAVIROVANI
10
166.2000
20
107.0000
30
0.0
11
181.8000
21
107.0000
31
0.0
0
LINE
8
GRAVIROVANI
10
162.2000
20
108.0000
30
0.0
11
163.4000
21
108.0000
31
0.0
0
LINE
8
GRAVIROVANI
10
163.4000
20
108.0000
30
0.0
11
163.4000
21
107.0000
31
0.0
0
LINE
8
GRAVIROVANI
10
162.2000
20
107.0000
30
0.0
11
163.4000
21
107.0000
31
0.0
0
LINE
8
GRAVIROVANI
10
163.4000
20
107.0000
30
0.0
11
163.4000
21
106.0000
31
0.0
0
LINE
8
GRAVIROVANI
10
162.2000
20
106.0000
30
0.0
11
163.4000
21
106.0000
31
0.0
0
LINE
8
GRAVIROVANI
10
163.9000
20
108.0000
30
0.0
11
165.1000
21
108.0000
31
0.0
0
LINE
8
GRAVIROVANI
10
163.9000
20
108.0000
30
0.0
11
163.9000
21
107.0000
31
0.0
0
LINE
8
GRAVIROVANI
10
163.9000
20
107.0000
30
0.0
11
165.1000
21
107.0000
31
0.0
0
LINE
8
GRAVIROVANI
10
165.1000
20
107.0000
30
0.0
11
165.1000
21
106.0000
31
0.0
0
LINE
8
GRAVIROVANI
10
163.9000
20
106.0000
30
0.0
11
165.1000
21
106.0000
31
0.0
0
LINE
8
GRAVIROVANI
10
39.0000
20
72.0000
30
0.0
11
161.6000
21
72.0000
31
0.0
0
LINE
8
GRAVIROVANI
10
166.2000
20
72.0000
30
0.0
11
181.8000
21
72.0000
31
0.0
0
LINE
8
GRAVIROVANI
10
162.2000
20
73.0000
30
0.0
11
163.4000
21
73.0000
31
0.0
0
LINE
8
GRAVIROVANI
10
163.4000
20
73.0000
30
0.0
11
163.4000
21
72.0000
31
0.0
0
LINE
8
GRAVIROVANI
10
162.2000
20
72.0000
30
0.0
11
163.4000
21
72.0000
31
0.0
0
LINE
8
GRAVIROVANI
10
163.4000
20
72.0000
30
0.0
11
163.4000
21
71.0000
31
0.0
0
LINE
8
GRAVIROVANI
10
162.2000
20
71.0000
30
0.0
11
163.4000
21
71.0000
31
0.0
0
LINE
8
GRAVIROVANI
10
163.9000
20
73.0000
30
0.0
11
165.1000
21
73.0000
31
0.0
0
LINE
8
GRAVIROVANI
10
163.9000
20
73.0000
30
0.0
11
163.9000
21
72.0000
31
0.0
0
LINE
8
GRAVIROVANI
10
163.9000
20
72.0000
30
0.0
11
165.1000
21
72.0000
31
0.0
0
LINE
8
GRAVIROVANI
10
165.1000
20
72.0000
30
0.0
11
165.1000
21
71.0000
31
0.0
0
LINE
8
GRAVIROVANI
10
163.9000
20
71.0000
30
0.0
11
165.1000
21
71.0000
31
0.0
0
LINE
8
GRAVIROVANI
10
39.0000
20
50.0000
30
0.0
11
179.8000
21
50.0000
31
0.0
0
LINE
8
GRAVIROVANI
10
184.4000
20
50.0000
30
0.0
11
200.0000
21
50.0000
31
0.0
0
LINE
8
GRAVIROVANI
10
180.4000
20
51.0000
30
0.0
11
181.6000
21
51.0000
31
0.0
0
LINE
8
GRAVIROVANI
10
181.6000
20
51.0000
30
0.0
11
181.6000
21
50.0000
31
0.0
0
LINE
8
GRAVIROVANI
10
180.4000
20
50.0000
30
0.0
11
181.6000
21
50.0000
31
0.0
0
LINE
8
GRAVIROVANI
10
181.6000
20
50.0000
30
0.0
11
181.6000
21
49.0000
31
0.0
0
LINE
8
GRAVIROVANI
10
180.4000
20
49.0000
30
0.0
11
181.6000
21
49.0000
31
0.0
0
LINE
8
GRAVIROVANI
10
182.1000
20
51.0000
30
0.0
11
183.3000
21
51.0000
31
0.0
0
LINE
8
GRAVIROVANI
10
182.1000
20
51.0000
30
0.0
11
182.1000
21
50.0000
31
0.0
0
LINE
8
GRAVIROVANI
10
182.1000
20
50.0000
30
0.0
11
183.3000
21
50.0000
31
0.0
0
LINE
8
GRAVIROVANI
10
183.3000
20
50.0000
30
0.0
11
183.3000
21
49.0000
31
0.0
0
LINE
8
GRAVIROVANI
10
182.1000
20
49.0000
30
0.0
11
183.3000
21
49.0000
31
0.0
0
LINE
8
GRAVIROVANI
10
39.0000
20
15.0000
30
0.0
11
179.8000
21
15.0000
31
0.0
0
LINE
8
GRAVIROVANI
10
184.4000
20
15.0000
30
0.0
11
200.0000
21
15.0000
31
0.0
0
LINE
8
GRAVIROVANI
10
180.4000
20
16.0000
30
0.0
11
181.6000
21
16.0000
31
0.0
0
LINE
8
GRAVIROVANI
10
181.6000
20
16.0000
30
0.0
11
181.6000
21
15.0000
31
0.0
0
LINE
8
GRAVIROVANI
10
180.4000
20
15.0000
30
0.0
11
181.6000
21
15.0000
31
0.0
0
LINE
8
GRAVIROVANI
10
181.6000
20
15.0000
30
0.0
11
181.6000
21
14.0000
31
0.0
0
LINE
8
GRAVIROVANI
10
180.4000
20
14.0000
30
0.0
11
181.6000
21
14.0000
31
0.0
0
LINE
8
GRAVIROVANI
10
182.1000
20
16.0000
30
0.0
11
183.3000
21
16.0000
31
0.0
0
LINE
8
GRAVIROVANI
10
182.1000
20
16.0000
30
0.0
11
182.1000
21
15.0000
31
0.0
0
LINE
8
GRAVIROVANI
10
182.1000
20
15.0000
30
0.0
11
183.3000
21
15.0000
31
0.0
0
LINE
8
GRAVIROVANI
10
183.3000
20
15.0000
30
0.0
11
183.3000
21
14.0000
31
0.0
0
LINE
8
GRAVIROVANI
10
182.1000
20
14.0000
30
0.0
11
183.3000
21
14.0000
31
0.0
0
LINE
8
GRAVIROVANI
10
39.0000
20
161.5000
30
0.0
11
120.2870
21
161.5000
31
0.0
0
LINE
8
GRAVIROVANI
10
124.8870
20
161.5000
30
0.0
11
145.2870
21
161.5000
31
0.0
0
LINE
8
GRAVIROVANI
10
120.8870
20
162.5000
30
0.0
11
122.0870
21
162.5000
31
0.0
0
LINE
8
GRAVIROVANI
10
122.0870
20
162.5000
30
0.0
11
122.0870
21
161.5000
31
0.0
0
LINE
8
GRAVIROVANI
10
120.8870
20
161.5000
30
0.0
11
122.0870
21
161.5000
31
0.0
0
LINE
8
GRAVIROVANI
10
122.0870
20
161.5000
30
0.0
11
122.0870
21
160.5000
31
0.0
0
LINE
8
GRAVIROVANI
10
120.8870
20
160.5000
30
0.0
11
122.0870
21
160.5000
31
0.0
0
LINE
8
GRAVIROVANI
10
122.5870
20
162.5000
30
0.0
11
123.7870
21
162.5000
31
0.0
0
LINE
8
GRAVIROVANI
10
122.5870
20
162.5000
30
0.0
11
122.5870
21
161.5000
31
0.0
0
LINE
8
GRAVIROVANI
10
123.7870
20
162.5000
30
0.0
11
123.7870
21
161.5000
31
0.0
0
LINE
8
GRAVIROVANI
10
122.5870
20
161.5000
30
0.0
11
122.5870
21
160.5000
31
0.0
0
LINE
8
GRAVIROVANI
10
123.7870
20
161.5000
30
0.0
11
123.7870
21
160.5000
31
0.0
0
LINE
8
GRAVIROVANI
10
122.5870
20
160.5000
30
0.0
11
123.7870
21
160.5000
31
0.0
0
LINE
8
GRAVIROVANI
10
39.0000
20
131.5000
30
0.0
11
120.2870
21
131.5000
31
0.0
0
LINE
8
GRAVIROVANI
10
124.8870
20
131.5000
30
0.0
11
145.2870
21
131.5000
31
0.0
0
LINE
8
GRAVIROVANI
10
120.8870
20
132.5000
30
0.0
11
122.0870
21
132.5000
31
0.0
0
LINE
8
GRAVIROVANI
10
122.0870
20
132.5000
30
0.0
11
122.0870
21
131.5000
31
0.0
0
LINE
8
GRAVIROVANI
10
120.8870
20
131.5000
30
0.0
11
122.0870
21
131.5000
31
0.0
0
LINE
8
GRAVIROVANI
10
122.0870
20
131.5000
30
0.0
11
122.0870
21
130.5000
31
0.0
0
LINE
8
GRAVIROVANI
10
120.8870
20
130.5000
30
0.0
11
122.0870
21
130.5000
31
0.0
0
LINE
8
GRAVIROVANI
10
122.5870
20
132.5000
30
0.0
11
123.7870
21
132.5000
31
0.0
0
LINE
8
GRAVIROVANI
10
122.5870
20
132.5000
30
0.0
11
122.5870
21
131.5000
31
0.0
0
LINE
8
GRAVIROVANI
10
123.7870
20
132.5000
30
0.0
11
123.7870
21
131.5000
31
0.0
0
LINE
8
GRAVIROVANI
10
122.5870
20
131.5000
30
0.0
11
122.5870
21
130.5000
31
0.0
0
LINE
8
GRAVIROVANI
10
123.7870
20
131.5000
30
0.0
11
123.7870
21
130.5000
31
0.0
0
LINE
8
GRAVIROVANI
10
122.5870
20
130.5000
30
0.0
11
123.7870
21
130.5000
31
0.0
0
LINE
8
GRAVIROVANI
10
39.0000
20
104.5000
30
0.0
11
156.8000
21
104.5000
31
0.0
0
LINE
8
GRAVIROVANI
10
161.4000
20
104.5000
30
0.0
11
181.8000
21
104.5000
31
0.0
0
LINE
8
GRAVIROVANI
10
157.4000
20
105.5000
30
0.0
11
158.6000
21
105.5000
31
0.0
0
LINE
8
GRAVIROVANI
10
158.6000
20
105.5000
30
0.0
11
158.6000
21
104.5000
31
0.0
0
LINE
8
GRAVIROVANI
10
157.4000
20
104.5000
30
0.0
11
158.6000
21
104.5000
31
0.0
0
LINE
8
GRAVIROVANI
10
158.6000
20
104.5000
30
0.0
11
158.6000
21
103.5000
31
0.0
0
LINE
8
GRAVIROVANI
10
157.4000
20
103.5000
30
0.0
11
158.6000
21
103.5000
31
0.0
0
LINE
8
GRAVIROVANI
10
159.1000
20
105.5000
30
0.0
11
160.3000
21
105.5000
31
0.0
0
LINE
8
GRAVIROVANI
10
159.1000
20
105.5000
30
0.0
11
159.1000
21
104.5000
31
0.0
0
LINE
8
GRAVIROVANI
10
160.3000
20
105.5000
30
0.0
11
160.3000
21
104.5000
31
0.0
0
LINE
8
GRAVIROVANI
10
159.1000
20
104.5000
30
0.0
11
159.1000
21
103.5000
31
0.0
0
LINE
8
GRAVIROVANI
10
160.3000
20
104.5000
30
0.0
11
160.3000
21
103.5000
31
0.0
0
LINE
8
GRAVIROVANI
10
159.1000
20
103.5000
30
0.0
11
160.3000
21
103.5000
31
0.0
0
LINE
8
GRAVIROVANI
10
39.0000
20
74.5000
30
0.0
11
156.8000
21
74.5000
31
0.0
0
LINE
8
GRAVIROVANI
10
161.4000
20
74.5000
30
0.0
11
181.8000
21
74.5000
31
0.0
0
LINE
8
GRAVIROVANI
10
157.4000
20
75.5000
30
0.0
11
158.6000
21
75.5000
31
0.0
0
LINE
8
GRAVIROVANI
10
158.6000
20
75.5000
30
0.0
11
158.6000
21
74.5000
31
0.0
0
LINE
8
GRAVIROVANI
10
157.4000
20
74.5000
30
0.0
11
158.6000
21
74.5000
31
0.0
0
LINE
8
GRAVIROVANI
10
158.6000
20
74.5000
30
0.0
11
158.6000
21
73.5000
31
0.0
0
LINE
8
GRAVIROVANI
10
157.4000
20
73.5000
30
0.0
11
158.6000
21
73.5000
31
0.0
0
LINE
8
GRAVIROVANI
10
159.1000
20
75.5000
30
0.0
11
160.3000
21
75.5000
31
0.0
0
LINE
8
GRAVIROVANI
10
159.1000
20
75.5000
30
0.0
11
159.1000
21
74.5000
31
0.0
0
LINE
8
GRAVIROVANI
10
160.3000
20
75.5000
30
0.0
11
160.3000
21
74.5000
31
0.0
0
LINE
8
GRAVIROVANI
10
159.1000
20
74.5000
30
0.0
11
159.1000
21
73.5000
31
0.0
0
LINE
8
GRAVIROVANI
10
160.3000
20
74.5000
30
0.0
11
160.3000
21
73.5000
31
0.0
0
LINE
8
GRAVIROVANI
10
159.1000
20
73.5000
30
0.0
11
160.3000
21
73.5000
31
0.0
0
LINE
8
GRAVIROVANI
10
39.0000
20
47.5000
30
0.0
11
175.0000
21
47.5000
31
0.0
0
LINE
8
GRAVIROVANI
10
179.6000
20
47.5000
30
0.0
11
200.0000
21
47.5000
31
0.0
0
LINE
8
GRAVIROVANI
10
175.6000
20
48.5000
30
0.0
11
176.8000
21
48.5000
31
0.0
0
LINE
8
GRAVIROVANI
10
176.8000
20
48.5000
30
0.0
11
176.8000
21
47.5000
31
0.0
0
LINE
8
GRAVIROVANI
10
175.6000
20
47.5000
30
0.0
11
176.8000
21
47.5000
31
0.0
0
LINE
8
GRAVIROVANI
10
176.8000
20
47.5000
30
0.0
11
176.8000
21
46.5000
31
0.0
0
LINE
8
GRAVIROVANI
10
175.6000
20
46.5000
30
0.0
11
176.8000
21
46.5000
31
0.0
0
LINE
8
GRAVIROVANI
10
177.3000
20
48.5000
30
0.0
11
178.5000
21
48.5000
31
0.0
0
LINE
8
GRAVIROVANI
10
177.3000
20
48.5000
30
0.0
11
177.3000
21
47.5000
31
0.0
0
LINE
8
GRAVIROVANI
10
178.5000
20
48.5000
30
0.0
11
178.5000
21
47.5000
31
0.0
0
LINE
8
GRAVIROVANI
10
177.3000
20
47.5000
30
0.0
11
177.3000
21
46.5000
31
0.0
0
LINE
8
GRAVIROVANI
10
178.5000
20
47.5000
30
0.0
11
178.5000
21
46.5000
31
0.0
0
LINE
8
GRAVIROVANI
10
177.3000
20
46.5000
30
0.0
11
178.5000
21
46.5000
31
0.0
0
LINE
8
GRAVIROVANI
10
39.0000
20
17.5000
30
0.0
11
175.0000
21
17.5000
31
0.0
0
LINE
8
GRAVIROVANI
10
179.6000
20
17.5000
30
0.0
11
200.0000
21
17.5000
31
0.0
0
LINE
8
GRAVIROVANI
10
175.6000
20
18.5000
30
0.0
11
176.8000
21
18.5000
31
0.0
0
LINE
8
GRAVIROVANI
10
176.8000
20
18.5000
30
0.0
11
176.8000
21
17.5000
31
0.0
0
LINE
8
GRAVIROVANI
10
175.6000
20
17.5000
30
0.0
11
176.8000
21
17.5000
31
0.0
0
LINE
8
GRAVIROVANI
10
176.8000
20
17.5000
30
0.0
11
176.8000
21
16.5000
31
0.0
0
LINE
8
GRAVIROVANI
10
175.6000
20
16.5000
30
0.0
11
176.8000
21
16.5000
31
0.0
0
LINE
8
GRAVIROVANI
10
177.3000
20
18.5000
30
0.0
11
178.5000
21
18.5000
31
0.0
0
LINE
8
GRAVIROVANI
10
177.3000
20
18.5000
30
0.0
11
177.3000
21
17.5000
31
0.0
0
LINE
8
GRAVIROVANI
10
178.5000
20
18.5000
30
0.0
11
178.5000
21
17.5000
31
0.0
0
LINE
8
GRAVIROVANI
10
177.3000
20
17.5000
30
0.0
11
177.3000
21
16.5000
31
0.0
0
LINE
8
GRAVIROVANI
10
178.5000
20
17.5000
30
0.0
11
178.5000
21
16.5000
31
0.0
0
LINE
8
GRAVIROVANI
10
177.3000
20
16.5000
30
0.0
11
178.5000
21
16.5000
31
0.0
0
LINE
8
GRAVIROVANI
10
57.0000
20
158.5000
30
0.0
11
63.0000
21
158.5000
31
0.0
0
LINE
8
GRAVIROVANI
10
60.0000
20
160.5000
30
0.0
11
60.0000
21
156.5000
31
0.0
0
LINE
8
GRAVIROVANI
10
57.0000
20
134.5000
30
0.0
11
63.0000
21
134.5000
31
0.0
0
LINE
8
GRAVIROVANI
10
60.0000
20
136.5000
30
0.0
11
60.0000
21
132.5000
31
0.0
0
LINE
8
GRAVIROVANI
10
57.0000
20
101.5000
30
0.0
11
63.0000
21
101.5000
31
0.0
0
LINE
8
GRAVIROVANI
10
60.0000
20
103.5000
30
0.0
11
60.0000
21
99.5000
31
0.0
0
LINE
8
GRAVIROVANI
10
57.0000
20
77.5000
30
0.0
11
63.0000
21
77.5000
31
0.0
0
LINE
8
GRAVIROVANI
10
60.0000
20
79.5000
30
0.0
11
60.0000
21
75.5000
31
0.0
0
LINE
8
GRAVIROVANI
10
5.8000
20
148.0000
30
0.0
11
5.8000
21
146.5000
31
0.0
0
LINE
8
GRAVIROVANI
10
5.8000
20
146.5000
30
0.0
11
5.8000
21
145.0000
31
0.0
0
LINE
8
GRAVIROVANI
10
4.0000
20
91.0000
30
0.0
11
5.8000
21
91.0000
31
0.0
0
LINE
8
GRAVIROVANI
10
5.8000
20
91.0000
30
0.0
11
5.8000
21
89.5000
31
0.0
0
LINE
8
GRAVIROVANI
10
4.0000
20
89.5000
30
0.0
11
5.8000
21
89.5000
31
0.0
0
LINE
8
GRAVIROVANI
10
4.0000
20
89.5000
30
0.0
11
4.0000
21
88.0000
31
0.0
0
LINE
8
GRAVIROVANI
10
4.0000
20
88.0000
30
0.0
11
5.8000
21
88.0000
31
0.0
0
LINE
8
GRAVIROVANI
10
4.0000
20
34.0000
30
0.0
11
5.8000
21
34.0000
31
0.0
0
LINE
8
GRAVIROVANI
10
5.8000
20
34.0000
30
0.0
11
5.8000
21
32.5000
31
0.0
0
LINE
8
GRAVIROVANI
10
4.0000
20
32.5000
30
0.0
11
5.8000
21
32.5000
31
0.0
0
LINE
8
GRAVIROVANI
10
5.8000
20
32.5000
30
0.0
11
5.8000
21
31.0000
31
0.0
0
LINE
8
GRAVIROVANI
10
4.0000
20
31.0000
30
0.0
11
5.8000
21
31.0000
31
0.0
0
LINE
8
GRAVIROVANI
10
90.0000
20
55.0000
30
0.0
11
90.0000
21
53.2000
31
0.0
0
LINE
8
GRAVIROVANI
10
90.0000
20
52.0000
30
0.0
11
90.0000
21
50.2000
31
0.0
0
LINE
8
GRAVIROVANI
10
90.0000
20
49.0000
30
0.0
11
90.0000
21
47.2000
31
0.0
0
LINE
8
GRAVIROVANI
10
90.0000
20
43.0000
30
0.0
11
90.0000
21
41.2000
31
0.0
0
LINE
8
GRAVIROVANI
10
90.0000
20
40.0000
30
0.0
11
90.0000
21
38.2000
31
0.0
0
LINE
8
GRAVIROVANI
10
90.0000
20
37.0000
30
0.0
11
90.0000
21
36.0000
31
0.0
0
LINE
8
GRAVIROVANI
10
90.0000
20
29.0000
30
0.0
11
90.0000
21
27.2000
31
0.0
0
LINE
8
GRAVIROVANI
10
90.0000
20
26.0000
30
0.0
11
90.0000
21
24.2000
31
0.0
0
LINE
8
GRAVIROVANI
10
90.0000
20
17.0000
30
0.0
11
90.0000
21
15.2000
31
0.0
0
LINE
8
GRAVIROVANI
10
90.0000
20
14.0000
30
0.0
11
90.0000
21
12.2000
31
0.0
0
LINE
8
GRAVIROVANI
10
90.0000
20
11.0000
30
0.0
11
90.0000
21
10.0000
31
0.0
0
LINE
8
GRAVIROVANI
10
145.0000
20
6.0000
30
0.0
11
145.0000
21
2.0000
31
0.0
0
LINE
8
GRAVIROVANI
10
145.0000
20
4.0000
30
0.0
11
195.0000
21
4.0000
31
0.0
0
LINE
8
GRAVIROVANI
10
195.0000
20
6.0000
30
0.0
11
195.0000
21
2.0000
31
0.0
0
LINE
8
GRAVIROVANI
10
167.0000
20
8.6000
30
0.0
11
168.5600
21
8.6000
31
0.0
0
LINE
8
GRAVIROVANI
10
167.0000
20
8.6000
30
0.0
11
167.0000
21
7.3000
31
0.0
0
LINE
8
GRAVIROVANI
10
167.0000
20
7.3000
30
0.0
11
168.5600
21
7.3000
31
0.0
0
LINE
8
GRAVIROVANI
10
168.5600
20
7.3000
30
0.0
11
168.5600
21
6.0000
31
0.0
0
LINE
8
GRAVIROVANI
10
167.0000
20
6.0000
30
0.0
11
168.5600
21
6.0000
31
0.0
0
LINE
8
GRAVIROVANI
10
169.2100
20
8.6000
30
0.0
11
170.7700
21
8.6000
31
0.0
0
LINE
8
GRAVIROVANI
10
169.2100
20
8.6000
30
0.0
11
169.2100
21
7.3000
31
0.0
0
LINE
8
GRAVIROVANI
10
170.7700
20
8.6000
30
0.0
11
170.7700
21
7.3000
31
0.0
0
LINE
8
GRAVIROVANI
10
169.2100
20
7.3000
30
0.0
11
169.2100
21
6.0000
31
0.0
0
LINE
8
GRAVIROVANI
10
170.7700
20
7.3000
30
0.0
11
170.7700
21
6.0000
31
0.0
0
LINE
8
GRAVIROVANI
10
169.2100
20
6.0000
30
0.0
11
170.7700
21
6.0000
31
0.0
0
ENDSEC
0
EOF
