<?xml version="1.0" encoding="UTF-8"?>
<svg xmlns="http://www.w3.org/2000/svg" width="120mm" height="66mm" viewBox="0 0 120 66" role="img">
<title>Obvod bez pásku: krejčovský metr provlečený poutky kalhot, míra se odečte u nuly</title>
<rect width="120" height="66" fill="#ffffff"/>
<path d="M4 18 L116 18 L116 32 L4 32 Z" fill="#5d6b78" stroke="#46525d" stroke-width="0.5" stroke-linejoin="round"/>
<path d="M4 32 L116 32 L114 44 L6 44 Z" fill="#7d8a96" stroke="#46525d" stroke-width="0.5" stroke-linejoin="round"/>
<path d="M60 32 L60 44" stroke="#46525d" stroke-width="0.5" fill="none"/>
<ellipse cx="60" cy="25" rx="1.8" ry="1.8" fill="#8a8580" stroke="#6b5f57" stroke-width="0.3"/>
<path d="M4 22 L116 22 L116 28 L4 28 Z" fill="#f2d16b" stroke="#b08a57" stroke-width="0.4" stroke-linejoin="round"/>
<path d="M6 22 L6 25.3" stroke="#2b211c" stroke-width="0.2" fill="none"/>
<path d="M8 22 L8 23.8" stroke="#2b211c" stroke-width="0.2" fill="none"/>
<path d="M10 22 L10 23.8" stroke="#2b211c" stroke-width="0.2" fill="none"/>
<path d="M12 22 L12 23.8" stroke="#2b211c" stroke-width="0.2" fill="none"/>
<path d="M14 22 L14 23.8" stroke="#2b211c" stroke-width="0.2" fill="none"/>
<path d="M16 22 L16 25.3" stroke="#2b211c" stroke-width="0.2" fill="none"/>
<path d="M18 22 L18 23.8" stroke="#2b211c" stroke-width="0.2" fill="none"/>
<path d="M20 22 L20 23.8" stroke="#2b211c" stroke-width="0.2" fill="none"/>
<path d="M22 22 L22 23.8" stroke="#2b211c" stroke-width="0.2" fill="none"/>
<path d="M24 22 L24 23.8" stroke="#2b211c" stroke-width="0.2" fill="none"/>
<path d="M26 22 L26 25.3" stroke="#2b211c" stroke-width="0.2" fill="none"/>
<path d="M28 22 L28 23.8" stroke="#2b211c" stroke-width="0.2" fill="none"/>
<path d="M30 22 L30 23.8" stroke="#2b211c" stroke-width="0.2" fill="none"/>
<path d="M32 22 L32 23.8" stroke="#2b211c" stroke-width="0.2" fill="none"/>
<path d="M34 22 L34 23.8" stroke="#2b211c" stroke-width="0.2" fill="none"/>
<path d="M36 22 L36 25.3" stroke="#2b211c" stroke-width="0.2" fill="none"/>
<path d="M38 22 L38 23.8" stroke="#2b211c" stroke-width="0.2" fill="none"/>
<path d="M40 22 L40 23.8" stroke="#2b211c" stroke-width="0.2" fill="none"/>
<path d="M42 22 L42 23.8" stroke="#2b211c" stroke-width="0.2" fill="none"/>
<path d="M44 22 L44 23.8" stroke="#2b211c" stroke-width="0.2" fill="none"/>
<path d="M46 22 L46 25.3" stroke="#2b211c" stroke-width="0.2" fill="none"/>
<path d="M48 22 L48 23.8" stroke="#2b211c" stroke-width="0.2" fill="none"/>
<path d="M50 22 L50 23.8" stroke="#2b211c" stroke-width="0.2" fill="none"/>
<path d="M52 22 L52 23.8" stroke="#2b211c" stroke-width="0.2" fill="none"/>
<path d="M54 22 L54 23.8" stroke="#2b211c" stroke-width="0.2" fill="none"/>
<path d="M56 22 L56 25.3" stroke="#2b211c" stroke-width="0.2" fill="none"/>
<path d="M58 22 L58 23.8" stroke="#2b211c" stroke-width="0.2" fill="none"/>
<path d="M60 22 L60 23.8" stroke="#2b211c" stroke-width="0.2" fill="none"/>
<path d="M62 22 L62 23.8" stroke="#2b211c" stroke-width="0.2" fill="none"/>
<path d="M64 22 L64 23.8" stroke="#2b211c" stroke-width="0.2" fill="none"/>
<path d="M66 22 L66 25.3" stroke="#2b211c" stroke-width="0.2" fill="none"/>
<path d="M68 22 L68 23.8" stroke="#2b211c" stroke-width="0.2" fill="none"/>
<path d="M70 22 L70 23.8" stroke="#2b211c" stroke-width="0.2" fill="none"/>
<path d="M72 22 L72 23.8" stroke="#2b211c" stroke-width="0.2" fill="none"/>
<path d="M74 22 L74 23.8" stroke="#2b211c" stroke-width="0.2" fill="none"/>
<path d="M76 22 L76 25.3" stroke="#2b211c" stroke-width="0.2" fill="none"/>
<path d="M78 22 L78 23.8" stroke="#2b211c" stroke-width="0.2" fill="none"/>
<path d="M80 22 L80 23.8" stroke="#2b211c" stroke-width="0.2" fill="none"/>
<path d="M82 22 L82 23.8" stroke="#2b211c" stroke-width="0.2" fill="none"/>
<path d="M84 22 L84 23.8" stroke="#2b211c" stroke-width="0.2" fill="none"/>
<path d="M86 22 L86 25.3" stroke="#2b211c" stroke-width="0.2" fill="none"/>
<path d="M88 22 L88 23.8" stroke="#2b211c" stroke-width="0.2" fill="none"/>
<path d="M90 22 L90 23.8" stroke="#2b211c" stroke-width="0.2" fill="none"/>
<path d="M92 22 L92 23.8" stroke="#2b211c" stroke-width="0.2" fill="none"/>
<path d="M94 22 L94 23.8" stroke="#2b211c" stroke-width="0.2" fill="none"/>
<path d="M96 22 L96 25.3" stroke="#2b211c" stroke-width="0.2" fill="none"/>
<path d="M98 22 L98 23.8" stroke="#2b211c" stroke-width="0.2" fill="none"/>
<path d="M100 22 L100 23.8" stroke="#2b211c" stroke-width="0.2" fill="none"/>
<path d="M102 22 L102 23.8" stroke="#2b211c" stroke-width="0.2" fill="none"/>
<path d="M104 22 L104 23.8" stroke="#2b211c" stroke-width="0.2" fill="none"/>
<path d="M106 22 L106 25.3" stroke="#2b211c" stroke-width="0.2" fill="none"/>
<path d="M108 22 L108 23.8" stroke="#2b211c" stroke-width="0.2" fill="none"/>
<path d="M110 22 L110 23.8" stroke="#2b211c" stroke-width="0.2" fill="none"/>
<path d="M112 22 L112 23.8" stroke="#2b211c" stroke-width="0.2" fill="none"/>
<path d="M114 22 L114 23.8" stroke="#2b211c" stroke-width="0.2" fill="none"/>
<path d="M50 20.8 L64 20.8 L64 29.2 L50 29.2 Z" fill="#f2d16b" stroke="#2b211c" stroke-width="0.5" stroke-linejoin="round"/>
<text x="51" y="27.4" font-family="Helvetica, Arial, sans-serif" font-size="3.4" font-weight="bold" text-anchor="start" fill="#2b211c">0</text>
<rect x="11.5" y="15" width="5" height="19" rx="1" fill="#46525d" stroke="#2b211c" stroke-width="0.3"/>
<rect x="31.5" y="15" width="5" height="19" rx="1" fill="#46525d" stroke="#2b211c" stroke-width="0.3"/>
<rect x="83.5" y="15" width="5" height="19" rx="1" fill="#46525d" stroke="#2b211c" stroke-width="0.3"/>
<rect x="103.5" y="15" width="5" height="19" rx="1" fill="#46525d" stroke="#2b211c" stroke-width="0.3"/>
<path d="M44 8 L48.761 19.192" stroke="#33483b" stroke-width="0.6" fill="none"/><path d="M49.7 21.4 L49.773 18.761 L47.748 19.622 Z" fill="#33483b" stroke="none" stroke-width="0.4" stroke-linejoin="round"/>
<text x="43" y="8.5" font-family="Helvetica, Arial, sans-serif" font-size="5.4" font-weight="bold" text-anchor="end" fill="#33483b">odečtěte u nuly</text>
<path d="M22 49 L15.962 35.199" stroke="#6b5f57" stroke-width="0.45" fill="none"/><path d="M15 33 L14.954 35.64 L16.97 34.758 Z" fill="#6b5f57" stroke="none" stroke-width="0.4" stroke-linejoin="round"/>
<text x="24" y="52" font-family="Helvetica, Arial, sans-serif" font-size="5" font-weight="normal" text-anchor="start" fill="#6b5f57">metr vede všemi poutky</text>
<text x="24" y="59" font-family="Helvetica, Arial, sans-serif" font-size="5" font-weight="normal" text-anchor="start" fill="#6b5f57">utáhněte na pohodlí</text>
</svg>