<?xml version="1.0" encoding="UTF-8"?>
<!-- Pouzdro na karty s vsazenou mincí – střih 1:1. Mince 40 mm. NÁVRH, ověřit na papíru. -->
<svg xmlns="http://www.w3.org/2000/svg" width="210mm" height="297mm" viewBox="0 0 210 297">
<rect width="210" height="297" fill="#ffffff"/>
<path d="M18 12 L72 12 A6 6 0 0 1 78 18 L78 178.2 A12 12 0 0 1 66 190.2 L24 190.2 A12 12 0 0 1 12 178.2 L12 18 A6 6 0 0 1 18 12 Z" fill="none" stroke="#2b2b2b" stroke-width="0.3"/>
<path d="M12 87.6 L78 87.6" fill="none" stroke="#7a7a7a" stroke-width="0.2" stroke-dasharray="3 2"/>
<path d="M12 93.6 L78 93.6" fill="none" stroke="#7a7a7a" stroke-width="0.2" stroke-dasharray="3 2"/>
<text x="45" y="91.8" font-family="Helvetica, Arial, sans-serif" font-size="2.6" text-anchor="middle" fill="#7a7a7a">OHYB</text>
<path d="M12 172.2 L78 172.2" fill="none" stroke="#7a7a7a" stroke-width="0.2" stroke-dasharray="1 1.5"/>
<text x="45" y="170.7" font-family="Helvetica, Arial, sans-serif" font-size="2.2" text-anchor="middle" fill="#7a7a7a">zde se chlopeň láme přes horní hranu</text>
<path d="M15.5 15.5 L15.5 84.1" fill="none" stroke="#7a7a7a" stroke-width="0.2" stroke-dasharray="0.8 1.2"/>
<circle cx="15.5" cy="84.1" r="0.45" fill="#2b2b2b"/><circle cx="15.5" cy="80.1" r="0.45" fill="#2b2b2b"/><circle cx="15.5" cy="76.1" r="0.45" fill="#2b2b2b"/><circle cx="15.5" cy="72.1" r="0.45" fill="#2b2b2b"/><circle cx="15.5" cy="68.1" r="0.45" fill="#2b2b2b"/><circle cx="15.5" cy="64.1" r="0.45" fill="#2b2b2b"/><circle cx="15.5" cy="60.1" r="0.45" fill="#2b2b2b"/><circle cx="15.5" cy="56.1" r="0.45" fill="#2b2b2b"/><circle cx="15.5" cy="52.1" r="0.45" fill="#2b2b2b"/><circle cx="15.5" cy="48.1" r="0.45" fill="#2b2b2b"/><circle cx="15.5" cy="44.1" r="0.45" fill="#2b2b2b"/><circle cx="15.5" cy="40.1" r="0.45" fill="#2b2b2b"/><circle cx="15.5" cy="36.1" r="0.45" fill="#2b2b2b"/><circle cx="15.5" cy="32.1" r="0.45" fill="#2b2b2b"/><circle cx="15.5" cy="28.1" r="0.45" fill="#2b2b2b"/><circle cx="15.5" cy="24.1" r="0.45" fill="#2b2b2b"/><circle cx="15.5" cy="20.1" r="0.45" fill="#2b2b2b"/><circle cx="15.5" cy="16.1" r="0.45" fill="#2b2b2b"/>
<path d="M15.5 97.1 L15.5 165.7" fill="none" stroke="#7a7a7a" stroke-width="0.2" stroke-dasharray="0.8 1.2"/>
<circle cx="15.5" cy="97.1" r="0.45" fill="#2b2b2b"/><circle cx="15.5" cy="101.1" r="0.45" fill="#2b2b2b"/><circle cx="15.5" cy="105.1" r="0.45" fill="#2b2b2b"/><circle cx="15.5" cy="109.1" r="0.45" fill="#2b2b2b"/><circle cx="15.5" cy="113.1" r="0.45" fill="#2b2b2b"/><circle cx="15.5" cy="117.1" r="0.45" fill="#2b2b2b"/><circle cx="15.5" cy="121.1" r="0.45" fill="#2b2b2b"/><circle cx="15.5" cy="125.1" r="0.45" fill="#2b2b2b"/><circle cx="15.5" cy="129.1" r="0.45" fill="#2b2b2b"/><circle cx="15.5" cy="133.1" r="0.45" fill="#2b2b2b"/><circle cx="15.5" cy="137.1" r="0.45" fill="#2b2b2b"/><circle cx="15.5" cy="141.1" r="0.45" fill="#2b2b2b"/><circle cx="15.5" cy="145.1" r="0.45" fill="#2b2b2b"/><circle cx="15.5" cy="149.1" r="0.45" fill="#2b2b2b"/><circle cx="15.5" cy="153.1" r="0.45" fill="#2b2b2b"/><circle cx="15.5" cy="157.1" r="0.45" fill="#2b2b2b"/><circle cx="15.5" cy="161.1" r="0.45" fill="#2b2b2b"/><circle cx="15.5" cy="165.1" r="0.45" fill="#2b2b2b"/>
<path d="M74.5 15.5 L74.5 84.1" fill="none" stroke="#7a7a7a" stroke-width="0.2" stroke-dasharray="0.8 1.2"/>
<circle cx="74.5" cy="84.1" r="0.45" fill="#2b2b2b"/><circle cx="74.5" cy="80.1" r="0.45" fill="#2b2b2b"/><circle cx="74.5" cy="76.1" r="0.45" fill="#2b2b2b"/><circle cx="74.5" cy="72.1" r="0.45" fill="#2b2b2b"/><circle cx="74.5" cy="68.1" r="0.45" fill="#2b2b2b"/><circle cx="74.5" cy="64.1" r="0.45" fill="#2b2b2b"/><circle cx="74.5" cy="60.1" r="0.45" fill="#2b2b2b"/><circle cx="74.5" cy="56.1" r="0.45" fill="#2b2b2b"/><circle cx="74.5" cy="52.1" r="0.45" fill="#2b2b2b"/><circle cx="74.5" cy="48.1" r="0.45" fill="#2b2b2b"/><circle cx="74.5" cy="44.1" r="0.45" fill="#2b2b2b"/><circle cx="74.5" cy="40.1" r="0.45" fill="#2b2b2b"/><circle cx="74.5" cy="36.1" r="0.45" fill="#2b2b2b"/><circle cx="74.5" cy="32.1" r="0.45" fill="#2b2b2b"/><circle cx="74.5" cy="28.1" r="0.45" fill="#2b2b2b"/><circle cx="74.5" cy="24.1" r="0.45" fill="#2b2b2b"/><circle cx="74.5" cy="20.1" r="0.45" fill="#2b2b2b"/><circle cx="74.5" cy="16.1" r="0.45" fill="#2b2b2b"/>
<path d="M74.5 97.1 L74.5 165.7" fill="none" stroke="#7a7a7a" stroke-width="0.2" stroke-dasharray="0.8 1.2"/>
<circle cx="74.5" cy="97.1" r="0.45" fill="#2b2b2b"/><circle cx="74.5" cy="101.1" r="0.45" fill="#2b2b2b"/><circle cx="74.5" cy="105.1" r="0.45" fill="#2b2b2b"/><circle cx="74.5" cy="109.1" r="0.45" fill="#2b2b2b"/><circle cx="74.5" cy="113.1" r="0.45" fill="#2b2b2b"/><circle cx="74.5" cy="117.1" r="0.45" fill="#2b2b2b"/><circle cx="74.5" cy="121.1" r="0.45" fill="#2b2b2b"/><circle cx="74.5" cy="125.1" r="0.45" fill="#2b2b2b"/><circle cx="74.5" cy="129.1" r="0.45" fill="#2b2b2b"/><circle cx="74.5" cy="133.1" r="0.45" fill="#2b2b2b"/><circle cx="74.5" cy="137.1" r="0.45" fill="#2b2b2b"/><circle cx="74.5" cy="141.1" r="0.45" fill="#2b2b2b"/><circle cx="74.5" cy="145.1" r="0.45" fill="#2b2b2b"/><circle cx="74.5" cy="149.1" r="0.45" fill="#2b2b2b"/><circle cx="74.5" cy="153.1" r="0.45" fill="#2b2b2b"/><circle cx="74.5" cy="157.1" r="0.45" fill="#2b2b2b"/><circle cx="74.5" cy="161.1" r="0.45" fill="#2b2b2b"/><circle cx="74.5" cy="165.1" r="0.45" fill="#2b2b2b"/>
<circle cx="45" cy="21" r="6.25" fill="none" stroke="#a2471f" stroke-width="0.3" stroke-dasharray="1.5 1"/>
<path d="M43.5 21 L46.5 21 M45 19.5 L45 22.5" stroke="#2b2b2b" stroke-width="0.25"/>
<circle cx="45" cy="181.2" r="6.25" fill="none" stroke="#a2471f" stroke-width="0.3" stroke-dasharray="1.5 1"/>
<path d="M43.5 181.2 L46.5 181.2 M45 179.7 L45 182.7" stroke="#2b2b2b" stroke-width="0.25"/>
<text x="52.75" y="22" font-family="Helvetica, Arial, sans-serif" font-size="2.2" text-anchor="start" fill="#a2471f">druk – patice</text>
<text x="52.75" y="182.2" font-family="Helvetica, Arial, sans-serif" font-size="2.2" text-anchor="start" fill="#a2471f">druk – klobouček</text>
<path d="M29.5 32.1 L60.5 32.1 A10 10 0 0 1 70.5 42.1 L70.5 75.6 A6 6 0 0 1 64.5 81.6 L25.5 81.6 A6 6 0 0 1 19.5 75.6 L19.5 42.1 A10 10 0 0 1 29.5 32.1 Z" fill="none" stroke="#7a7a7a" stroke-width="0.2" stroke-dasharray="1 1"/>
<text x="45" y="55.85" font-family="Helvetica, Arial, sans-serif" font-size="2.4" text-anchor="middle" fill="#7a7a7a">sem přišít</text>
<text x="45" y="59.25" font-family="Helvetica, Arial, sans-serif" font-size="2.4" text-anchor="middle" fill="#7a7a7a">kapsu s mincí</text>
<text x="45" y="37.8" font-family="Helvetica, Arial, sans-serif" font-size="2.8" text-anchor="middle" fill="#2b2b2b">TĚLO – PŘEDNÍ PANEL</text>
<text x="45" y="41.3" font-family="Helvetica, Arial, sans-serif" font-size="2.4" text-anchor="middle" fill="#7a7a7a">66 × 75,6 mm</text>
<text x="45" y="132.9" font-family="Helvetica, Arial, sans-serif" font-size="2.8" text-anchor="middle" fill="#2b2b2b">ZADNÍ PANEL</text>
<text x="45" y="136.4" font-family="Helvetica, Arial, sans-serif" font-size="2.2" text-anchor="middle" fill="#7a7a7a">66 × 78,6 mm · rub = ražení / motiv</text>
<text x="15" y="177.2" font-family="Helvetica, Arial, sans-serif" font-size="2.6" text-anchor="start" fill="#2b2b2b">CHLOPEŇ</text>
<path d="M96 12 L150 12 A6 6 0 0 1 156 18 L156 81.6 A6 6 0 0 1 150 87.6 L96 87.6 A6 6 0 0 1 90 81.6 L90 18 A6 6 0 0 1 96 12 Z" fill="none" stroke="#2b2b2b" stroke-width="0.3"/>
<path d="M93.5 15.5 L93.5 84.1" fill="none" stroke="#7a7a7a" stroke-width="0.2" stroke-dasharray="0.8 1.2"/>
<circle cx="93.5" cy="84.1" r="0.45" fill="#2b2b2b"/><circle cx="93.5" cy="80.1" r="0.45" fill="#2b2b2b"/><circle cx="93.5" cy="76.1" r="0.45" fill="#2b2b2b"/><circle cx="93.5" cy="72.1" r="0.45" fill="#2b2b2b"/><circle cx="93.5" cy="68.1" r="0.45" fill="#2b2b2b"/><circle cx="93.5" cy="64.1" r="0.45" fill="#2b2b2b"/><circle cx="93.5" cy="60.1" r="0.45" fill="#2b2b2b"/><circle cx="93.5" cy="56.1" r="0.45" fill="#2b2b2b"/><circle cx="93.5" cy="52.1" r="0.45" fill="#2b2b2b"/><circle cx="93.5" cy="48.1" r="0.45" fill="#2b2b2b"/><circle cx="93.5" cy="44.1" r="0.45" fill="#2b2b2b"/><circle cx="93.5" cy="40.1" r="0.45" fill="#2b2b2b"/><circle cx="93.5" cy="36.1" r="0.45" fill="#2b2b2b"/><circle cx="93.5" cy="32.1" r="0.45" fill="#2b2b2b"/><circle cx="93.5" cy="28.1" r="0.45" fill="#2b2b2b"/><circle cx="93.5" cy="24.1" r="0.45" fill="#2b2b2b"/><circle cx="93.5" cy="20.1" r="0.45" fill="#2b2b2b"/><circle cx="93.5" cy="16.1" r="0.45" fill="#2b2b2b"/>
<path d="M152.5 15.5 L152.5 84.1" fill="none" stroke="#7a7a7a" stroke-width="0.2" stroke-dasharray="0.8 1.2"/>
<circle cx="152.5" cy="84.1" r="0.45" fill="#2b2b2b"/><circle cx="152.5" cy="80.1" r="0.45" fill="#2b2b2b"/><circle cx="152.5" cy="76.1" r="0.45" fill="#2b2b2b"/><circle cx="152.5" cy="72.1" r="0.45" fill="#2b2b2b"/><circle cx="152.5" cy="68.1" r="0.45" fill="#2b2b2b"/><circle cx="152.5" cy="64.1" r="0.45" fill="#2b2b2b"/><circle cx="152.5" cy="60.1" r="0.45" fill="#2b2b2b"/><circle cx="152.5" cy="56.1" r="0.45" fill="#2b2b2b"/><circle cx="152.5" cy="52.1" r="0.45" fill="#2b2b2b"/><circle cx="152.5" cy="48.1" r="0.45" fill="#2b2b2b"/><circle cx="152.5" cy="44.1" r="0.45" fill="#2b2b2b"/><circle cx="152.5" cy="40.1" r="0.45" fill="#2b2b2b"/><circle cx="152.5" cy="36.1" r="0.45" fill="#2b2b2b"/><circle cx="152.5" cy="32.1" r="0.45" fill="#2b2b2b"/><circle cx="152.5" cy="28.1" r="0.45" fill="#2b2b2b"/><circle cx="152.5" cy="24.1" r="0.45" fill="#2b2b2b"/><circle cx="152.5" cy="20.1" r="0.45" fill="#2b2b2b"/><circle cx="152.5" cy="16.1" r="0.45" fill="#2b2b2b"/>
<text x="123" y="47.8" font-family="Helvetica, Arial, sans-serif" font-size="2.8" text-anchor="middle" fill="#2b2b2b">DĚLICÍ PANEL</text>
<text x="123" y="51.8" font-family="Helvetica, Arial, sans-serif" font-size="2.2" text-anchor="middle" fill="#7a7a7a">66 × 75,6 mm · vložit před šitím</text>
<text x="123" y="55.3" font-family="Helvetica, Arial, sans-serif" font-size="2.2" text-anchor="middle" fill="#7a7a7a">spodní hranou na ohyb</text>
<path d="M100 99.6 L131 99.6 A10 10 0 0 1 141 109.6 L141 143.1 A6 6 0 0 1 135 149.1 L96 149.1 A6 6 0 0 1 90 143.1 L90 109.6 A10 10 0 0 1 100 99.6 Z" fill="none" stroke="#2b2b2b" stroke-width="0.3"/>
<path d="M93.5 103.1 L93.5 143.1 A2.5 2.5 0 0 0 96 145.6 L135 145.6 A2.5 2.5 0 0 0 137.5 143.1 L137.5 103.1" fill="none" stroke="#7a7a7a" stroke-width="0.2" stroke-dasharray="0.8 1.2"/>
<circle cx="115.5" cy="123.6" r="15.5" fill="none" stroke="#2b2b2b" stroke-width="0.3"/>
<circle cx="115.5" cy="123.6" r="20" fill="none" stroke="#7a7a7a" stroke-width="0.3" stroke-dasharray="2 1.5"/>
<path d="M114 123.6 L117 123.6 M115.5 122.1 L115.5 125.1" stroke="#2b2b2b" stroke-width="0.25"/>
<text x="115.5" y="97.6" font-family="Helvetica, Arial, sans-serif" font-size="2.6" text-anchor="middle" fill="#2b2b2b">KAPSA S MINCÍ (horní hrana otevřená)</text>
<text x="115.5" y="152.6" font-family="Helvetica, Arial, sans-serif" font-size="2.1" text-anchor="middle" fill="#7a7a7a">okno Ø 31 řezat AŽ PO přišití · mince Ø 40 čárkovaně</text>
<path d="M90 165.1 h70 v70 h-70 Z" fill="none" stroke="#7a7a7a" stroke-width="0.2" stroke-dasharray="1.5 1.5"/>
<circle cx="125" cy="200.1" r="20.5" fill="none" stroke="#7a7a7a" stroke-width="0.3" stroke-dasharray="2 1.5"/>
<path d="M123.5 200.1 L126.5 200.1 M125 198.6 L125 201.6" stroke="#2b2b2b" stroke-width="0.25"/>
<text x="125" y="163.1" font-family="Helvetica, Arial, sans-serif" font-size="2.6" text-anchor="middle" fill="#2b2b2b">FORMA PRO DŮLEK (dřevo / HDPE, ne kůže)</text>
<text x="125" y="238.6" font-family="Helvetica, Arial, sans-serif" font-size="2.1" text-anchor="middle" fill="#7a7a7a">otvor Ø 41 = mince + 1 · deska 70 × 70 mm</text>
<path d="M12 277 V281 M12 279 H62 M62 277 V281" stroke="#2b2b2b" stroke-width="0.3" fill="none"/>
<text x="37" y="276" font-family="Helvetica, Arial, sans-serif" font-size="2.4" text-anchor="middle" fill="#2b2b2b">KONTROLA MĚŘÍTKA: tato úsečka musí měřit přesně 50 mm</text>
<text x="12" y="251" font-family="Helvetica, Arial, sans-serif" font-size="2.3" text-anchor="start" fill="#7a7a7a">POUZDRO NA KARTY S VSAZENOU MINCÍ – střih 1:1, tisk na A4 na 100 % (bez „přizpůsobit stránce“).</text>
<text x="12" y="254.4" font-family="Helvetica, Arial, sans-serif" font-size="2.3" text-anchor="start" fill="#7a7a7a">NÁVRH k ověření na papíru a odřezku. Karta 54 × 85,6, mince Ø 40, kůže tělo 1,5 mm, kapsa 1,2 mm.</text>
<text x="12" y="257.8" font-family="Helvetica, Arial, sans-serif" font-size="2.3" text-anchor="start" fill="#7a7a7a">Plná čára = řez. Tečky = otvory stehu, rozteč 4 mm, 3,5 mm od hrany; boční švy začínají u ohybu, aby díly lícovaly (18 otvorů na stranu).</text>
<text x="12" y="261.2" font-family="Helvetica, Arial, sans-serif" font-size="2.3" text-anchor="start" fill="#7a7a7a">Pořadí: 1 vyříznout tělo a dělicí panel · 2 kapsu: navlhčit, vytvarovat důlek ve formě přes minci, nechat zaschnout, PAK vyříznout obrys ·</text>
<text x="12" y="264.6" font-family="Helvetica, Arial, sans-serif" font-size="2.3" text-anchor="start" fill="#7a7a7a">3 přišít kapsu na přední panel (3 strany) · 4 vyříznout okno · 5 vložit dělicí panel, přeložit, prošít boky · 6 druk · 7 hrany. Karta vyčnívá 10 mm.</text>
</svg>