<?xml version="1.0" encoding="UTF-8"?>
<!-- Pouzdro na karty s vsazenou mincí – střih 1:1 (tvar L podle předlohy Red Forest). Mince 27,5 mm, okno 19 mm. NÁVRH, ověřit na papíru. -->
<svg xmlns="http://www.w3.org/2000/svg" width="210mm" height="297mm" viewBox="0 0 210 297">
<rect width="210" height="297" fill="#ffffff"/>
<path d="M12 25 A13 13 0 0 1 38 25 L38 50.49 A12 12 0 0 0 62 50.49 L72 50.49 A6 6 0 0 1 78 56.49 L78 216.82 A6 6 0 0 1 72 222.82 L18 222.82 A6 6 0 0 1 12 216.82 Z" fill="none" stroke="#2b2b2b" stroke-width="0.3"/>
<path d="M12 138.09 L78 138.09" fill="none" stroke="#7a7a7a" stroke-width="0.2" stroke-dasharray="3 2"/>
<path d="M12 145.22 L78 145.22" fill="none" stroke="#7a7a7a" stroke-width="0.2" stroke-dasharray="3 2"/>
<text x="45" y="142.555" font-family="Helvetica, Arial, sans-serif" font-size="2.6" text-anchor="middle" fill="#7a7a7a">OHYB 7,13 mm</text>
<path d="M62 50.49 L38 50.49" fill="none" stroke="#7a7a7a" stroke-width="0.2" stroke-dasharray="1 1.5"/>
<text x="45" y="70.49" font-family="Helvetica, Arial, sans-serif" font-size="2.1" text-anchor="middle" fill="#7a7a7a">jazyk se láme přes karty na této hraně</text>
<path d="M15.5 63.99 L15.5 134.59" fill="none" stroke="#7a7a7a" stroke-width="0.2" stroke-dasharray="0.8 1.2"/>
<circle cx="15.5" cy="134.59" r="0.45" fill="#2b2b2b"/><circle cx="15.5" cy="130.59" r="0.45" fill="#2b2b2b"/><circle cx="15.5" cy="126.59" r="0.45" fill="#2b2b2b"/><circle cx="15.5" cy="122.59" r="0.45" fill="#2b2b2b"/><circle cx="15.5" cy="118.59" r="0.45" fill="#2b2b2b"/><circle cx="15.5" cy="114.59" r="0.45" fill="#2b2b2b"/><circle cx="15.5" cy="110.59" r="0.45" fill="#2b2b2b"/><circle cx="15.5" cy="106.59" r="0.45" fill="#2b2b2b"/><circle cx="15.5" cy="102.59" r="0.45" fill="#2b2b2b"/><circle cx="15.5" cy="98.59" r="0.45" fill="#2b2b2b"/><circle cx="15.5" cy="94.59" r="0.45" fill="#2b2b2b"/><circle cx="15.5" cy="90.59" r="0.45" fill="#2b2b2b"/><circle cx="15.5" cy="86.59" r="0.45" fill="#2b2b2b"/><circle cx="15.5" cy="82.59" r="0.45" fill="#2b2b2b"/><circle cx="15.5" cy="78.59" r="0.45" fill="#2b2b2b"/><circle cx="15.5" cy="74.59" r="0.45" fill="#2b2b2b"/><circle cx="15.5" cy="70.59" r="0.45" fill="#2b2b2b"/><circle cx="15.5" cy="66.59" r="0.45" fill="#2b2b2b"/>
<path d="M15.5 148.72 L15.5 219.32" fill="none" stroke="#7a7a7a" stroke-width="0.2" stroke-dasharray="0.8 1.2"/>
<circle cx="15.5" cy="148.72" r="0.45" fill="#2b2b2b"/><circle cx="15.5" cy="152.72" r="0.45" fill="#2b2b2b"/><circle cx="15.5" cy="156.72" r="0.45" fill="#2b2b2b"/><circle cx="15.5" cy="160.72" r="0.45" fill="#2b2b2b"/><circle cx="15.5" cy="164.72" r="0.45" fill="#2b2b2b"/><circle cx="15.5" cy="168.72" r="0.45" fill="#2b2b2b"/><circle cx="15.5" cy="172.72" r="0.45" fill="#2b2b2b"/><circle cx="15.5" cy="176.72" r="0.45" fill="#2b2b2b"/><circle cx="15.5" cy="180.72" r="0.45" fill="#2b2b2b"/><circle cx="15.5" cy="184.72" r="0.45" fill="#2b2b2b"/><circle cx="15.5" cy="188.72" r="0.45" fill="#2b2b2b"/><circle cx="15.5" cy="192.72" r="0.45" fill="#2b2b2b"/><circle cx="15.5" cy="196.72" r="0.45" fill="#2b2b2b"/><circle cx="15.5" cy="200.72" r="0.45" fill="#2b2b2b"/><circle cx="15.5" cy="204.72" r="0.45" fill="#2b2b2b"/><circle cx="15.5" cy="208.72" r="0.45" fill="#2b2b2b"/><circle cx="15.5" cy="212.72" r="0.45" fill="#2b2b2b"/><circle cx="15.5" cy="216.72" r="0.45" fill="#2b2b2b"/>
<path d="M74.5 63.99 L74.5 134.59" fill="none" stroke="#7a7a7a" stroke-width="0.2" stroke-dasharray="0.8 1.2"/>
<circle cx="74.5" cy="134.59" r="0.45" fill="#2b2b2b"/><circle cx="74.5" cy="130.59" r="0.45" fill="#2b2b2b"/><circle cx="74.5" cy="126.59" r="0.45" fill="#2b2b2b"/><circle cx="74.5" cy="122.59" r="0.45" fill="#2b2b2b"/><circle cx="74.5" cy="118.59" r="0.45" fill="#2b2b2b"/><circle cx="74.5" cy="114.59" r="0.45" fill="#2b2b2b"/><circle cx="74.5" cy="110.59" r="0.45" fill="#2b2b2b"/><circle cx="74.5" cy="106.59" r="0.45" fill="#2b2b2b"/><circle cx="74.5" cy="102.59" r="0.45" fill="#2b2b2b"/><circle cx="74.5" cy="98.59" r="0.45" fill="#2b2b2b"/><circle cx="74.5" cy="94.59" r="0.45" fill="#2b2b2b"/><circle cx="74.5" cy="90.59" r="0.45" fill="#2b2b2b"/><circle cx="74.5" cy="86.59" r="0.45" fill="#2b2b2b"/><circle cx="74.5" cy="82.59" r="0.45" fill="#2b2b2b"/><circle cx="74.5" cy="78.59" r="0.45" fill="#2b2b2b"/><circle cx="74.5" cy="74.59" r="0.45" fill="#2b2b2b"/><circle cx="74.5" cy="70.59" r="0.45" fill="#2b2b2b"/><circle cx="74.5" cy="66.59" r="0.45" fill="#2b2b2b"/>
<path d="M74.5 148.72 L74.5 219.32" fill="none" stroke="#7a7a7a" stroke-width="0.2" stroke-dasharray="0.8 1.2"/>
<circle cx="74.5" cy="148.72" r="0.45" fill="#2b2b2b"/><circle cx="74.5" cy="152.72" r="0.45" fill="#2b2b2b"/><circle cx="74.5" cy="156.72" r="0.45" fill="#2b2b2b"/><circle cx="74.5" cy="160.72" r="0.45" fill="#2b2b2b"/><circle cx="74.5" cy="164.72" r="0.45" fill="#2b2b2b"/><circle cx="74.5" cy="168.72" r="0.45" fill="#2b2b2b"/><circle cx="74.5" cy="172.72" r="0.45" fill="#2b2b2b"/><circle cx="74.5" cy="176.72" r="0.45" fill="#2b2b2b"/><circle cx="74.5" cy="180.72" r="0.45" fill="#2b2b2b"/><circle cx="74.5" cy="184.72" r="0.45" fill="#2b2b2b"/><circle cx="74.5" cy="188.72" r="0.45" fill="#2b2b2b"/><circle cx="74.5" cy="192.72" r="0.45" fill="#2b2b2b"/><circle cx="74.5" cy="196.72" r="0.45" fill="#2b2b2b"/><circle cx="74.5" cy="200.72" r="0.45" fill="#2b2b2b"/><circle cx="74.5" cy="204.72" r="0.45" fill="#2b2b2b"/><circle cx="74.5" cy="208.72" r="0.45" fill="#2b2b2b"/><circle cx="74.5" cy="212.72" r="0.45" fill="#2b2b2b"/><circle cx="74.5" cy="216.72" r="0.45" fill="#2b2b2b"/>
<circle cx="25" cy="21" r="6.25" fill="none" stroke="#a2471f" stroke-width="0.2" stroke-dasharray="1.5 1"/>
<path d="M23.5 21 L26.5 21 M25 19.5 L25 22.5" stroke="#2b2b2b" stroke-width="0.25"/>
<text x="32.75" y="20.5" font-family="Helvetica, Arial, sans-serif" font-size="2.1" text-anchor="start" fill="#a2471f">druk – klobouček</text>
<text x="32.75" y="23.4" font-family="Helvetica, Arial, sans-serif" font-size="1.9" text-anchor="start" fill="#a2471f">ověřit s kartami</text>
<circle cx="25" cy="212.82" r="6.25" fill="none" stroke="#a2471f" stroke-width="0.2" stroke-dasharray="1.5 1"/>
<path d="M23.5 212.82 L26.5 212.82 M25 211.32 L25 214.32" stroke="#2b2b2b" stroke-width="0.25"/>
<text x="32.75" y="213.82" font-family="Helvetica, Arial, sans-serif" font-size="2.1" text-anchor="start" fill="#a2471f">druk – patice</text>
<circle cx="69" cy="59.49" r="2.5" fill="none" stroke="#2b2b2b" stroke-width="0.3"/>
<path d="M68 59.49 L70 59.49 M69 58.49 L69 60.49" stroke="#2b2b2b" stroke-width="0.25"/>
<text x="69" y="64.99" font-family="Helvetica, Arial, sans-serif" font-size="1.9" text-anchor="middle" fill="#7a7a7a">průchodka Ø 5</text>
<path d="M28.75 154.77 L61.25 154.77 A6 6 0 0 1 67.25 160.77 L67.25 185.27 A10 10 0 0 1 57.25 195.27 L32.75 195.27 A10 10 0 0 1 22.75 185.27 L22.75 160.77 A6 6 0 0 1 28.75 154.77 Z" fill="none" stroke="#7a7a7a" stroke-width="0.2" stroke-dasharray="1 1"/>
<text x="45" y="169.02" font-family="Helvetica, Arial, sans-serif" font-size="2.8" text-anchor="middle" fill="#2b2b2b">PŘEDNÍ PANEL</text>
<text x="45" y="172.52" font-family="Helvetica, Arial, sans-serif" font-size="2.1" text-anchor="middle" fill="#7a7a7a">66 × 77,6 mm · karta vyčnívá 8 mm</text>
<text x="45" y="178.02" font-family="Helvetica, Arial, sans-serif" font-size="2.4" text-anchor="middle" fill="#7a7a7a">sem přišít kapsu s mincí</text>
<text x="45" y="181.22" font-family="Helvetica, Arial, sans-serif" font-size="2.1" text-anchor="middle" fill="#7a7a7a">(otevřená hrana k druku)</text>
<text x="25" y="31.25" font-family="Helvetica, Arial, sans-serif" font-size="2.2" text-anchor="middle" fill="#2b2b2b">JAZYK</text>
<text x="45" y="91.29" font-family="Helvetica, Arial, sans-serif" font-size="2.8" text-anchor="middle" fill="#2b2b2b">TĚLO – ZADNÍ PANEL</text>
<text x="45" y="94.79" font-family="Helvetica, Arial, sans-serif" font-size="2.2" text-anchor="middle" fill="#7a7a7a">66 × 87,6 mm · kryje karty celé</text>
<text x="45" y="98.29" font-family="Helvetica, Arial, sans-serif" font-size="2.2" text-anchor="middle" fill="#7a7a7a">motiv / ražení na tuto stranu</text>
<text x="50" y="65.99" font-family="Helvetica, Arial, sans-serif" font-size="1.9" text-anchor="middle" fill="#7a7a7a">výřez na prst R12</text>
<path d="M100 16 L124.5 16 A10 10 0 0 1 134.5 26 L134.5 50.5 A6 6 0 0 1 128.5 56.5 L96 56.5 A6 6 0 0 1 90 50.5 L90 26 A10 10 0 0 1 100 16 Z" fill="none" stroke="#2b2b2b" stroke-width="0.3"/>
<path d="M93.5 26 L93.5 50.5 A2.5 2.5 0 0 0 96 53 L128.5 53 A2.5 2.5 0 0 0 131 50.5 L131 26" fill="none" stroke="#7a7a7a" stroke-width="0.2" stroke-dasharray="0.8 1.2"/>
<circle cx="112.25" cy="53" r="0.45" fill="#2b2b2b"/><circle cx="108.25" cy="53" r="0.45" fill="#2b2b2b"/><circle cx="116.25" cy="53" r="0.45" fill="#2b2b2b"/><circle cx="104.25" cy="53" r="0.45" fill="#2b2b2b"/><circle cx="120.25" cy="53" r="0.45" fill="#2b2b2b"/><circle cx="100.25" cy="53" r="0.45" fill="#2b2b2b"/><circle cx="124.25" cy="53" r="0.45" fill="#2b2b2b"/><circle cx="96.25" cy="53" r="0.45" fill="#2b2b2b"/><circle cx="128.25" cy="53" r="0.45" fill="#2b2b2b"/><circle cx="93.506" cy="50.677" r="0.45" fill="#2b2b2b"/><circle cx="130.994" cy="50.677" r="0.45" fill="#2b2b2b"/><circle cx="93.5" cy="46.677" r="0.45" fill="#2b2b2b"/><circle cx="131" cy="46.677" r="0.45" fill="#2b2b2b"/><circle cx="93.5" cy="42.677" r="0.45" fill="#2b2b2b"/><circle cx="131" cy="42.677" r="0.45" fill="#2b2b2b"/><circle cx="93.5" cy="38.677" r="0.45" fill="#2b2b2b"/><circle cx="131" cy="38.677" r="0.45" fill="#2b2b2b"/><circle cx="93.5" cy="34.677" r="0.45" fill="#2b2b2b"/><circle cx="131" cy="34.677" r="0.45" fill="#2b2b2b"/><circle cx="93.5" cy="30.677" r="0.45" fill="#2b2b2b"/><circle cx="131" cy="30.677" r="0.45" fill="#2b2b2b"/><circle cx="93.5" cy="26.677" r="0.45" fill="#2b2b2b"/><circle cx="131" cy="26.677" r="0.45" fill="#2b2b2b"/>
<circle cx="112.25" cy="34.25" r="9.5" fill="none" stroke="#2b2b2b" stroke-width="0.3"/>
<circle cx="112.25" cy="34.25" r="13.75" fill="none" stroke="#7a7a7a" stroke-width="0.2" stroke-dasharray="2 1.5"/>
<circle cx="112.25" cy="34.25" r="15.25" fill="none" stroke="#7a7a7a" stroke-width="0.2" stroke-dasharray="0.8 1.2"/>
<path d="M110.75 34.25 L113.75 34.25 M112.25 32.75 L112.25 35.75" stroke="#2b2b2b" stroke-width="0.25"/>
<text x="112.25" y="14" font-family="Helvetica, Arial, sans-serif" font-size="2.6" text-anchor="middle" fill="#2b2b2b">KAPSA S MINCÍ (horní hrana otevřená)</text>
<text x="112.25" y="60" font-family="Helvetica, Arial, sans-serif" font-size="2.1" text-anchor="middle" fill="#7a7a7a">44,5 × 40,5 mm · okno Ø 19 (plná) · mince Ø 27,5 (čárkovaně)</text>
<text x="112.25" y="63.1" font-family="Helvetica, Arial, sans-serif" font-size="2.1" text-anchor="middle" fill="#7a7a7a">pata důlku Ø 30,5 (tečkovaně) · šev 23 otvorů od středu dna</text>
<path d="M90 82.5 h50.5 v50.5 h-50.5 Z" fill="none" stroke="#7a7a7a" stroke-width="0.2" stroke-dasharray="1.5 1.5"/>
<circle cx="115.25" cy="107.75" r="15.25" fill="none" stroke="#7a7a7a" stroke-width="0.2" stroke-dasharray="2 1.5"/>
<path d="M113.75 107.75 L116.75 107.75 M115.25 106.25 L115.25 109.25" stroke="#2b2b2b" stroke-width="0.25"/>
<text x="115.25" y="80.5" font-family="Helvetica, Arial, sans-serif" font-size="2.6" text-anchor="middle" fill="#2b2b2b">FORMA PRO DŮLEK (dřevo / HDPE, ne kůže)</text>
<text x="115.25" y="136.5" font-family="Helvetica, Arial, sans-serif" font-size="2.1" text-anchor="middle" fill="#7a7a7a">otvor Ø 30,5 = mince + 2 × kůže 1,2 + 0,6 · deska 50,5 × 50,5</text>
<text x="115.25" y="139.6" font-family="Helvetica, Arial, sans-serif" font-size="2.1" text-anchor="middle" fill="#7a7a7a">kůže LÍCEM DOLŮ na formu, mince na rub, přiklopit deskou, stáhnout svěrkami</text>
<path d="M12 277 V281 M12 279 H62 M62 277 V281" stroke="#2b2b2b" stroke-width="0.3" fill="none"/>
<text x="37" y="276" font-family="Helvetica, Arial, sans-serif" font-size="2.4" text-anchor="middle" fill="#2b2b2b">KONTROLA MĚŘÍTKA: tato úsečka musí měřit přesně 50 mm</text>
<text x="12" y="253.5" font-family="Helvetica, Arial, sans-serif" font-size="2.2" text-anchor="start" fill="#7a7a7a">POUZDRO NA KARTY S VSAZENOU MINCÍ – střih 1:1, tisk na A4 na 100 % (bez „přizpůsobit stránce“). NÁVRH k ověření na papíru a odřezku.</text>
<text x="12" y="256.9" font-family="Helvetica, Arial, sans-serif" font-size="2.2" text-anchor="start" fill="#7a7a7a">Karta 54 × 85,6 (4 ks), mince Ø 27,5, kůže tělo 1,5 mm, kapsa 1,2 mm. Jazyk 38,49 mm od horní hrany zadního panelu.</text>
<text x="12" y="260.3" font-family="Helvetica, Arial, sans-serif" font-size="2.2" text-anchor="start" fill="#7a7a7a">Plná čára = řez. Tečky = otvory stehu, rozteč 4 mm, 3,5 mm od hrany; boční švy 18 otvorů na stranu, počítané od ohybu na obou panelech.</text>
<text x="12" y="263.7" font-family="Helvetica, Arial, sans-serif" font-size="2.2" text-anchor="start" fill="#7a7a7a">Pořadí: 1 tělo · 2 kapsa: navlhčit, LÍCEM DOLŮ na formu, mince, přiklopit, svěrky, nechat zaschnout · 3 vyříznout obrys kapsy · 4 vyseknout OKNO (kapsa lícem dolů na formě,</text>
<text x="12" y="267.1" font-family="Helvetica, Arial, sans-serif" font-size="2.2" text-anchor="start" fill="#7a7a7a">pod dno špalík) · 5 přišít kapsu na předek (3 strany) · 6 přeložit, prošít boky · 7 průchodka · 8 druk: klobouček na jazyku až po zkoušce s kartami · 9 hrany.</text>
</svg>